SplineFontDB: 3.0
FontName: VerdanaCamel
FullName: VerdanaCamel
FamilyName: VerdanaCamel
Weight: Book
Copyright: (c) 2006 Microsoft Corporation. All Rights Reserved.
Version: 5.01x
ItalicAngle: 0
UnderlinePosition: -360
UnderlineWidth: 120
Ascent: 1638
Descent: 410
InvalidEm: 0
sfntRevision: 0x0005028f
LayerCount: 2
Layer: 0 1 "Back" 1
Layer: 1 1 "Fore" 0
XUID: [1021 997 -660668673 16193440]
StyleMap: 0x0040
FSType: 8
OS2Version: 2
OS2_WeightWidthSlopeOnly: 0
OS2_UseTypoMetrics: 0
CreationTime: 777556905
ModificationTime: 1477230879
PfmFamily: 17
TTFWeight: 400
TTFWidth: 5
LineGap: 0
VLineGap: 0
Panose: 2 11 6 4 3 5 4 4 2 4
OS2TypoAscent: 1566
OS2TypoAOffset: 0
OS2TypoDescent: -423
OS2TypoDOffset: 0
OS2TypoLinegap: 202
OS2WinAscent: 2059
OS2WinAOffset: 0
OS2WinDescent: 430
OS2WinDOffset: 0
HheadAscent: 2059
HheadAOffset: 0
HheadDescent: -430
HheadDOffset: 0
OS2SubXSize: 1434
OS2SubYSize: 1331
OS2SubXOff: 0
OS2SubYOff: 293
OS2SupXSize: 1434
OS2SupYSize: 1331
OS2SupXOff: 0
OS2SupYOff: 928
OS2StrikeYSize: 120
OS2StrikeYPos: 679
OS2CapHeight: 1489
OS2XHeight: 1117
OS2FamilyClass: 2048
OS2Vendor: 'MS  '
OS2CodePages: 2000019f.00000000
OS2UnicodeRanges: a10006ff.4000205b.00000010.00000000
Lookup: 258 0 0 "'kern' Horizontal Kerning in Latin lookup 0" { "'kern' Horizontal Kerning in Latin lookup 0 subtable"  } ['kern' ('DFLT' <'dflt' > 'latn' <'dflt' > ) ]
MarkAttachClasses: 1
DEI: 91125
TtTable: prep
PUSHW_2
 84
 -64
NPUSHB
 30
 178
 41
 50
 54
 16
 178
 32
 178
 64
 178
 80
 178
 112
 178
 128
 178
 160
 178
 176
 178
 208
 178
 224
 178
 10
 192
 178
 240
 178
 2
PUSHW_1
 -64
NPUSHB
 112
 181
 23
 24
 54
 31
 68
 1
 15
 86
 31
 86
 2
 79
 85
 95
 85
 2
 111
 84
 1
 159
 84
 175
 84
 2
 81
 83
 23
 4
 82
 83
 22
 4
 83
 82
 21
 4
 74
 73
 82
 4
 70
 73
 55
 4
 71
 73
 50
 4
 72
 73
 50
 4
 73
 53
 57
 4
 60
 63
 50
 4
 61
 63
 61
 4
 62
 63
 33
 4
 67
 63
 29
 4
 66
 63
 82
 4
 65
 63
 82
 4
 64
 63
 82
 4
 63
 53
 50
 4
 50
 51
 100
 4
 51
 53
 52
 4
 53
 52
 84
 4
 52

StartChar: .notdef
Encoding: 65536 -1 0
Width: 2048
Flags: W
LayerCount: 2
Fore
SplineSet
256 0 m 1,0,-1
 256 1536 l 1,1,-1
 1792 1536 l 1,2,-1
 1792 0 l 1,3,-1
 256 0 l 1,0,-1
384 128 m 1,4,-1
 1664 128 l 1,5,-1
 1664 1408 l 1,6,-1
 384 1408 l 1,7,-1
 384 128 l 1,4,-1
EndSplineSet
EndChar

StartChar: exclam
Encoding: 33 33 4
Width: 1679
Flags: W
LayerCount: 2
Fore
SplineSet
959 1489 m 1,0,-1
 933 410 l 1,1,-1
 763 410 l 1,2,-1
 735 1489 l 1,3,-1
 959 1489 l 1,0,-1
949 0 m 1,4,-1
 745 0 l 1,5,-1
 745 211 l 1,6,-1
 949 211 l 1,7,-1
 949 0 l 1,4,-1
EndSplineSet
EndChar

StartChar: quotedbl
Encoding: 34 34 5
Width: 940
Flags: W
LayerCount: 2
Fore
SplineSet
772 1556 m 1,0,-1
 729 977 l 1,1,-1
 597 977 l 1,2,-1
 554 1556 l 1,3,-1
 772 1556 l 1,0,-1
386 1556 m 1,4,-1
 343 977 l 1,5,-1
 211 977 l 1,6,-1
 168 1556 l 1,7,-1
 386 1556 l 1,4,-1
EndSplineSet
EndChar

StartChar: numbersign
Encoding: 35 35 6
Width: 1676
Flags: W
LayerCount: 2
Fore
SplineSet
1481 932 m 1,0,-1
 1148 932 l 1,1,-1
 1056 556 l 1,2,-1
 1364 556 l 1,3,-1
 1364 421 l 1,4,-1
 1021 421 l 1,5,-1
 917 0 l 1,6,-1
 788 0 l 1,7,-1
 892 421 l 1,8,-1
 622 421 l 1,9,-1
 518 0 l 1,10,-1
 389 0 l 1,11,-1
 493 421 l 1,12,-1
 195 421 l 1,13,-1
 195 556 l 1,14,-1
 528 556 l 1,15,-1
 620 932 l 1,16,-1
 312 932 l 1,17,-1
 312 1067 l 1,18,-1
 655 1067 l 1,19,-1
 760 1489 l 1,20,-1
 889 1489 l 1,21,-1
 784 1067 l 1,22,-1
 1054 1067 l 1,23,-1
 1159 1489 l 1,24,-1
 1288 1489 l 1,25,-1
 1183 1067 l 1,26,-1
 1481 1067 l 1,27,-1
 1481 932 l 1,0,-1
1022 934 m 1,28,-1
 748 934 l 1,29,-1
 654 554 l 1,30,-1
 928 554 l 1,31,-1
 1022 934 l 1,28,-1
EndSplineSet
EndChar

StartChar: dollar
Encoding: 36 36 7
Width: 1302
Flags: W
LayerCount: 2
Fore
SplineSet
1160 380 m 0,0,1
 1160 225 1160 225 1039 122.5 c 128,-1,2
 918 20 918 20 722 1 c 1,3,-1
 722 -361 l 1,4,-1
 604 -361 l 1,5,-1
 604 -4 l 1,6,7
 472 -3 472 -3 356 21.5 c 128,-1,8
 240 46 240 46 155 85 c 1,9,-1
 155 283 l 1,10,-1
 171 283 l 1,11,12
 190 269 190 269 239 242.5 c 128,-1,13
 288 216 288 216 334 199 c 0,14,15
 386 180 386 180 455.5 163.5 c 128,-1,16
 525 147 525 147 604 144 c 1,17,-1
 604 577 l 1,18,19
 564 585 564 585 530 592.5 c 128,-1,20
 496 600 496 600 467 608 c 0,21,22
 304 649 304 649 233 731.5 c 128,-1,23
 162 814 162 814 162 935 c 0,24,25
 162 1083 162 1083 278.5 1185 c 128,-1,26
 395 1287 395 1287 604 1304 c 1,27,-1
 604 1576 l 1,28,-1
 722 1576 l 1,29,-1
 722 1306 l 1,30,31
 823 1304 823 1304 929 1282 c 128,-1,32
 1035 1260 1035 1260 1107 1231 c 1,33,-1
 1107 1035 l 1,34,-1
 1093 1035 l 1,35,36
 1018 1081 1018 1081 936.5 1116.5 c 128,-1,37
 855 1152 855 1152 722 1161 c 1,38,-1
 722 730 l 1,39,40
 752 725 752 725 787 716.5 c 128,-1,41
 822 708 822 708 848 703 c 0,42,43
 997 671 997 671 1078.5 593 c 128,-1,44
 1160 515 1160 515 1160 380 c 0,0,1
604 747 m 1,45,-1
 604 1160 l 1,46,47
 497 1152 497 1152 424 1101.5 c 128,-1,48
 351 1051 351 1051 351 961 c 0,49,50
 351 870 351 870 405 824 c 128,-1,51
 459 778 459 778 604 747 c 1,45,-1
971 354 m 0,52,53
 971 448 971 448 912.5 491.5 c 128,-1,54
 854 535 854 535 722 560 c 1,55,-1
 722 146 l 1,56,57
 842 158 842 158 906.5 207 c 128,-1,58
 971 256 971 256 971 354 c 0,52,53
EndSplineSet
EndChar

StartChar: percent
Encoding: 37 37 8
Width: 2204
Flags: W
LayerCount: 2
Fore
SplineSet
884 1076 m 0,0,1
 884 852 884 852 789.5 743 c 128,-1,2
 695 634 695 634 517 634 c 0,3,4
 335 634 335 634 242 743 c 128,-1,5
 149 852 149 852 149 1075 c 0,6,7
 149 1299 149 1299 244 1408 c 128,-1,8
 339 1517 339 1517 517 1517 c 0,9,10
 698 1517 698 1517 791 1407 c 128,-1,11
 884 1297 884 1297 884 1076 c 0,0,1
1575 1489 m 1,12,-1
 795 0 l 1,13,-1
 630 0 l 1,14,-1
 1410 1489 l 1,15,-1
 1575 1489 l 1,12,-1
2055 413 m 0,16,17
 2055 189 2055 189 1960 80 c 128,-1,18
 1865 -29 1865 -29 1687 -29 c 0,19,20
 1506 -29 1506 -29 1413 81 c 128,-1,21
 1320 191 1320 191 1320 412 c 0,22,23
 1320 636 1320 636 1414.5 745 c 128,-1,24
 1509 854 1509 854 1687 854 c 0,25,26
 1869 854 1869 854 1962 745 c 128,-1,27
 2055 636 2055 636 2055 413 c 0,16,17
706 1076 m 0,28,29
 706 1248 706 1248 661.5 1316 c 128,-1,30
 617 1384 617 1384 517 1384 c 0,31,32
 415 1384 415 1384 371 1316 c 128,-1,33
 327 1248 327 1248 327 1075 c 256,34,35
 327 902 327 902 371 834.5 c 128,-1,36
 415 767 415 767 517 767 c 0,37,38
 617 767 617 767 661.5 834.5 c 128,-1,39
 706 902 706 902 706 1076 c 0,28,29
1877 413 m 0,40,41
 1877 585 1877 585 1832.5 653 c 128,-1,42
 1788 721 1788 721 1688 721 c 0,43,44
 1586 721 1586 721 1542 653 c 128,-1,45
 1498 585 1498 585 1498 412 c 256,46,47
 1498 239 1498 239 1542 171.5 c 128,-1,48
 1586 104 1586 104 1688 104 c 0,49,50
 1788 104 1788 104 1832.5 171.5 c 128,-1,51
 1877 239 1877 239 1877 413 c 0,40,41
EndSplineSet
EndChar

StartChar: ampersand
Encoding: 38 38 9
Width: 1488
Flags: W
LayerCount: 2
Fore
SplineSet
792 1191 m 0,0,1
 792 1286 792 1286 735.5 1340.5 c 128,-1,2
 679 1395 679 1395 591 1395 c 0,3,4
 499 1395 499 1395 441 1333.5 c 128,-1,5
 383 1272 383 1272 383 1183 c 0,6,7
 383 1108 383 1108 422.5 1050 c 128,-1,8
 462 992 462 992 593 913 c 1,9,10
 691 948 691 948 741.5 1015.5 c 128,-1,11
 792 1083 792 1083 792 1191 c 0,0,1
986 315 m 1,12,-1
 508 781 l 1,13,14
 477 766 477 766 446 741.5 c 128,-1,15
 415 717 415 717 384 675 c 0,16,17
 356 636 356 636 338 581 c 128,-1,18
 320 526 320 526 320 457 c 0,19,20
 320 311 320 311 405.5 221.5 c 128,-1,21
 491 132 491 132 648 132 c 0,22,23
 741 132 741 132 832.5 177.5 c 128,-1,24
 924 223 924 223 986 315 c 1,12,-1
1287 909 m 1,25,-1
 1287 813 l 2,26,27
 1287 717 1287 717 1262 597 c 128,-1,28
 1237 477 1237 477 1177 368 c 1,29,-1
 1555 0 l 1,30,-1
 1309 0 l 1,31,-1
 1080 224 l 1,32,33
 965 82 965 82 845 25.5 c 128,-1,34
 725 -31 725 -31 598 -31 c 0,35,36
 390 -31 390 -31 252.5 90.5 c 128,-1,37
 115 212 115 212 115 409 c 0,38,39
 115 501 115 501 141 568 c 128,-1,40
 167 635 167 635 202 684 c 0,41,42
 237 731 237 731 289 772.5 c 128,-1,43
 341 814 341 814 394 845 c 1,44,45
 284 917 284 917 235.5 990 c 128,-1,46
 187 1063 187 1063 187 1174 c 0,47,48
 187 1241 187 1241 213.5 1301.5 c 128,-1,49
 240 1362 240 1362 293 1412 c 0,50,51
 343 1460 343 1460 423.5 1490 c 128,-1,52
 504 1520 504 1520 601 1520 c 0,53,54
 774 1520 774 1520 881 1432.5 c 128,-1,55
 988 1345 988 1345 988 1211 c 0,56,57
 988 1167 988 1167 976 1111.5 c 128,-1,58
 964 1056 964 1056 935 1012 c 0,59,60
 903 963 903 963 844 918 c 128,-1,61
 785 873 785 873 691 841 c 1,62,-1
 1062 479 l 1,63,64
 1076 519 1076 519 1083 567 c 128,-1,65
 1090 615 1090 615 1091 667 c 0,66,67
 1093 723 1093 723 1092.5 792 c 128,-1,68
 1092 861 1092 861 1092 909 c 1,69,-1
 1287 909 l 1,25,-1
EndSplineSet
EndChar

StartChar: quotesingle
Encoding: 39 39 10
Width: 550
Flags: W
LayerCount: 2
Fore
SplineSet
386 1556 m 1,0,-1
 343 977 l 1,1,-1
 207 977 l 1,2,-1
 164 1556 l 1,3,-1
 386 1556 l 1,0,-1
EndSplineSet
EndChar

StartChar: parenleft
Encoding: 40 40 11
Width: 1094
Flags: W
LayerCount: 2
Fore
SplineSet
843 -412 m 1,0,-1
 614 -412 l 1,1,2
 437 -209 437 -209 339 31 c 128,-1,3
 241 271 241 271 241 572 c 256,4,5
 241 873 241 873 339 1113 c 128,-1,6
 437 1353 437 1353 614 1556 c 1,7,-1
 843 1556 l 1,8,-1
 843 1546 l 1,9,10
 762 1473 762 1473 688.5 1377.5 c 128,-1,11
 615 1282 615 1282 552 1155 c 0,12,13
 492 1032 492 1032 454.5 884 c 128,-1,14
 417 736 417 736 417 572 c 0,15,16
 417 401 417 401 453.5 259 c 128,-1,17
 490 117 490 117 552 -11 c 0,18,19
 612 -134 612 -134 689 -233.5 c 128,-1,20
 766 -333 766 -333 843 -402 c 1,21,-1
 843 -412 l 1,0,-1
EndSplineSet
EndChar

StartChar: parenright
Encoding: 41 41 12
Width: 1052
Flags: W
LayerCount: 2
Fore
SplineSet
839 572 m 256,0,1
 839 271 839 271 741 31 c 128,-1,2
 643 -209 643 -209 466 -412 c 1,3,-1
 237 -412 l 1,4,-1
 237 -402 l 1,5,6
 314 -333 314 -333 391.5 -233.5 c 128,-1,7
 469 -134 469 -134 528 -11 c 0,8,9
 590 117 590 117 626.5 259 c 128,-1,10
 663 401 663 401 663 572 c 0,11,12
 663 736 663 736 626 884 c 128,-1,13
 589 1032 589 1032 528 1155 c 0,14,15
 465 1282 465 1282 391.5 1377.5 c 128,-1,16
 318 1473 318 1473 237 1546 c 1,17,-1
 237 1556 l 1,18,-1
 466 1556 l 1,19,20
 643 1353 643 1353 741 1113 c 128,-1,21
 839 873 839 873 839 572 c 256,0,1
EndSplineSet
EndChar

StartChar: asterisk
Encoding: 42 42 13
Width: 1302
Flags: W
LayerCount: 2
Fore
SplineSet
1137 887 m 1,0,-1
 1073 777 l 1,1,-1
 711 990 l 1,2,-1
 717 630 l 1,3,-1
 588 630 l 1,4,-1
 593 990 l 1,5,-1
 232 776 l 1,6,-1
 167 886 l 1,7,-1
 548 1093 l 1,8,-1
 167 1300 l 1,9,-1
 232 1410 l 1,10,-1
 594 1197 l 1,11,-1
 588 1556 l 1,12,-1
 717 1556 l 1,13,-1
 710 1197 l 1,14,-1
 1073 1409 l 1,15,-1
 1137 1299 l 1,16,-1
 757 1094 l 1,17,-1
 1137 887 l 1,0,-1
EndSplineSet
EndChar

StartChar: plus
Encoding: 43 43 14
Width: 1676
Flags: W
LayerCount: 2
Fore
SplineSet
1466 572 m 1,0,-1
 921 572 l 1,1,-1
 921 27 l 1,2,-1
 755 27 l 1,3,-1
 755 572 l 1,4,-1
 210 572 l 1,5,-1
 210 732 l 1,6,-1
 755 732 l 1,7,-1
 755 1277 l 1,8,-1
 921 1277 l 1,9,-1
 921 732 l 1,10,-1
 1466 732 l 1,11,-1
 1466 572 l 1,0,-1
EndSplineSet
EndChar

StartChar: comma
Encoding: 44 44 15
Width: 745
Flags: W
LayerCount: 2
Fore
SplineSet
575 285 m 1,0,-1
 293 -370 l 1,1,-1
 147 -370 l 1,2,-1
 321 285 l 1,3,-1
 575 285 l 1,0,-1
EndSplineSet
EndChar

StartChar: hyphen
Encoding: 45 45 16
AltUni2: 0000ad.ffffffff.0
Width: 930
Flags: W
LayerCount: 2
Fore
SplineSet
777 561 m 1,0,-1
 153 561 l 1,1,-1
 153 742 l 1,2,-1
 777 742 l 1,3,-1
 777 561 l 1,0,-1
EndSplineSet
EndChar

StartChar: period
Encoding: 46 46 17
Width: 974
Flags: W
LayerCount: 2
Fore
SplineSet
660 0 m 1,0,-1
 304 -1 l 1,1,-1
 304 331 l 1,2,-1
 660 332 l 1,3,-1
 660 0 l 1,0,-1
EndSplineSet
EndChar

StartChar: slash
Encoding: 47 47 18
Width: 1098
Flags: W
LayerCount: 2
Fore
SplineSet
1028 1556 m 1,0,-1
 311 -304 l 1,1,-1
 138 -304 l 1,2,-1
 852 1556 l 1,3,-1
 1028 1556 l 1,0,-1
EndSplineSet
EndChar

StartChar: zero
Encoding: 48 48 19
Width: 1302
Flags: W
LayerCount: 2
Fore
SplineSet
1167 745 m 0,0,1
 1167 344 1167 344 1041.5 156.5 c 128,-1,2
 916 -31 916 -31 652 -31 c 0,3,4
 384 -31 384 -31 260.5 159 c 128,-1,5
 137 349 137 349 137 743 c 0,6,7
 137 1140 137 1140 262 1329.5 c 128,-1,8
 387 1519 387 1519 652 1519 c 0,9,10
 920 1519 920 1519 1043.5 1326.5 c 128,-1,11
 1167 1134 1167 1134 1167 745 c 0,0,1
904 291 m 0,12,13
 939 372 939 372 951.5 481.5 c 128,-1,14
 964 591 964 591 964 745 c 0,15,16
 964 897 964 897 951.5 1009 c 128,-1,17
 939 1121 939 1121 903 1199 c 0,18,19
 868 1276 868 1276 807.5 1315 c 128,-1,20
 747 1354 747 1354 652 1354 c 0,21,22
 558 1354 558 1354 496.5 1315 c 128,-1,23
 435 1276 435 1276 399 1197 c 0,24,25
 365 1123 365 1123 352.5 1004 c 128,-1,26
 340 885 340 885 340 743 c 0,27,28
 340 587 340 587 351 482 c 128,-1,29
 362 377 362 377 398 294 c 0,30,31
 431 216 431 216 491.5 175 c 128,-1,32
 552 134 552 134 652 134 c 0,33,34
 746 134 746 134 808 173 c 128,-1,35
 870 212 870 212 904 291 c 0,12,13
EndSplineSet
EndChar

StartChar: one
Encoding: 49 49 20
Width: 1302
Flags: W
LayerCount: 2
Fore
SplineSet
1084 0 m 1,0,-1
 278 0 l 1,1,-1
 278 152 l 1,2,-1
 588 152 l 1,3,-1
 588 1150 l 1,4,-1
 278 1150 l 1,5,-1
 278 1286 l 1,6,7
 341 1286 341 1286 413 1296.5 c 128,-1,8
 485 1307 485 1307 522 1327 c 0,9,10
 568 1352 568 1352 594.5 1390.5 c 128,-1,11
 621 1429 621 1429 625 1494 c 1,12,-1
 780 1494 l 1,13,-1
 780 152 l 1,14,-1
 1084 152 l 1,15,-1
 1084 0 l 1,0,-1
EndSplineSet
EndChar

StartChar: two
Encoding: 50 50 21
Width: 1302
Flags: W
LayerCount: 2
Fore
SplineSet
1169 0 m 1,0,-1
 161 0 l 1,1,-1
 161 209 l 1,2,3
 266 299 266 299 371.5 389 c 128,-1,4
 477 479 477 479 568 568 c 0,5,6
 760 754 760 754 831 863.5 c 128,-1,7
 902 973 902 973 902 1100 c 0,8,9
 902 1216 902 1216 825.5 1281.5 c 128,-1,10
 749 1347 749 1347 612 1347 c 0,11,12
 521 1347 521 1347 415 1315 c 128,-1,13
 309 1283 309 1283 208 1217 c 1,14,-1
 198 1217 l 1,15,-1
 198 1427 l 1,16,17
 269 1462 269 1462 387.5 1491 c 128,-1,18
 506 1520 506 1520 617 1520 c 0,19,20
 846 1520 846 1520 976 1409.5 c 128,-1,21
 1106 1299 1106 1299 1106 1110 c 0,22,23
 1106 1025 1106 1025 1084.5 951.5 c 128,-1,24
 1063 878 1063 878 1021 812 c 0,25,26
 982 750 982 750 929.5 690 c 128,-1,27
 877 630 877 630 802 557 c 0,28,29
 695 452 695 452 581 353.5 c 128,-1,30
 467 255 467 255 368 171 c 1,31,-1
 1169 171 l 1,32,-1
 1169 0 l 1,0,-1
EndSplineSet
EndChar

StartChar: three
Encoding: 51 51 22
Width: 1302
Flags: W
LayerCount: 2
Fore
SplineSet
1038 717 m 0,0,1
 1086 674 1086 674 1117 609 c 128,-1,2
 1148 544 1148 544 1148 441 c 0,3,4
 1148 339 1148 339 1111 254 c 128,-1,5
 1074 169 1074 169 1007 106 c 0,6,7
 932 36 932 36 830.5 2.5 c 128,-1,8
 729 -31 729 -31 608 -31 c 0,9,10
 484 -31 484 -31 364 -1.5 c 128,-1,11
 244 28 244 28 167 63 c 1,12,-1
 167 272 l 1,13,-1
 182 272 l 1,14,15
 267 216 267 216 382 179 c 128,-1,16
 497 142 497 142 604 142 c 0,17,18
 667 142 667 142 738 163 c 128,-1,19
 809 184 809 184 853 225 c 0,20,21
 899 269 899 269 921.5 322 c 128,-1,22
 944 375 944 375 944 456 c 0,23,24
 944 536 944 536 918.5 588.5 c 128,-1,25
 893 641 893 641 848 671 c 0,26,27
 803 702 803 702 739 713.5 c 128,-1,28
 675 725 675 725 601 725 c 2,29,-1
 511 725 l 1,30,-1
 511 891 l 1,31,-1
 581 891 l 2,32,33
 733 891 733 891 823.5 954.5 c 128,-1,34
 914 1018 914 1018 914 1140 c 0,35,36
 914 1194 914 1194 891 1234.5 c 128,-1,37
 868 1275 868 1275 827 1301 c 0,38,39
 784 1327 784 1327 735 1337 c 128,-1,40
 686 1347 686 1347 624 1347 c 0,41,42
 529 1347 529 1347 422 1313 c 128,-1,43
 315 1279 315 1279 220 1217 c 1,44,-1
 210 1217 l 1,45,-1
 210 1426 l 1,46,47
 281 1461 281 1461 399.5 1490.5 c 128,-1,48
 518 1520 518 1520 629 1520 c 0,49,50
 738 1520 738 1520 821 1500 c 128,-1,51
 904 1480 904 1480 971 1436 c 0,52,53
 1043 1388 1043 1388 1080 1320 c 128,-1,54
 1117 1252 1117 1252 1117 1161 c 0,55,56
 1117 1037 1117 1037 1029.5 944.5 c 128,-1,57
 942 852 942 852 823 828 c 1,58,-1
 823 814 l 1,59,60
 871 806 871 806 933 780.5 c 128,-1,61
 995 755 995 755 1038 717 c 0,0,1
EndSplineSet
EndChar

StartChar: four
Encoding: 52 52 23
Width: 1302
Flags: W
LayerCount: 2
Fore
SplineSet
1203 419 m 1,0,-1
 982 419 l 1,1,-1
 982 0 l 1,2,-1
 790 0 l 1,3,-1
 790 419 l 1,4,-1
 77 419 l 1,5,-1
 77 649 l 1,6,-1
 798 1489 l 1,7,-1
 982 1489 l 1,8,-1
 982 579 l 1,9,-1
 1203 579 l 1,10,-1
 1203 419 l 1,0,-1
790 579 m 1,11,-1
 790 1251 l 1,12,-1
 213 579 l 1,13,-1
 790 579 l 1,11,-1
EndSplineSet
EndChar

StartChar: five
Encoding: 53 53 24
Width: 1302
Flags: W
LayerCount: 2
Fore
SplineSet
1157 473 m 0,0,1
 1157 369 1157 369 1119 274 c 128,-1,2
 1081 179 1081 179 1015 114 c 0,3,4
 943 44 943 44 843.5 6.5 c 128,-1,5
 744 -31 744 -31 613 -31 c 0,6,7
 491 -31 491 -31 378 -5.5 c 128,-1,8
 265 20 265 20 187 56 c 1,9,-1
 187 267 l 1,10,-1
 201 267 l 1,11,12
 283 215 283 215 393 178.5 c 128,-1,13
 503 142 503 142 609 142 c 0,14,15
 680 142 680 142 746.5 162 c 128,-1,16
 813 182 813 182 865 232 c 0,17,18
 909 275 909 275 931.5 335 c 128,-1,19
 954 395 954 395 954 474 c 0,20,21
 954 551 954 551 927.5 604 c 128,-1,22
 901 657 901 657 854 689 c 0,23,24
 802 727 802 727 727.5 742.5 c 128,-1,25
 653 758 653 758 561 758 c 0,26,27
 473 758 473 758 391.5 746 c 128,-1,28
 310 734 310 734 251 722 c 1,29,-1
 251 1489 l 1,30,-1
 1147 1489 l 1,31,-1
 1147 1314 l 1,32,-1
 444 1314 l 1,33,-1
 444 918 l 1,34,35
 487 922 487 922 532 924 c 128,-1,36
 577 926 577 926 610 926 c 0,37,38
 731 926 731 926 822 905.5 c 128,-1,39
 913 885 913 885 989 833 c 0,40,41
 1069 778 1069 778 1113 691 c 128,-1,42
 1157 604 1157 604 1157 473 c 0,0,1
EndSplineSet
EndChar

StartChar: six
Encoding: 54 54 25
Width: 1302
Flags: W
LayerCount: 2
Fore
SplineSet
1191 483 m 0,0,1
 1191 256 1191 256 1041.5 112.5 c 128,-1,2
 892 -31 892 -31 675 -31 c 0,3,4
 565 -31 565 -31 475 3 c 128,-1,5
 385 37 385 37 316 104 c 0,6,7
 230 187 230 187 183.5 324 c 128,-1,8
 137 461 137 461 137 654 c 0,9,10
 137 852 137 852 179.5 1005 c 128,-1,11
 222 1158 222 1158 315 1277 c 0,12,13
 403 1390 403 1390 542 1453.5 c 128,-1,14
 681 1517 681 1517 866 1517 c 0,15,16
 925 1517 925 1517 965 1512 c 128,-1,17
 1005 1507 1005 1507 1046 1494 c 1,18,-1
 1046 1303 l 1,19,-1
 1036 1303 l 1,20,21
 1008 1318 1008 1318 951.5 1331.5 c 128,-1,22
 895 1345 895 1345 836 1345 c 0,23,24
 621 1345 621 1345 493 1210.5 c 128,-1,25
 365 1076 365 1076 344 847 c 1,26,27
 428 898 428 898 509.5 924.5 c 128,-1,28
 591 951 591 951 698 951 c 0,29,30
 793 951 793 951 865.5 933.5 c 128,-1,31
 938 916 938 916 1014 863 c 0,32,33
 1102 802 1102 802 1146.5 709 c 128,-1,34
 1191 616 1191 616 1191 483 c 0,0,1
988 475 m 0,35,36
 988 568 988 568 960.5 629 c 128,-1,37
 933 690 933 690 870 735 c 0,38,39
 824 767 824 767 768 777 c 128,-1,40
 712 787 712 787 651 787 c 0,41,42
 566 787 566 787 493 767 c 128,-1,43
 420 747 420 747 343 705 c 1,44,45
 341 683 341 683 340 662.5 c 128,-1,46
 339 642 339 642 339 611 c 0,47,48
 339 453 339 453 371.5 361.5 c 128,-1,49
 404 270 404 270 461 217 c 0,50,51
 507 173 507 173 560.5 152.5 c 128,-1,52
 614 132 614 132 677 132 c 0,53,54
 822 132 822 132 905 220.5 c 128,-1,55
 988 309 988 309 988 475 c 0,35,36
EndSplineSet
EndChar

StartChar: seven
Encoding: 55 55 26
Width: 1302
Flags: W
LayerCount: 2
Fore
SplineSet
1173 1266 m 1,0,-1
 499 0 l 1,1,-1
 285 0 l 1,2,-1
 1002 1314 l 1,3,-1
 154 1314 l 1,4,-1
 154 1489 l 1,5,-1
 1173 1489 l 1,6,-1
 1173 1266 l 1,0,-1
EndSplineSet
EndChar

StartChar: eight
Encoding: 56 56 27
Width: 1302
Flags: W
LayerCount: 2
Fore
SplineSet
1180 415 m 0,0,1
 1180 222 1180 222 1029.5 94 c 128,-1,2
 879 -34 879 -34 651 -34 c 0,3,4
 409 -34 409 -34 265.5 91 c 128,-1,5
 122 216 122 216 122 411 c 0,6,7
 122 535 122 535 194 635.5 c 128,-1,8
 266 736 266 736 397 795 c 1,9,-1
 397 801 l 1,10,11
 277 865 277 865 219.5 941 c 128,-1,12
 162 1017 162 1017 162 1131 c 0,13,14
 162 1299 162 1299 300 1411 c 128,-1,15
 438 1523 438 1523 651 1523 c 0,16,17
 874 1523 874 1523 1007 1416 c 128,-1,18
 1140 1309 1140 1309 1140 1144 c 0,19,20
 1140 1043 1140 1043 1077 945.5 c 128,-1,21
 1014 848 1014 848 892 793 c 1,22,-1
 892 787 l 1,23,24
 1032 727 1032 727 1106 639 c 128,-1,25
 1180 551 1180 551 1180 415 c 0,0,1
943 1142 m 0,26,27
 943 1249 943 1249 860.5 1312.5 c 128,-1,28
 778 1376 778 1376 650 1376 c 0,29,30
 524 1376 524 1376 443.5 1316 c 128,-1,31
 363 1256 363 1256 363 1154 c 0,32,33
 363 1082 363 1082 403.5 1029.5 c 128,-1,34
 444 977 444 977 526 936 c 0,35,36
 563 918 563 918 632.5 889 c 128,-1,37
 702 860 702 860 768 841 c 1,38,39
 867 907 867 907 905 978 c 128,-1,40
 943 1049 943 1049 943 1142 c 0,26,27
974 396 m 0,41,42
 974 488 974 488 933.5 543.5 c 128,-1,43
 893 599 893 599 775 655 c 0,44,45
 728 677 728 677 672 696 c 128,-1,46
 616 715 616 715 523 749 c 1,47,48
 433 700 433 700 378.5 616 c 128,-1,49
 324 532 324 532 324 426 c 0,50,51
 324 291 324 291 417 203 c 128,-1,52
 510 115 510 115 653 115 c 0,53,54
 799 115 799 115 886.5 190 c 128,-1,55
 974 265 974 265 974 396 c 0,41,42
EndSplineSet
EndChar

StartChar: nine
Encoding: 57 57 28
Width: 1302
Flags: W
LayerCount: 2
Fore
SplineSet
1167 834 m 0,0,1
 1167 639 1167 639 1122.5 480 c 128,-1,2
 1078 321 1078 321 988 209 c 0,3,4
 897 95 897 95 760 33 c 128,-1,5
 623 -29 623 -29 438 -29 c 0,6,7
 386 -29 386 -29 340 -23.5 c 128,-1,8
 294 -18 294 -18 258 -6 c 1,9,-1
 258 185 l 1,10,-1
 268 185 l 1,11,12
 297 170 297 170 350 156.5 c 128,-1,13
 403 143 403 143 468 143 c 0,14,15
 689 143 689 143 814.5 275.5 c 128,-1,16
 940 408 940 408 960 641 c 1,17,18
 867 585 867 585 785 561 c 128,-1,19
 703 537 703 537 606 537 c 0,20,21
 514 537 514 537 439.5 555 c 128,-1,22
 365 573 365 573 290 625 c 0,23,24
 202 686 202 686 157.5 780 c 128,-1,25
 113 874 113 874 113 1005 c 0,26,27
 113 1233 113 1233 263 1376 c 128,-1,28
 413 1519 413 1519 629 1519 c 0,29,30
 737 1519 737 1519 829 1485.5 c 128,-1,31
 921 1452 921 1452 990 1385 c 0,32,33
 1075 1302 1075 1302 1121 1171.5 c 128,-1,34
 1167 1041 1167 1041 1167 834 c 0,0,1
965 877 m 0,35,36
 965 1032 965 1032 933 1126 c 128,-1,37
 901 1220 901 1220 845 1272 c 0,38,39
 798 1317 798 1317 744 1336.5 c 128,-1,40
 690 1356 690 1356 627 1356 c 0,41,42
 483 1356 483 1356 399.5 1266 c 128,-1,43
 316 1176 316 1176 316 1013 c 0,44,45
 316 918 316 918 343 858 c 128,-1,46
 370 798 370 798 434 753 c 0,47,48
 479 722 479 722 533 711.5 c 128,-1,49
 587 701 587 701 653 701 c 0,50,51
 731 701 731 701 811 722 c 128,-1,52
 891 743 891 743 961 783 c 1,53,54
 962 804 962 804 963.5 824.5 c 128,-1,55
 965 845 965 845 965 877 c 0,35,36
EndSplineSet
EndChar

StartChar: colon
Encoding: 58 58 29
Width: 930
Flags: W
LayerCount: 2
Fore
SplineSet
585 832 m 1,0,-1
 346 832 l 1,1,-1
 346 1117 l 1,2,-1
 585 1117 l 1,3,-1
 585 832 l 1,0,-1
585 0 m 1,4,-1
 346 0 l 1,5,-1
 346 285 l 1,6,-1
 585 285 l 1,7,-1
 585 0 l 1,4,-1
EndSplineSet
EndChar

StartChar: semicolon
Encoding: 59 59 30
AltUni2: 00037e.ffffffff.0
Width: 930
Flags: W
LayerCount: 2
Fore
SplineSet
585 832 m 1,0,-1
 346 832 l 1,1,-1
 346 1117 l 1,2,-1
 585 1117 l 1,3,-1
 585 832 l 1,0,-1
658 285 m 1,4,-1
 376 -370 l 1,5,-1
 230 -370 l 1,6,-1
 404 285 l 1,7,-1
 658 285 l 1,4,-1
EndSplineSet
EndChar

StartChar: less
Encoding: 60 60 31
Width: 1244
Flags: W
LayerCount: 2
Fore
SplineSet
1194 77 m 1,0,-1
 40 590 l 1,1,-1
 40 714 l 1,2,-1
 1194 1227 l 1,3,-1
 1194 1047 l 1,4,-1
 284 652 l 1,5,-1
 1194 257 l 1,6,-1
 1194 77 l 1,0,-1
EndSplineSet
EndChar

StartChar: equal
Encoding: 61 61 32
Width: 1326
Flags: W
LayerCount: 2
Fore
SplineSet
1257 782 m 1,0,-1
 71 782 l 1,1,-1
 71 942 l 1,2,-1
 1257 942 l 1,3,-1
 1257 782 l 1,0,-1
1257 362 m 1,4,-1
 71 362 l 1,5,-1
 71 522 l 1,6,-1
 1257 522 l 1,7,-1
 1257 362 l 1,4,-1
EndSplineSet
EndChar

StartChar: greater
Encoding: 62 62 33
Width: 1316
Flags: W
LayerCount: 2
Fore
SplineSet
1248 590 m 1,0,-1
 94 77 l 1,1,-1
 94 257 l 1,2,-1
 1004 652 l 1,3,-1
 94 1047 l 1,4,-1
 94 1227 l 1,5,-1
 1248 714 l 1,6,-1
 1248 590 l 1,0,-1
EndSplineSet
EndChar

StartChar: question
Encoding: 63 63 34
Width: 1117
Flags: W
LayerCount: 2
Fore
SplineSet
1005 1139 m 0,0,1
 1005 1041 1005 1041 970 964.5 c 128,-1,2
 935 888 935 888 878 829 c 0,3,4
 822 772 822 772 749 722 c 128,-1,5
 676 672 676 672 594 625 c 1,6,-1
 594 400 l 1,7,-1
 415 400 l 1,8,-1
 415 705 l 1,9,10
 480 742 480 742 555.5 786 c 128,-1,11
 631 830 631 830 679 875 c 0,12,13
 737 927 737 927 769 982.5 c 128,-1,14
 801 1038 801 1038 801 1124 c 0,15,16
 801 1237 801 1237 724.5 1292.5 c 128,-1,17
 648 1348 648 1348 527 1348 c 0,18,19
 419 1348 419 1348 322.5 1314 c 128,-1,20
 226 1280 226 1280 170 1245 c 1,21,-1
 160 1245 l 1,22,-1
 160 1449 l 1,23,24
 230 1476 230 1476 337.5 1497.5 c 128,-1,25
 445 1519 445 1519 541 1519 c 0,26,27
 756 1519 756 1519 880.5 1414.5 c 128,-1,28
 1005 1310 1005 1310 1005 1139 c 0,0,1
610 0 m 1,29,-1
 406 0 l 1,30,-1
 406 211 l 1,31,-1
 610 211 l 1,32,-1
 610 0 l 1,29,-1
EndSplineSet
EndChar

StartChar: at
Encoding: 64 64 35
Width: 2048
Flags: W
LayerCount: 2
Fore
SplineSet
1870 663 m 0,0,1
 1870 524 1870 524 1829.5 394 c 128,-1,2
 1789 264 1789 264 1714 157 c 1,3,-1
 1274 157 l 1,4,-1
 1247 273 l 1,5,6
 1173 213 1173 213 1105 181 c 128,-1,7
 1037 149 1037 149 949 149 c 0,8,9
 781 149 781 149 680.5 276 c 128,-1,10
 580 403 580 403 580 631 c 0,11,12
 580 858 580 858 703 993 c 128,-1,13
 826 1128 826 1128 997 1128 c 0,14,15
 1070 1128 1070 1128 1126 1111.5 c 128,-1,16
 1182 1095 1182 1095 1247 1062 c 1,17,-1
 1247 1110 l 1,18,-1
 1406 1110 l 1,19,-1
 1406 268 l 1,20,-1
 1649 268 l 1,21,22
 1691 343 1691 343 1712.5 455.5 c 128,-1,23
 1734 568 1734 568 1734 657 c 0,24,25
 1734 821 1734 821 1688.5 955 c 128,-1,26
 1643 1089 1643 1089 1555 1185 c 256,27,28
 1467 1281 1467 1281 1337 1332.5 c 128,-1,29
 1207 1384 1207 1384 1042 1384 c 0,30,31
 882 1384 882 1384 749.5 1326 c 128,-1,32
 617 1268 617 1268 522 1170 c 0,33,34
 426 1072 426 1072 371.5 935.5 c 128,-1,35
 317 799 317 799 317 645 c 0,36,37
 317 480 317 480 369 343.5 c 128,-1,38
 421 207 421 207 516 110 c 0,39,40
 615 9 615 9 748 -42.5 c 128,-1,41
 881 -94 881 -94 1038 -94 c 0,42,43
 1124 -94 1124 -94 1215.5 -83 c 128,-1,44
 1307 -72 1307 -72 1391 -48 c 1,45,-1
 1391 -190 l 1,46,47
 1294 -211 1294 -211 1210 -218.5 c 128,-1,48
 1126 -226 1126 -226 1037 -226 c 0,49,50
 851 -226 851 -226 692 -162.5 c 128,-1,51
 533 -99 533 -99 419 15 c 0,52,53
 304 130 304 130 240 291 c 128,-1,54
 176 452 176 452 176 647 c 0,55,56
 176 832 176 832 243 991.5 c 128,-1,57
 310 1151 310 1151 426 1268 c 256,58,59
 542 1385 542 1385 701 1452 c 128,-1,60
 860 1519 860 1519 1041 1519 c 0,61,62
 1237 1519 1237 1519 1391 1457 c 128,-1,63
 1545 1395 1545 1395 1651 1283 c 256,64,65
 1757 1171 1757 1171 1813.5 1013.5 c 128,-1,66
 1870 856 1870 856 1870 663 c 0,0,1
1245 408 m 1,67,-1
 1245 926 l 1,68,69
 1182 955 1182 955 1132 967.5 c 128,-1,70
 1082 980 1082 980 1025 980 c 0,71,72
 896 980 896 980 823 890 c 128,-1,73
 750 800 750 800 750 634 c 0,74,75
 750 471 750 471 808 387.5 c 128,-1,76
 866 304 866 304 989 304 c 0,77,78
 1056 304 1056 304 1123 335 c 128,-1,79
 1190 366 1190 366 1245 408 c 1,67,-1
EndSplineSet
EndChar

StartChar: A
Encoding: 65 65 36
Width: 1922
Flags: W
LayerCount: 2
Fore
SplineSet
1896 0 m 1,0,-1
 1685 0 l 1,1,-1
 1539 415 l 1,2,-1
 895 415 l 1,3,-1
 749 0 l 1,4,-1
 548 0 l 1,5,-1
 1090 1489 l 1,6,-1
 1354 1489 l 1,7,-1
 1896 0 l 1,0,-1
1478 585 m 1,8,-1
 1217 1316 l 1,9,-1
 955 585 l 1,10,-1
 1478 585 l 1,8,-1
EndSplineSet
EndChar

StartChar: B
Encoding: 66 66 37
Width: 1899
Flags: W
LayerCount: 2
Fore
SplineSet
1818 458 m 0,0,1
 1818 347 1818 347 1776 262 c 128,-1,2
 1734 177 1734 177 1663 122 c 0,3,4
 1579 56 1579 56 1478.5 28 c 128,-1,5
 1378 0 1378 0 1223 0 c 2,6,-1
 695 0 l 1,7,-1
 695 1489 l 1,8,-1
 1136 1489 l 2,9,10
 1299 1489 1299 1489 1380 1477 c 128,-1,11
 1461 1465 1461 1465 1535 1427 c 0,12,13
 1617 1384 1617 1384 1654 1316.5 c 128,-1,14
 1691 1249 1691 1249 1691 1155 c 0,15,16
 1691 1049 1691 1049 1637 974.5 c 128,-1,17
 1583 900 1583 900 1493 855 c 1,18,-1
 1493 847 l 1,19,20
 1644 816 1644 816 1731 714.5 c 128,-1,21
 1818 613 1818 613 1818 458 c 0,0,1
1485 1129 m 0,22,23
 1485 1183 1485 1183 1467 1220 c 128,-1,24
 1449 1257 1449 1257 1409 1280 c 0,25,26
 1362 1307 1362 1307 1295 1313.5 c 128,-1,27
 1228 1320 1228 1320 1129 1320 c 2,28,-1
 893 1320 l 1,29,-1
 893 890 l 1,30,-1
 1149 890 l 2,31,32
 1242 890 1242 890 1297 899.5 c 128,-1,33
 1352 909 1352 909 1399 939 c 256,34,35
 1446 969 1446 969 1465.5 1016.5 c 128,-1,36
 1485 1064 1485 1064 1485 1129 c 0,22,23
1612 450 m 0,37,38
 1612 540 1612 540 1585 593 c 128,-1,39
 1558 646 1558 646 1487 683 c 0,40,41
 1439 708 1439 708 1370.5 715.5 c 128,-1,42
 1302 723 1302 723 1204 723 c 2,43,-1
 893 723 l 1,44,-1
 893 169 l 1,45,-1
 1155 169 l 2,46,47
 1285 169 1285 169 1368 182.5 c 128,-1,48
 1451 196 1451 196 1504 232 c 0,49,50
 1560 271 1560 271 1586 321 c 128,-1,51
 1612 371 1612 371 1612 450 c 0,37,38
EndSplineSet
EndChar

StartChar: C
Encoding: 67 67 38
Width: 1961
Flags: W
LayerCount: 2
Fore
SplineSet
1881 108 m 1,0,1
 1826 84 1826 84 1781.5 63 c 128,-1,2
 1737 42 1737 42 1665 19 c 0,3,4
 1604 0 1604 0 1532.5 -13.5 c 128,-1,5
 1461 -27 1461 -27 1375 -27 c 0,6,7
 1213 -27 1213 -27 1080.5 18.5 c 128,-1,8
 948 64 948 64 850 161 c 0,9,10
 754 256 754 256 700 402.5 c 128,-1,11
 646 549 646 549 646 743 c 0,12,13
 646 927 646 927 698 1072 c 128,-1,14
 750 1217 750 1217 848 1317 c 0,15,16
 943 1414 943 1414 1077.5 1465 c 128,-1,17
 1212 1516 1212 1516 1376 1516 c 0,18,19
 1496 1516 1496 1516 1615.5 1487 c 128,-1,20
 1735 1458 1735 1458 1881 1385 c 1,21,-1
 1881 1150 l 1,22,-1
 1866 1150 l 1,23,24
 1743 1253 1743 1253 1622 1300 c 128,-1,25
 1501 1347 1501 1347 1363 1347 c 0,26,27
 1250 1347 1250 1347 1159.5 1310.5 c 128,-1,28
 1069 1274 1069 1274 998 1197 c 0,29,30
 929 1122 929 1122 890.5 1007.5 c 128,-1,31
 852 893 852 893 852 743 c 0,32,33
 852 586 852 586 894.5 473 c 128,-1,34
 937 360 937 360 1004 289 c 0,35,36
 1074 215 1074 215 1167.5 179.5 c 128,-1,37
 1261 144 1261 144 1365 144 c 0,38,39
 1508 144 1508 144 1633 193 c 128,-1,40
 1758 242 1758 242 1867 340 c 1,41,-1
 1881 340 l 1,42,-1
 1881 108 l 1,0,1
EndSplineSet
EndChar

StartChar: D
Encoding: 68 68 39
Width: 2193
Flags: W
LayerCount: 2
Fore
SplineSet
2073 743 m 0,0,1
 2073 540 2073 540 1984.5 375 c 128,-1,2
 1896 210 1896 210 1749 119 c 0,3,4
 1647 56 1647 56 1521.5 28 c 128,-1,5
 1396 0 1396 0 1191 0 c 2,6,-1
 815 0 l 1,7,-1
 815 1489 l 1,8,-1
 1187 1489 l 2,9,10
 1405 1489 1405 1489 1533.5 1457.5 c 128,-1,11
 1662 1426 1662 1426 1751 1371 c 0,12,13
 1903 1276 1903 1276 1988 1118 c 128,-1,14
 2073 960 2073 960 2073 743 c 0,0,1
1866 746 m 0,15,16
 1866 921 1866 921 1805 1041 c 128,-1,17
 1744 1161 1744 1161 1623 1230 c 0,18,19
 1535 1280 1535 1280 1436 1299.5 c 128,-1,20
 1337 1319 1337 1319 1199 1319 c 2,21,-1
 1013 1319 l 1,22,-1
 1013 170 l 1,23,-1
 1199 170 l 2,24,25
 1342 170 1342 170 1448.5 191 c 128,-1,26
 1555 212 1555 212 1644 269 c 0,27,28
 1755 340 1755 340 1810.5 456 c 128,-1,29
 1866 572 1866 572 1866 746 c 0,15,16
EndSplineSet
EndChar

StartChar: E
Encoding: 69 69 40
Width: 1865
Flags: W
LayerCount: 2
Fore
SplineSet
1751 0 m 1,0,-1
 770 0 l 1,1,-1
 770 1489 l 1,2,-1
 1751 1489 l 1,3,-1
 1751 1313 l 1,4,-1
 968 1313 l 1,5,-1
 968 905 l 1,6,-1
 1751 905 l 1,7,-1
 1751 729 l 1,8,-1
 968 729 l 1,9,-1
 968 176 l 1,10,-1
 1751 176 l 1,11,-1
 1751 0 l 1,0,-1
EndSplineSet
EndChar

StartChar: F
Encoding: 70 70 41
Width: 1756
Flags: W
LayerCount: 2
Fore
SplineSet
1730 1313 m 1,0,-1
 977 1313 l 1,1,-1
 977 893 l 1,2,-1
 1624 893 l 1,3,-1
 1624 717 l 1,4,-1
 977 717 l 1,5,-1
 977 0 l 1,6,-1
 779 0 l 1,7,-1
 779 1489 l 1,8,-1
 1730 1489 l 1,9,-1
 1730 1313 l 1,0,-1
EndSplineSet
EndChar

StartChar: G
Encoding: 71 71 42
Width: 2254
Flags: W
LayerCount: 2
Fore
SplineSet
2108 110 m 1,0,1
 1986 54 1986 54 1841.5 12.5 c 128,-1,2
 1697 -29 1697 -29 1562 -29 c 0,3,4
 1388 -29 1388 -29 1243 19 c 128,-1,5
 1098 67 1098 67 996 163 c 0,6,7
 893 260 893 260 837 405.5 c 128,-1,8
 781 551 781 551 781 746 c 0,9,10
 781 1103 781 1103 989.5 1309.5 c 128,-1,11
 1198 1516 1198 1516 1562 1516 c 0,12,13
 1689 1516 1689 1516 1821.5 1485.5 c 128,-1,14
 1954 1455 1954 1455 2107 1382 c 1,15,-1
 2107 1147 l 1,16,-1
 2089 1147 l 1,17,18
 2058 1171 2058 1171 1999 1210 c 128,-1,19
 1940 1249 1940 1249 1883 1275 c 0,20,21
 1814 1306 1814 1306 1726.5 1326.5 c 128,-1,22
 1639 1347 1639 1347 1528 1347 c 0,23,24
 1278 1347 1278 1347 1132.5 1186.5 c 128,-1,25
 987 1026 987 1026 987 752 c 0,26,27
 987 463 987 463 1139 302.5 c 128,-1,28
 1291 142 1291 142 1553 142 c 0,29,30
 1649 142 1649 142 1744.5 161 c 128,-1,31
 1840 180 1840 180 1912 210 c 1,32,-1
 1912 575 l 1,33,-1
 1513 575 l 1,34,-1
 1513 749 l 1,35,-1
 2108 749 l 1,36,-1
 2108 110 l 1,0,1
EndSplineSet
EndChar

StartChar: H
Encoding: 72 72 43
Width: 2145
Flags: W
LayerCount: 2
Fore
SplineSet
1945 0 m 1,0,-1
 1747 0 l 1,1,-1
 1747 729 l 1,2,-1
 1004 729 l 1,3,-1
 1004 0 l 1,4,-1
 806 0 l 1,5,-1
 806 1489 l 1,6,-1
 1004 1489 l 1,7,-1
 1004 905 l 1,8,-1
 1747 905 l 1,9,-1
 1747 1489 l 1,10,-1
 1945 1489 l 1,11,-1
 1945 0 l 1,0,-1
EndSplineSet
EndChar

StartChar: I
Encoding: 73 73 44
Width: 1306
Flags: W
LayerCount: 2
Fore
SplineSet
1169 0 m 1,0,-1
 581 0 l 1,1,-1
 581 152 l 1,2,-1
 776 152 l 1,3,-1
 776 1337 l 1,4,-1
 581 1337 l 1,5,-1
 581 1489 l 1,6,-1
 1169 1489 l 1,7,-1
 1169 1337 l 1,8,-1
 974 1337 l 1,9,-1
 974 152 l 1,10,-1
 1169 152 l 1,11,-1
 1169 0 l 1,0,-1
EndSplineSet
EndChar

StartChar: J
Encoding: 74 74 45
Width: 1531
Flags: W
LayerCount: 2
Fore
SplineSet
1346 387 m 2,0,1
 1346 191 1346 191 1226.5 85 c 128,-1,2
 1107 -21 1107 -21 906 -21 c 0,3,4
 858 -21 858 -21 778 -12.5 c 128,-1,5
 698 -4 698 -4 644 8 c 1,6,-1
 644 193 l 1,7,-1
 655 193 l 1,8,9
 696 179 696 179 756 164 c 128,-1,10
 816 149 816 149 879 149 c 0,11,12
 971 149 971 149 1025.5 170 c 128,-1,13
 1080 191 1080 191 1106 230 c 0,14,15
 1133 270 1133 270 1140.5 328 c 128,-1,16
 1148 386 1148 386 1148 462 c 2,17,-1
 1148 1331 l 1,18,-1
 833 1331 l 1,19,-1
 833 1489 l 1,20,-1
 1346 1489 l 1,21,-1
 1346 387 l 2,0,1
EndSplineSet
EndChar

StartChar: K
Encoding: 75 75 46
Width: 2024
Flags: W
LayerCount: 2
Fore
SplineSet
2002 0 m 1,0,-1
 1745 0 l 1,1,-1
 1156 663 l 1,2,-1
 1008 505 l 1,3,-1
 1008 0 l 1,4,-1
 810 0 l 1,5,-1
 810 1489 l 1,6,-1
 1008 1489 l 1,7,-1
 1008 712 l 1,8,-1
 1731 1489 l 1,9,-1
 1971 1489 l 1,10,-1
 1306 789 l 1,11,-1
 2002 0 l 1,0,-1
EndSplineSet
EndChar

StartChar: L
Encoding: 76 76 47
Width: 1779
Flags: W
LayerCount: 2
Fore
SplineSet
1781 0 m 1,0,-1
 839 0 l 1,1,-1
 839 1489 l 1,2,-1
 1037 1489 l 1,3,-1
 1037 176 l 1,4,-1
 1781 176 l 1,5,-1
 1781 0 l 1,0,-1
EndSplineSet
EndChar

StartChar: M
Encoding: 77 77 48
Width: 2305
Flags: W
LayerCount: 2
Fore
SplineSet
2105 0 m 1,0,-1
 1907 0 l 1,1,-1
 1907 1283 l 1,2,-1
 1493 410 l 1,3,-1
 1375 410 l 1,4,-1
 964 1283 l 1,5,-1
 964 0 l 1,6,-1
 779 0 l 1,7,-1
 779 1489 l 1,8,-1
 1049 1489 l 1,9,-1
 1446 660 l 1,10,-1
 1830 1489 l 1,11,-1
 2105 1489 l 1,12,-1
 2105 0 l 1,0,-1
EndSplineSet
EndChar

StartChar: N
Encoding: 78 78 49
Width: 2076
Flags: W
LayerCount: 2
Fore
SplineSet
1880 0 m 1,0,-1
 1635 0 l 1,1,-1
 929 1332 l 1,2,-1
 929 0 l 1,3,-1
 744 0 l 1,4,-1
 744 1489 l 1,5,-1
 1051 1489 l 1,6,-1
 1695 273 l 1,7,-1
 1695 1489 l 1,8,-1
 1880 1489 l 1,9,-1
 1880 0 l 1,0,-1
EndSplineSet
EndChar

StartChar: O
Encoding: 79 79 50
Width: 2197
Flags: W
LayerCount: 2
Fore
SplineSet
1895 1318 m 0,0,1
 1986 1218 1986 1218 2034.5 1073 c 128,-1,2
 2083 928 2083 928 2083 744 c 256,3,4
 2083 560 2083 560 2033.5 414.5 c 128,-1,5
 1984 269 1984 269 1895 172 c 0,6,7
 1803 71 1803 71 1677.5 20 c 128,-1,8
 1552 -31 1552 -31 1391 -31 c 0,9,10
 1234 -31 1234 -31 1105.5 21 c 128,-1,11
 977 73 977 73 887 172 c 256,12,13
 797 271 797 271 748.5 415 c 128,-1,14
 700 559 700 559 700 744 c 0,15,16
 700 926 700 926 748 1070.5 c 128,-1,17
 796 1215 796 1215 888 1318 c 0,18,19
 976 1416 976 1416 1106.5 1468 c 128,-1,20
 1237 1520 1237 1520 1391 1520 c 0,21,22
 1551 1520 1551 1520 1678.5 1467.5 c 128,-1,23
 1806 1415 1806 1415 1895 1318 c 0,0,1
1877 744 m 0,24,25
 1877 1034 1877 1034 1747 1191.5 c 128,-1,26
 1617 1349 1617 1349 1392 1349 c 0,27,28
 1165 1349 1165 1349 1035.5 1191.5 c 128,-1,29
 906 1034 906 1034 906 744 c 0,30,31
 906 451 906 451 1038 295.5 c 128,-1,32
 1170 140 1170 140 1392 140 c 256,33,34
 1614 140 1614 140 1745.5 295.5 c 128,-1,35
 1877 451 1877 451 1877 744 c 0,24,25
EndSplineSet
EndChar

StartChar: P
Encoding: 80 80 51
Width: 1681
Flags: W
LayerCount: 2
Fore
SplineSet
1620 1039 m 0,0,1
 1620 940 1620 940 1585.5 855.5 c 128,-1,2
 1551 771 1551 771 1489 709 c 0,3,4
 1412 632 1412 632 1307 593.5 c 128,-1,5
 1202 555 1202 555 1042 555 c 2,6,-1
 844 555 l 1,7,-1
 844 0 l 1,8,-1
 646 0 l 1,9,-1
 646 1489 l 1,10,-1
 1050 1489 l 2,11,12
 1184 1489 1184 1489 1277 1466.5 c 128,-1,13
 1370 1444 1370 1444 1442 1396 c 0,14,15
 1527 1339 1527 1339 1573.5 1254 c 128,-1,16
 1620 1169 1620 1169 1620 1039 c 0,0,1
1414 1034 m 0,17,18
 1414 1111 1414 1111 1387 1168 c 128,-1,19
 1360 1225 1360 1225 1305 1261 c 0,20,21
 1257 1292 1257 1292 1195.5 1305.5 c 128,-1,22
 1134 1319 1134 1319 1040 1319 c 2,23,-1
 844 1319 l 1,24,-1
 844 724 l 1,25,-1
 1011 724 l 2,26,27
 1131 724 1131 724 1206 745.5 c 128,-1,28
 1281 767 1281 767 1328 814 c 0,29,30
 1375 862 1375 862 1394.5 915 c 128,-1,31
 1414 968 1414 968 1414 1034 c 0,17,18
EndSplineSet
EndChar

StartChar: Q
Encoding: 81 81 52
Width: 2432
Flags: W
LayerCount: 2
Fore
SplineSet
2348 -365 m 1,0,1
 2288 -380 2288 -380 2229.5 -386.5 c 128,-1,2
 2171 -393 2171 -393 2110 -393 c 0,3,4
 1936 -393 1936 -393 1830.5 -297.5 c 128,-1,5
 1725 -202 1725 -202 1716 -24 c 1,6,7
 1692 -28 1692 -28 1669.5 -29.5 c 128,-1,8
 1647 -31 1647 -31 1626 -31 c 0,9,10
 1469 -31 1469 -31 1340.5 21 c 128,-1,11
 1212 73 1212 73 1122 172 c 256,12,13
 1032 271 1032 271 983.5 415 c 128,-1,14
 935 559 935 559 935 744 c 0,15,16
 935 926 935 926 983 1070.5 c 128,-1,17
 1031 1215 1031 1215 1123 1318 c 0,18,19
 1211 1416 1211 1416 1341.5 1468 c 128,-1,20
 1472 1520 1472 1520 1626 1520 c 0,21,22
 1786 1520 1786 1520 1913.5 1467.5 c 128,-1,23
 2041 1415 2041 1415 2130 1318 c 0,24,25
 2221 1218 2221 1218 2269.5 1073 c 128,-1,26
 2318 928 2318 928 2318 744 c 0,27,28
 2318 471 2318 471 2206.5 284 c 128,-1,29
 2095 97 2095 97 1907 22 c 1,30,31
 1911 -92 1911 -92 1961 -155 c 128,-1,32
 2011 -218 2011 -218 2143 -218 c 0,33,34
 2184 -218 2184 -218 2240.5 -205.5 c 128,-1,35
 2297 -193 2297 -193 2321 -183 c 1,36,-1
 2348 -183 l 1,37,-1
 2348 -365 l 1,0,1
2112 744 m 0,38,39
 2112 1034 2112 1034 1982 1191.5 c 128,-1,40
 1852 1349 1852 1349 1627 1349 c 0,41,42
 1400 1349 1400 1349 1270.5 1191.5 c 128,-1,43
 1141 1034 1141 1034 1141 744 c 0,44,45
 1141 451 1141 451 1273 295.5 c 128,-1,46
 1405 140 1405 140 1627 140 c 256,47,48
 1849 140 1849 140 1980.5 295.5 c 128,-1,49
 2112 451 2112 451 2112 744 c 0,38,39
EndSplineSet
EndChar

StartChar: R
Encoding: 82 82 53
Width: 1932
Flags: W
LayerCount: 2
Fore
SplineSet
1940 0 m 1,0,-1
 1683 0 l 1,1,-1
 1185 592 l 1,2,-1
 906 592 l 1,3,-1
 906 0 l 1,4,-1
 708 0 l 1,5,-1
 708 1489 l 1,6,-1
 1125 1489 l 2,7,8
 1260 1489 1260 1489 1350 1471.5 c 128,-1,9
 1440 1454 1440 1454 1512 1409 c 0,10,11
 1593 1358 1593 1358 1638.5 1280.5 c 128,-1,12
 1684 1203 1684 1203 1684 1084 c 0,13,14
 1684 923 1684 923 1603 814.5 c 128,-1,15
 1522 706 1522 706 1380 651 c 1,16,-1
 1940 0 l 1,0,-1
1477 1070 m 0,17,18
 1477 1134 1477 1134 1454.5 1183.5 c 128,-1,19
 1432 1233 1432 1233 1380 1267 c 0,20,21
 1337 1296 1337 1296 1278 1307.5 c 128,-1,22
 1219 1319 1219 1319 1139 1319 c 2,23,-1
 906 1319 l 1,24,-1
 906 757 l 1,25,-1
 1106 757 l 2,26,27
 1200 757 1200 757 1270 773.5 c 128,-1,28
 1340 790 1340 790 1389 835 c 0,29,30
 1434 877 1434 877 1455.5 931.5 c 128,-1,31
 1477 986 1477 986 1477 1070 c 0,17,18
EndSplineSet
EndChar

StartChar: S
Encoding: 83 83 54
Width: 1875
Flags: W
LayerCount: 2
Fore
SplineSet
1757 425 m 0,0,1
 1757 338 1757 338 1716.5 253 c 128,-1,2
 1676 168 1676 168 1603 109 c 0,3,4
 1523 45 1523 45 1416.5 9 c 128,-1,5
 1310 -27 1310 -27 1160 -27 c 0,6,7
 999 -27 999 -27 870.5 3 c 128,-1,8
 742 33 742 33 609 92 c 1,9,-1
 609 340 l 1,10,-1
 623 340 l 1,11,12
 736 246 736 246 884 195 c 128,-1,13
 1032 144 1032 144 1162 144 c 0,14,15
 1346 144 1346 144 1448.5 213 c 128,-1,16
 1551 282 1551 282 1551 397 c 0,17,18
 1551 496 1551 496 1502.5 543 c 128,-1,19
 1454 590 1454 590 1355 616 c 0,20,21
 1280 636 1280 636 1192.5 649 c 128,-1,22
 1105 662 1105 662 1007 682 c 0,23,24
 809 724 809 724 713.5 825.5 c 128,-1,25
 618 927 618 927 618 1090 c 0,26,27
 618 1277 618 1277 776 1396.5 c 128,-1,28
 934 1516 934 1516 1177 1516 c 0,29,30
 1334 1516 1334 1516 1465 1486 c 128,-1,31
 1596 1456 1596 1456 1697 1412 c 1,32,-1
 1697 1178 l 1,33,-1
 1683 1178 l 1,34,35
 1598 1250 1598 1250 1459.5 1297.5 c 128,-1,36
 1321 1345 1321 1345 1176 1345 c 0,37,38
 1017 1345 1017 1345 920.5 1279 c 128,-1,39
 824 1213 824 1213 824 1109 c 0,40,41
 824 1016 824 1016 872 963 c 128,-1,42
 920 910 920 910 1041 882 c 0,43,44
 1105 868 1105 868 1223 848 c 128,-1,45
 1341 828 1341 828 1423 807 c 0,46,47
 1589 763 1589 763 1673 674 c 128,-1,48
 1757 585 1757 585 1757 425 c 0,0,1
EndSplineSet
EndChar

StartChar: T
Encoding: 84 84 55
Width: 1829
Flags: W
LayerCount: 2
Fore
SplineSet
1829 1313 m 1,0,-1
 1297 1313 l 1,1,-1
 1297 0 l 1,2,-1
 1099 0 l 1,3,-1
 1099 1313 l 1,4,-1
 567 1313 l 1,5,-1
 567 1489 l 1,6,-1
 1829 1489 l 1,7,-1
 1829 1313 l 1,0,-1
EndSplineSet
EndChar

StartChar: U
Encoding: 85 85 56
Width: 2183
Flags: W
LayerCount: 2
Fore
SplineSet
2005 598 m 2,0,1
 2005 436 2005 436 1969.5 315.5 c 128,-1,2
 1934 195 1934 195 1853 115 c 0,3,4
 1776 39 1776 39 1673 4 c 128,-1,5
 1570 -31 1570 -31 1433 -31 c 0,6,7
 1293 -31 1293 -31 1189 6 c 128,-1,8
 1085 43 1085 43 1014 115 c 0,9,10
 933 197 933 197 897.5 313 c 128,-1,11
 862 429 862 429 862 598 c 2,12,-1
 862 1489 l 1,13,-1
 1060 1489 l 1,14,-1
 1060 588 l 2,15,16
 1060 467 1060 467 1076.5 397 c 128,-1,17
 1093 327 1093 327 1132 270 c 0,18,19
 1176 205 1176 205 1251.5 172 c 128,-1,20
 1327 139 1327 139 1433 139 c 0,21,22
 1540 139 1540 139 1615 171.5 c 128,-1,23
 1690 204 1690 204 1735 270 c 0,24,25
 1774 327 1774 327 1790.5 400.5 c 128,-1,26
 1807 474 1807 474 1807 583 c 2,27,-1
 1807 1489 l 1,28,-1
 2005 1489 l 1,29,-1
 2005 598 l 2,0,1
EndSplineSet
EndChar

StartChar: V
Encoding: 86 86 57
Width: 2018
Flags: W
LayerCount: 2
Fore
SplineSet
1992 1489 m 1,0,-1
 1450 0 l 1,1,-1
 1186 0 l 1,2,-1
 644 1489 l 1,3,-1
 856 1489 l 1,4,-1
 1323 179 l 1,5,-1
 1790 1489 l 1,6,-1
 1992 1489 l 1,0,-1
EndSplineSet
EndChar

StartChar: W
Encoding: 87 87 58
Width: 2694
Flags: W
LayerCount: 2
Fore
SplineSet
2602 1489 m 1,0,-1
 2215 0 l 1,1,-1
 1992 0 l 1,2,-1
 1679 1236 l 1,3,-1
 1373 0 l 1,4,-1
 1155 0 l 1,5,-1
 761 1489 l 1,6,-1
 964 1489 l 1,7,-1
 1277 251 l 1,8,-1
 1585 1489 l 1,9,-1
 1786 1489 l 1,10,-1
 2097 239 l 1,11,-1
 2408 1489 l 1,12,-1
 2602 1489 l 1,0,-1
EndSplineSet
EndChar

StartChar: X
Encoding: 88 88 59
Width: 2038
Flags: W
LayerCount: 2
Fore
SplineSet
1971 1489 m 1,0,-1
 1457 753 l 1,1,-1
 1970 0 l 1,2,-1
 1741 0 l 1,3,-1
 1335 613 l 1,4,-1
 919 0 l 1,5,-1
 703 0 l 1,6,-1
 1222 744 l 1,7,-1
 715 1489 l 1,8,-1
 943 1489 l 1,9,-1
 1344 884 l 1,10,-1
 1754 1489 l 1,11,-1
 1971 1489 l 1,0,-1
EndSplineSet
EndChar

StartChar: Y
Encoding: 89 89 60
Width: 1934
Flags: W
LayerCount: 2
Fore
SplineSet
1928 1489 m 1,0,-1
 1404 653 l 1,1,-1
 1404 0 l 1,2,-1
 1206 0 l 1,3,-1
 1206 632 l 1,4,-1
 680 1489 l 1,5,-1
 899 1489 l 1,6,-1
 1306 823 l 1,7,-1
 1717 1489 l 1,8,-1
 1928 1489 l 1,0,-1
EndSplineSet
EndChar

StartChar: Z
Encoding: 90 90 61
Width: 1955
Flags: W
LayerCount: 2
Fore
SplineSet
1840 0 m 1,0,-1
 678 0 l 1,1,-1
 678 184 l 1,2,-1
 1591 1313 l 1,3,-1
 712 1313 l 1,4,-1
 712 1489 l 1,5,-1
 1818 1489 l 1,6,-1
 1818 1310 l 1,7,-1
 896 176 l 1,8,-1
 1840 176 l 1,9,-1
 1840 0 l 1,0,-1
EndSplineSet
EndChar

StartChar: bracketleft
Encoding: 91 91 62
Width: 930
Flags: W
LayerCount: 2
Fore
SplineSet
759 -392 m 1,0,-1
 239 -392 l 1,1,-1
 239 1556 l 1,2,-1
 759 1556 l 1,3,-1
 759 1413 l 1,4,-1
 413 1413 l 1,5,-1
 413 -249 l 1,6,-1
 759 -249 l 1,7,-1
 759 -392 l 1,0,-1
EndSplineSet
EndChar

StartChar: backslash
Encoding: 92 92 63
Width: 930
Flags: W
LayerCount: 2
Fore
SplineSet
960 -304 m 1,0,-1
 787 -304 l 1,1,-1
 70 1556 l 1,2,-1
 246 1556 l 1,3,-1
 960 -304 l 1,0,-1
EndSplineSet
EndChar

StartChar: bracketright
Encoding: 93 93 64
Width: 930
Flags: W
LayerCount: 2
Fore
SplineSet
691 -392 m 1,0,-1
 171 -392 l 1,1,-1
 171 -249 l 1,2,-1
 517 -249 l 1,3,-1
 517 1413 l 1,4,-1
 171 1413 l 1,5,-1
 171 1556 l 1,6,-1
 691 1556 l 1,7,-1
 691 -392 l 1,0,-1
EndSplineSet
EndChar

StartChar: asciicircum
Encoding: 94 94 65
Width: 1676
Flags: W
LayerCount: 2
Fore
SplineSet
1490 684 m 1,0,-1
 1292 684 l 1,1,-1
 837 1311 l 1,2,-1
 383 682 l 1,3,-1
 186 682 l 1,4,-1
 775 1489 l 1,5,-1
 901 1489 l 1,6,-1
 1490 684 l 1,0,-1
EndSplineSet
EndChar

StartChar: underscore
Encoding: 95 95 66
Width: 1728
Flags: W
LayerCount: 2
Fore
SplineSet
1662 -300 m 1,0,-1
 445 -300 l 1,1,-1
 445 -180 l 1,2,-1
 1662 -180 l 1,3,-1
 1662 -300 l 1,0,-1
EndSplineSet
EndChar

StartChar: grave
Encoding: 96 96 67
Width: 1302
Flags: W
LayerCount: 2
Fore
SplineSet
762 1302 m 1,0,-1
 613 1302 l 1,1,-1
 340 1676 l 1,2,-1
 583 1676 l 1,3,-1
 762 1302 l 1,0,-1
EndSplineSet
EndChar

StartChar: a
Encoding: 97 97 68
Width: 1230
Flags: W
LayerCount: 2
Fore
SplineSet
1053 0 m 1,0,-1
 866 0 l 1,1,-1
 866 119 l 1,2,3
 841 102 841 102 798.5 71.5 c 128,-1,4
 756 41 756 41 716 23 c 0,5,6
 669 0 669 0 608 -15.5 c 128,-1,7
 547 -31 547 -31 465 -31 c 0,8,9
 314 -31 314 -31 209 69 c 128,-1,10
 104 169 104 169 104 324 c 0,11,12
 104 451 104 451 158.5 529.5 c 128,-1,13
 213 608 213 608 314 653 c 0,14,15
 416 698 416 698 559 714 c 128,-1,16
 702 730 702 730 866 738 c 1,17,-1
 866 767 l 2,18,19
 866 831 866 831 843.5 873 c 128,-1,20
 821 915 821 915 779 939 c 0,21,22
 739 962 739 962 683 970 c 128,-1,23
 627 978 627 978 566 978 c 0,24,25
 492 978 492 978 401 958.5 c 128,-1,26
 310 939 310 939 213 902 c 1,27,-1
 203 902 l 1,28,-1
 203 1093 l 1,29,30
 258 1108 258 1108 362 1126 c 128,-1,31
 466 1144 466 1144 567 1144 c 0,32,33
 685 1144 685 1144 772.5 1124.5 c 128,-1,34
 860 1105 860 1105 924 1058 c 0,35,36
 987 1012 987 1012 1020 939 c 128,-1,37
 1053 866 1053 866 1053 758 c 2,38,-1
 1053 0 l 1,0,-1
866 275 m 1,39,-1
 866 586 l 1,40,41
 780 581 780 581 663.5 571 c 128,-1,42
 547 561 547 561 479 542 c 0,43,44
 398 519 398 519 348 470.5 c 128,-1,45
 298 422 298 422 298 337 c 0,46,47
 298 241 298 241 356 192.5 c 128,-1,48
 414 144 414 144 533 144 c 0,49,50
 632 144 632 144 714 182.5 c 128,-1,51
 796 221 796 221 866 275 c 1,39,-1
EndSplineSet
EndChar

StartChar: b
Encoding: 98 98 69
Width: 1276
Flags: W
LayerCount: 2
Fore
SplineSet
1168 567 m 0,0,1
 1168 427 1168 427 1128.5 315 c 128,-1,2
 1089 203 1089 203 1022 127 c 0,3,4
 951 48 951 48 866 8.5 c 128,-1,5
 781 -31 781 -31 679 -31 c 0,6,7
 584 -31 584 -31 513 -8.5 c 128,-1,8
 442 14 442 14 373 52 c 1,9,-1
 361 0 l 1,10,-1
 185 0 l 1,11,-1
 185 1556 l 1,12,-1
 373 1556 l 1,13,-1
 373 1000 l 1,14,15
 452 1065 452 1065 541 1106.5 c 128,-1,16
 630 1148 630 1148 741 1148 c 0,17,18
 939 1148 939 1148 1053.5 996 c 128,-1,19
 1168 844 1168 844 1168 567 c 0,0,1
974 562 m 0,20,21
 974 762 974 762 908 865.5 c 128,-1,22
 842 969 842 969 695 969 c 0,23,24
 613 969 613 969 529 933.5 c 128,-1,25
 445 898 445 898 373 842 c 1,26,-1
 373 202 l 1,27,28
 453 166 453 166 510.5 152 c 128,-1,29
 568 138 568 138 641 138 c 0,30,31
 797 138 797 138 885.5 240.5 c 128,-1,32
 974 343 974 343 974 562 c 0,20,21
EndSplineSet
EndChar

StartChar: c
Encoding: 99 99 70
Width: 1067
Flags: W
LayerCount: 2
Fore
SplineSet
1011 70 m 1,0,1
 917 25 917 25 832.5 0 c 128,-1,2
 748 -25 748 -25 653 -25 c 0,3,4
 532 -25 532 -25 431 10.5 c 128,-1,5
 330 46 330 46 258 118 c 0,6,7
 185 190 185 190 145 300 c 128,-1,8
 105 410 105 410 105 557 c 0,9,10
 105 831 105 831 255.5 987 c 128,-1,11
 406 1143 406 1143 653 1143 c 0,12,13
 749 1143 749 1143 841.5 1116 c 128,-1,14
 934 1089 934 1089 1011 1050 c 1,15,-1
 1011 841 l 1,16,-1
 1001 841 l 1,17,18
 915 908 915 908 823.5 944 c 128,-1,19
 732 980 732 980 645 980 c 0,20,21
 485 980 485 980 392.5 872.5 c 128,-1,22
 300 765 300 765 300 557 c 0,23,24
 300 355 300 355 390.5 246.5 c 128,-1,25
 481 138 481 138 645 138 c 0,26,27
 702 138 702 138 761 153 c 128,-1,28
 820 168 820 168 867 192 c 0,29,30
 908 213 908 213 944 236.5 c 128,-1,31
 980 260 980 260 1001 277 c 1,32,-1
 1011 277 l 1,33,-1
 1011 70 l 1,0,1
EndSplineSet
EndChar

StartChar: d
Encoding: 100 100 71
Width: 1276
Flags: W
LayerCount: 2
Fore
SplineSet
1091 0 m 1,0,-1
 903 0 l 1,1,-1
 903 117 l 1,2,3
 822 47 822 47 734 8 c 128,-1,4
 646 -31 646 -31 543 -31 c 0,5,6
 343 -31 343 -31 225.5 123 c 128,-1,7
 108 277 108 277 108 550 c 0,8,9
 108 692 108 692 148.5 803 c 128,-1,10
 189 914 189 914 258 992 c 0,11,12
 326 1068 326 1068 416.5 1108 c 128,-1,13
 507 1148 507 1148 604 1148 c 0,14,15
 692 1148 692 1148 760 1129.5 c 128,-1,16
 828 1111 828 1111 903 1072 c 1,17,-1
 903 1556 l 1,18,-1
 1091 1556 l 1,19,-1
 1091 0 l 1,0,-1
903 275 m 1,20,-1
 903 916 l 1,21,22
 827 950 827 950 767 963 c 128,-1,23
 707 976 707 976 636 976 c 0,24,25
 478 976 478 976 390 866 c 128,-1,26
 302 756 302 756 302 554 c 0,27,28
 302 355 302 355 370 251.5 c 128,-1,29
 438 148 438 148 588 148 c 0,30,31
 668 148 668 148 750 183.5 c 128,-1,32
 832 219 832 219 903 275 c 1,20,-1
EndSplineSet
EndChar

StartChar: e
Encoding: 101 101 72
Width: 1220
Flags: W
LayerCount: 2
Fore
SplineSet
1120 539 m 1,0,-1
 297 539 l 1,1,2
 297 436 297 436 328 359.5 c 128,-1,3
 359 283 359 283 413 234 c 0,4,5
 465 186 465 186 536.5 162 c 128,-1,6
 608 138 608 138 694 138 c 0,7,8
 808 138 808 138 923.5 183.5 c 128,-1,9
 1039 229 1039 229 1088 273 c 1,10,-1
 1098 273 l 1,11,-1
 1098 68 l 1,12,13
 1003 28 1003 28 904 1 c 128,-1,14
 805 -26 805 -26 696 -26 c 0,15,16
 418 -26 418 -26 262 124.5 c 128,-1,17
 106 275 106 275 106 552 c 0,18,19
 106 826 106 826 255.5 987 c 128,-1,20
 405 1148 405 1148 649 1148 c 0,21,22
 875 1148 875 1148 997.5 1016 c 128,-1,23
 1120 884 1120 884 1120 641 c 2,24,-1
 1120 539 l 1,0,-1
937 683 m 1,25,26
 936 831 936 831 862.5 912 c 128,-1,27
 789 993 789 993 639 993 c 0,28,29
 488 993 488 993 398.5 904 c 128,-1,30
 309 815 309 815 297 683 c 1,31,-1
 937 683 l 1,25,26
EndSplineSet
EndChar

StartChar: f
Encoding: 102 102 73
Width: 720
Flags: W
LayerCount: 2
Fore
SplineSet
786 1374 m 1,0,-1
 776 1374 l 1,1,2
 745 1383 745 1383 695 1392.5 c 128,-1,3
 645 1402 645 1402 607 1402 c 0,4,5
 486 1402 486 1402 431.5 1348.5 c 128,-1,6
 377 1295 377 1295 377 1155 c 2,7,-1
 377 1117 l 1,8,-1
 716 1117 l 1,9,-1
 716 959 l 1,10,-1
 383 959 l 1,11,-1
 383 0 l 1,12,-1
 195 0 l 1,13,-1
 195 959 l 1,14,-1
 68 959 l 1,15,-1
 68 1117 l 1,16,-1
 195 1117 l 1,17,-1
 195 1154 l 2,18,19
 195 1353 195 1353 294 1459.5 c 128,-1,20
 393 1566 393 1566 580 1566 c 0,21,22
 643 1566 643 1566 693.5 1560 c 128,-1,23
 744 1554 744 1554 786 1546 c 1,24,-1
 786 1374 l 1,0,-1
EndSplineSet
EndChar

StartChar: g
Encoding: 103 103 74
Width: 1276
Flags: W
LayerCount: 2
Fore
SplineSet
1091 127 m 2,0,1
 1091 -157 1091 -157 962 -290 c 128,-1,2
 833 -423 833 -423 565 -423 c 0,3,4
 476 -423 476 -423 391.5 -410.5 c 128,-1,5
 307 -398 307 -398 225 -375 c 1,6,-1
 225 -183 l 1,7,-1
 235 -183 l 1,8,9
 281 -201 281 -201 381 -227.5 c 128,-1,10
 481 -254 481 -254 581 -254 c 0,11,12
 677 -254 677 -254 740 -231 c 128,-1,13
 803 -208 803 -208 838 -167 c 0,14,15
 873 -128 873 -128 888 -73 c 128,-1,16
 903 -18 903 -18 903 50 c 2,17,-1
 903 152 l 1,18,19
 818 84 818 84 740.5 50.5 c 128,-1,20
 663 17 663 17 543 17 c 0,21,22
 343 17 343 17 225.5 161.5 c 128,-1,23
 108 306 108 306 108 569 c 0,24,25
 108 713 108 713 148.5 817.5 c 128,-1,26
 189 922 189 922 259 998 c 0,27,28
 324 1069 324 1069 417 1108.5 c 128,-1,29
 510 1148 510 1148 602 1148 c 0,30,31
 699 1148 699 1148 764.5 1128.5 c 128,-1,32
 830 1109 830 1109 903 1069 c 1,33,-1
 915 1117 l 1,34,-1
 1091 1117 l 1,35,-1
 1091 127 l 2,0,1
903 307 m 1,36,-1
 903 916 l 1,37,38
 828 950 828 950 763.5 964.5 c 128,-1,39
 699 979 699 979 635 979 c 0,40,41
 480 979 480 979 391 875 c 128,-1,42
 302 771 302 771 302 573 c 0,43,44
 302 385 302 385 368 288 c 128,-1,45
 434 191 434 191 587 191 c 0,46,47
 669 191 669 191 751.5 222.5 c 128,-1,48
 834 254 834 254 903 307 c 1,36,-1
EndSplineSet
EndChar

StartChar: h
Encoding: 104 104 75
Width: 1296
Flags: W
LayerCount: 2
Fore
SplineSet
1119 0 m 1,0,-1
 931 0 l 1,1,-1
 931 636 l 2,2,3
 931 713 931 713 922 780.5 c 128,-1,4
 913 848 913 848 889 886 c 0,5,6
 864 928 864 928 817 948.5 c 128,-1,7
 770 969 770 969 695 969 c 0,8,9
 618 969 618 969 534 931 c 128,-1,10
 450 893 450 893 373 834 c 1,11,-1
 373 0 l 1,12,-1
 185 0 l 1,13,-1
 185 1556 l 1,14,-1
 373 1556 l 1,15,-1
 373 993 l 1,16,17
 461 1066 461 1066 555 1107 c 128,-1,18
 649 1148 649 1148 748 1148 c 0,19,20
 929 1148 929 1148 1024 1039 c 128,-1,21
 1119 930 1119 930 1119 725 c 2,22,-1
 1119 0 l 1,0,-1
EndSplineSet
EndChar

StartChar: i
Encoding: 105 105 76
Width: 562
Flags: W
LayerCount: 2
Fore
SplineSet
387 1304 m 1,0,-1
 175 1304 l 1,1,-1
 175 1499 l 1,2,-1
 387 1499 l 1,3,-1
 387 1304 l 1,0,-1
375 0 m 1,4,-1
 187 0 l 1,5,-1
 187 1117 l 1,6,-1
 375 1117 l 1,7,-1
 375 0 l 1,4,-1
EndSplineSet
EndChar

StartChar: j
Encoding: 106 106 77
Width: 705
Flags: W
LayerCount: 2
Fore
SplineSet
533 1304 m 1,0,-1
 321 1304 l 1,1,-1
 321 1499 l 1,2,-1
 533 1499 l 1,3,-1
 533 1304 l 1,0,-1
521 -27 m 2,4,5
 521 -223 521 -223 421 -323 c 128,-1,6
 321 -423 321 -423 153 -423 c 0,7,8
 113 -423 113 -423 47.5 -415 c 128,-1,9
 -18 -407 -18 -407 -62 -395 c 1,10,-1
 -62 -216 l 1,11,-1
 -52 -216 l 1,12,13
 -24 -227 -24 -227 23.5 -241 c 128,-1,14
 71 -255 71 -255 116 -255 c 0,15,16
 188 -255 188 -255 232 -235 c 128,-1,17
 276 -215 276 -215 298 -175 c 256,18,19
 320 -135 320 -135 326.5 -78.5 c 128,-1,20
 333 -22 333 -22 333 59 c 2,21,-1
 333 959 l 1,22,-1
 100 959 l 1,23,-1
 100 1117 l 1,24,-1
 521 1117 l 1,25,-1
 521 -27 l 2,4,5
EndSplineSet
EndChar

StartChar: k
Encoding: 107 107 78
Width: 1212
Flags: W
LayerCount: 2
Fore
SplineSet
1199 0 m 1,0,-1
 951 0 l 1,1,-1
 503 489 l 1,2,-1
 381 373 l 1,3,-1
 381 0 l 1,4,-1
 193 0 l 1,5,-1
 193 1556 l 1,6,-1
 381 1556 l 1,7,-1
 381 558 l 1,8,-1
 924 1117 l 1,9,-1
 1161 1117 l 1,10,-1
 642 601 l 1,11,-1
 1199 0 l 1,0,-1
EndSplineSet
EndChar

StartChar: l
Encoding: 108 108 79
Width: 562
Flags: W
LayerCount: 2
Fore
SplineSet
375 0 m 1,0,-1
 187 0 l 1,1,-1
 187 1556 l 1,2,-1
 375 1556 l 1,3,-1
 375 0 l 1,0,-1
EndSplineSet
EndChar

StartChar: m
Encoding: 109 109 80
Width: 1992
Flags: W
LayerCount: 2
Fore
SplineSet
1815 0 m 1,0,-1
 1627 0 l 1,1,-1
 1627 636 l 2,2,3
 1627 708 1627 708 1620.5 775 c 128,-1,4
 1614 842 1614 842 1593 882 c 0,5,6
 1570 925 1570 925 1527 947 c 128,-1,7
 1484 969 1484 969 1403 969 c 0,8,9
 1324 969 1324 969 1245 929.5 c 128,-1,10
 1166 890 1166 890 1087 829 c 1,11,12
 1090 806 1090 806 1092 775.5 c 128,-1,13
 1094 745 1094 745 1094 715 c 2,14,-1
 1094 0 l 1,15,-1
 906 0 l 1,16,-1
 906 636 l 2,17,18
 906 710 906 710 899.5 776.5 c 128,-1,19
 893 843 893 843 872 883 c 0,20,21
 849 926 849 926 806 947.5 c 128,-1,22
 763 969 763 969 682 969 c 0,23,24
 605 969 605 969 527.5 931 c 128,-1,25
 450 893 450 893 373 834 c 1,26,-1
 373 0 l 1,27,-1
 185 0 l 1,28,-1
 185 1117 l 1,29,-1
 373 1117 l 1,30,-1
 373 993 l 1,31,32
 461 1066 461 1066 548.5 1107 c 128,-1,33
 636 1148 636 1148 735 1148 c 0,34,35
 849 1148 849 1148 928.5 1100 c 128,-1,36
 1008 1052 1008 1052 1047 967 c 1,37,38
 1161 1063 1161 1063 1255 1105.5 c 128,-1,39
 1349 1148 1349 1148 1456 1148 c 0,40,41
 1640 1148 1640 1148 1727.5 1036.5 c 128,-1,42
 1815 925 1815 925 1815 725 c 2,43,-1
 1815 0 l 1,0,-1
EndSplineSet
EndChar

StartChar: n
Encoding: 110 110 81
Width: 1296
Flags: W
LayerCount: 2
Fore
SplineSet
1119 0 m 1,0,-1
 931 0 l 1,1,-1
 931 636 l 2,2,3
 931 713 931 713 922 780.5 c 128,-1,4
 913 848 913 848 889 886 c 0,5,6
 864 928 864 928 817 948.5 c 128,-1,7
 770 969 770 969 695 969 c 0,8,9
 618 969 618 969 534 931 c 128,-1,10
 450 893 450 893 373 834 c 1,11,-1
 373 0 l 1,12,-1
 185 0 l 1,13,-1
 185 1117 l 1,14,-1
 373 1117 l 1,15,-1
 373 993 l 1,16,17
 461 1066 461 1066 555 1107 c 128,-1,18
 649 1148 649 1148 748 1148 c 0,19,20
 929 1148 929 1148 1024 1039 c 128,-1,21
 1119 930 1119 930 1119 725 c 2,22,-1
 1119 0 l 1,0,-1
EndSplineSet
EndChar

StartChar: o
Encoding: 111 111 82
Width: 1243
Flags: W
LayerCount: 2
Fore
SplineSet
1137 558 m 256,0,1
 1137 285 1137 285 997 127 c 128,-1,2
 857 -31 857 -31 622 -31 c 0,3,4
 385 -31 385 -31 245.5 127 c 128,-1,5
 106 285 106 285 106 558 c 256,6,7
 106 831 106 831 245.5 989.5 c 128,-1,8
 385 1148 385 1148 622 1148 c 0,9,10
 857 1148 857 1148 997 989.5 c 128,-1,11
 1137 831 1137 831 1137 558 c 256,0,1
943 558 m 0,12,13
 943 775 943 775 858 880.5 c 128,-1,14
 773 986 773 986 622 986 c 0,15,16
 469 986 469 986 384.5 880.5 c 128,-1,17
 300 775 300 775 300 558 c 0,18,19
 300 348 300 348 385 239.5 c 128,-1,20
 470 131 470 131 622 131 c 0,21,22
 772 131 772 131 857.5 238.5 c 128,-1,23
 943 346 943 346 943 558 c 0,12,13
EndSplineSet
EndChar

StartChar: p
Encoding: 112 112 83
Width: 1276
Flags: W
LayerCount: 2
Fore
SplineSet
1168 572 m 0,0,1
 1168 436 1168 436 1129 323.5 c 128,-1,2
 1090 211 1090 211 1019 133 c 0,3,4
 953 59 953 59 863.5 18.5 c 128,-1,5
 774 -22 774 -22 674 -22 c 0,6,7
 587 -22 587 -22 516.5 -3 c 128,-1,8
 446 16 446 16 373 56 c 1,9,-1
 373 -412 l 1,10,-1
 185 -412 l 1,11,-1
 185 1117 l 1,12,-1
 373 1117 l 1,13,-1
 373 1000 l 1,14,15
 448 1063 448 1063 541.5 1105.5 c 128,-1,16
 635 1148 635 1148 741 1148 c 0,17,18
 943 1148 943 1148 1055.5 995.5 c 128,-1,19
 1168 843 1168 843 1168 572 c 0,0,1
974 567 m 0,20,21
 974 769 974 769 905 869 c 128,-1,22
 836 969 836 969 693 969 c 0,23,24
 612 969 612 969 530 934 c 128,-1,25
 448 899 448 899 373 842 c 1,26,-1
 373 209 l 1,27,28
 453 173 453 173 510.5 160 c 128,-1,29
 568 147 568 147 641 147 c 0,30,31
 798 147 798 147 886 253 c 128,-1,32
 974 359 974 359 974 567 c 0,20,21
EndSplineSet
EndChar

StartChar: q
Encoding: 113 113 84
Width: 1276
Flags: W
LayerCount: 2
Fore
SplineSet
1091 -412 m 1,0,-1
 903 -412 l 1,1,-1
 903 126 l 1,2,3
 816 51 816 51 730 14.5 c 128,-1,4
 644 -22 644 -22 544 -22 c 0,5,6
 345 -22 345 -22 226.5 131.5 c 128,-1,7
 108 285 108 285 108 555 c 0,8,9
 108 699 108 699 149.5 809.5 c 128,-1,10
 191 920 191 920 259 995 c 0,11,12
 325 1068 325 1068 414 1108 c 128,-1,13
 503 1148 503 1148 602 1148 c 0,14,15
 692 1148 692 1148 761.5 1128 c 128,-1,16
 831 1108 831 1108 903 1069 c 1,17,-1
 915 1117 l 1,18,-1
 1091 1117 l 1,19,-1
 1091 -412 l 1,0,-1
903 284 m 1,20,-1
 903 916 l 1,21,22
 825 951 825 951 765 965 c 128,-1,23
 705 979 705 979 635 979 c 0,24,25
 472 979 472 979 387 868.5 c 128,-1,26
 302 758 302 758 302 564 c 0,27,28
 302 368 302 368 370.5 262.5 c 128,-1,29
 439 157 439 157 586 157 c 0,30,31
 668 157 668 157 750 192.5 c 128,-1,32
 832 228 832 228 903 284 c 1,20,-1
EndSplineSet
EndChar

StartChar: r
Encoding: 114 114 85
Width: 874
Flags: W
LayerCount: 2
Fore
SplineSet
882 912 m 1,0,-1
 872 912 l 1,1,2
 830 922 830 922 790.5 926.5 c 128,-1,3
 751 931 751 931 697 931 c 0,4,5
 610 931 610 931 529 892.5 c 128,-1,6
 448 854 448 854 373 793 c 1,7,-1
 373 0 l 1,8,-1
 185 0 l 1,9,-1
 185 1117 l 1,10,-1
 373 1117 l 1,11,-1
 373 952 l 1,12,13
 485 1042 485 1042 570.5 1079.5 c 128,-1,14
 656 1117 656 1117 745 1117 c 0,15,16
 794 1117 794 1117 816 1114.5 c 128,-1,17
 838 1112 838 1112 882 1105 c 1,18,-1
 882 912 l 1,0,-1
EndSplineSet
EndChar

StartChar: s
Encoding: 115 115 86
Width: 1067
Flags: W
LayerCount: 2
Fore
SplineSet
983 322 m 0,0,1
 983 169 983 169 856.5 71 c 128,-1,2
 730 -27 730 -27 511 -27 c 0,3,4
 387 -27 387 -27 283.5 2.5 c 128,-1,5
 180 32 180 32 110 67 c 1,6,-1
 110 278 l 1,7,-1
 120 278 l 1,8,9
 209 211 209 211 318 171.5 c 128,-1,10
 427 132 427 132 527 132 c 0,11,12
 651 132 651 132 721 172 c 128,-1,13
 791 212 791 212 791 298 c 0,14,15
 791 364 791 364 753 398 c 256,16,17
 715 432 715 432 607 456 c 0,18,19
 567 465 567 465 502.5 477 c 128,-1,20
 438 489 438 489 385 503 c 0,21,22
 238 542 238 542 176.5 617.5 c 128,-1,23
 115 693 115 693 115 803 c 0,24,25
 115 872 115 872 143.5 933 c 128,-1,26
 172 994 172 994 230 1042 c 0,27,28
 286 1089 286 1089 372.5 1116.5 c 128,-1,29
 459 1144 459 1144 566 1144 c 0,30,31
 666 1144 666 1144 768.5 1119.5 c 128,-1,32
 871 1095 871 1095 939 1060 c 1,33,-1
 939 859 l 1,34,-1
 929 859 l 1,35,36
 857 912 857 912 754 948.5 c 128,-1,37
 651 985 651 985 552 985 c 0,38,39
 449 985 449 985 378 945.5 c 128,-1,40
 307 906 307 906 307 828 c 0,41,42
 307 759 307 759 350 724 c 0,43,44
 392 689 392 689 486 667 c 0,45,46
 538 655 538 655 602.5 643 c 128,-1,47
 667 631 667 631 710 621 c 0,48,49
 841 591 841 591 912 518 c 0,50,51
 983 444 983 444 983 322 c 0,0,1
EndSplineSet
EndChar

StartChar: t
Encoding: 116 116 87
Width: 807
Flags: W
LayerCount: 2
Fore
SplineSet
765 10 m 1,0,1
 712 -4 712 -4 649.5 -13 c 128,-1,2
 587 -22 587 -22 538 -22 c 0,3,4
 367 -22 367 -22 278 70 c 128,-1,5
 189 162 189 162 189 365 c 2,6,-1
 189 959 l 1,7,-1
 62 959 l 1,8,-1
 62 1117 l 1,9,-1
 189 1117 l 1,10,-1
 189 1438 l 1,11,-1
 377 1438 l 1,12,-1
 377 1117 l 1,13,-1
 765 1117 l 1,14,-1
 765 959 l 1,15,-1
 377 959 l 1,16,-1
 377 450 l 2,17,18
 377 362 377 362 381 312.5 c 128,-1,19
 385 263 385 263 409 220 c 0,20,21
 431 180 431 180 469.5 161.5 c 128,-1,22
 508 143 508 143 587 143 c 0,23,24
 633 143 633 143 683 156.5 c 128,-1,25
 733 170 733 170 755 179 c 1,26,-1
 765 179 l 1,27,-1
 765 10 l 1,0,1
EndSplineSet
EndChar

StartChar: u
Encoding: 117 117 88
Width: 1296
Flags: W
LayerCount: 2
Fore
SplineSet
1111 0 m 1,0,-1
 923 0 l 1,1,-1
 923 124 l 1,2,3
 828 49 828 49 741 9 c 128,-1,4
 654 -31 654 -31 549 -31 c 0,5,6
 373 -31 373 -31 275 76.5 c 128,-1,7
 177 184 177 184 177 392 c 2,8,-1
 177 1117 l 1,9,-1
 365 1117 l 1,10,-1
 365 481 l 2,11,12
 365 396 365 396 373 335.5 c 128,-1,13
 381 275 381 275 407 232 c 0,14,15
 434 188 434 188 477 168 c 128,-1,16
 520 148 520 148 602 148 c 0,17,18
 675 148 675 148 761.5 186 c 128,-1,19
 848 224 848 224 923 283 c 1,20,-1
 923 1117 l 1,21,-1
 1111 1117 l 1,22,-1
 1111 0 l 1,0,-1
EndSplineSet
EndChar

StartChar: v
Encoding: 118 118 89
Width: 1212
Flags: W
LayerCount: 2
Fore
SplineSet
1151 1117 m 1,0,-1
 699 0 l 1,1,-1
 510 0 l 1,2,-1
 61 1117 l 1,3,-1
 265 1117 l 1,4,-1
 611 228 l 1,5,-1
 954 1117 l 1,6,-1
 1151 1117 l 1,0,-1
EndSplineSet
EndChar

StartChar: w
Encoding: 119 119 90
Width: 1676
Flags: W
LayerCount: 2
Fore
SplineSet
1590 1117 m 1,0,-1
 1299 0 l 1,1,-1
 1125 0 l 1,2,-1
 838 861 l 1,3,-1
 553 0 l 1,4,-1
 380 0 l 1,5,-1
 86 1117 l 1,6,-1
 282 1117 l 1,7,-1
 487 252 l 1,8,-1
 766 1117 l 1,9,-1
 921 1117 l 1,10,-1
 1207 252 l 1,11,-1
 1401 1117 l 1,12,-1
 1590 1117 l 1,0,-1
EndSplineSet
EndChar

StartChar: x
Encoding: 120 120 91
Width: 1212
Flags: W
LayerCount: 2
Fore
SplineSet
1152 0 m 1,0,-1
 915 0 l 1,1,-1
 598 429 l 1,2,-1
 279 0 l 1,3,-1
 60 0 l 1,4,-1
 496 557 l 1,5,-1
 64 1117 l 1,6,-1
 301 1117 l 1,7,-1
 616 695 l 1,8,-1
 932 1117 l 1,9,-1
 1152 1117 l 1,10,-1
 713 567 l 1,11,-1
 1152 0 l 1,0,-1
EndSplineSet
EndChar

StartChar: y
Encoding: 121 121 92
Width: 1212
Flags: W
LayerCount: 2
Fore
SplineSet
1151 1117 m 1,0,-1
 499 -412 l 1,1,-1
 298 -412 l 1,2,-1
 506 54 l 1,3,-1
 61 1117 l 1,4,-1
 265 1117 l 1,5,-1
 608 289 l 1,6,-1
 954 1117 l 1,7,-1
 1151 1117 l 1,0,-1
EndSplineSet
EndChar

StartChar: z
Encoding: 122 122 93
Width: 1076
Flags: W
LayerCount: 2
Fore
SplineSet
995 0 m 1,0,-1
 93 0 l 1,1,-1
 93 139 l 1,2,-1
 744 960 l 1,3,-1
 107 960 l 1,4,-1
 107 1117 l 1,5,-1
 978 1117 l 1,6,-1
 978 983 l 1,7,-1
 324 159 l 1,8,-1
 995 159 l 1,9,-1
 995 0 l 1,0,-1
EndSplineSet
EndChar

StartChar: braceleft
Encoding: 123 123 94
Width: 1092
Flags: W
LayerCount: 2
Fore
SplineSet
1001 -392 m 1,0,-1
 851 -392 l 2,1,2
 672 -392 672 -392 560.5 -292.5 c 128,-1,3
 449 -193 449 -193 449 -5 c 2,4,-1
 449 144 l 2,5,6
 449 313 449 313 366 408.5 c 128,-1,7
 283 504 283 504 112 504 c 2,8,-1
 61 504 l 1,9,-1
 61 660 l 1,10,-1
 112 660 l 2,11,12
 283 660 283 660 366 755.5 c 128,-1,13
 449 851 449 851 449 1020 c 2,14,-1
 449 1169 l 2,15,16
 449 1357 449 1357 560.5 1456.5 c 128,-1,17
 672 1556 672 1556 851 1556 c 2,18,-1
 1001 1556 l 1,19,-1
 1001 1418 l 1,20,-1
 887 1418 l 2,21,22
 751 1418 751 1418 689.5 1355 c 128,-1,23
 628 1292 628 1292 628 1152 c 2,24,-1
 628 977 l 2,25,26
 628 838 628 838 551 743.5 c 128,-1,27
 474 649 474 649 337 594 c 1,28,-1
 337 570 l 1,29,30
 474 515 474 515 551 420.5 c 128,-1,31
 628 326 628 326 628 187 c 2,32,-1
 628 12 l 2,33,34
 628 -128 628 -128 689.5 -191 c 128,-1,35
 751 -254 751 -254 887 -254 c 2,36,-1
 1001 -254 l 1,37,-1
 1001 -392 l 1,0,-1
EndSplineSet
EndChar

StartChar: bar
Encoding: 124 124 95
Width: 930
Flags: W
LayerCount: 2
Fore
SplineSet
552 -392 m 1,0,-1
 378 -392 l 1,1,-1
 378 1556 l 1,2,-1
 552 1556 l 1,3,-1
 552 -392 l 1,0,-1
EndSplineSet
EndChar

StartChar: braceright
Encoding: 125 125 96
Width: 1068
Flags: W
LayerCount: 2
Fore
SplineSet
1003 504 m 1,0,-1
 952 504 l 2,1,2
 781 504 781 504 698 408.5 c 128,-1,3
 615 313 615 313 615 144 c 2,4,-1
 615 -5 l 2,5,6
 615 -193 615 -193 503.5 -292.5 c 128,-1,7
 392 -392 392 -392 213 -392 c 2,8,-1
 63 -392 l 1,9,-1
 63 -254 l 1,10,-1
 177 -254 l 2,11,12
 313 -254 313 -254 374.5 -191 c 128,-1,13
 436 -128 436 -128 436 12 c 2,14,-1
 436 187 l 2,15,16
 436 326 436 326 513 420.5 c 128,-1,17
 590 515 590 515 727 570 c 1,18,-1
 727 594 l 1,19,20
 590 649 590 649 513 743.5 c 128,-1,21
 436 838 436 838 436 977 c 2,22,-1
 436 1152 l 2,23,24
 436 1292 436 1292 374.5 1355 c 128,-1,25
 313 1418 313 1418 177 1418 c 2,26,-1
 63 1418 l 1,27,-1
 63 1556 l 1,28,-1
 213 1556 l 2,29,30
 392 1556 392 1556 503.5 1456.5 c 128,-1,31
 615 1357 615 1357 615 1169 c 2,32,-1
 615 1020 l 2,33,34
 615 851 615 851 698 755.5 c 128,-1,35
 781 660 781 660 952 660 c 2,36,-1
 1003 660 l 1,37,-1
 1003 504 l 1,0,-1
EndSplineSet
EndChar

StartChar: asciitilde
Encoding: 126 126 97
Width: 1676
Flags: W
LayerCount: 2
Fore
SplineSet
1489 927 m 1,0,1
 1487 828 1487 828 1466.5 732 c 128,-1,2
 1446 636 1446 636 1401 561 c 0,3,4
 1355 484 1355 484 1290 440 c 128,-1,5
 1225 396 1225 396 1125 396 c 0,6,7
 1031 396 1031 396 958 435.5 c 128,-1,8
 885 475 885 475 801 577 c 0,9,10
 699 702 699 702 653 734 c 128,-1,11
 607 766 607 766 557 766 c 0,12,13
 463 766 463 766 413 678.5 c 128,-1,14
 363 591 363 591 354 395 c 1,15,-1
 187 395 l 1,16,17
 189 495 189 495 209.5 589.5 c 128,-1,18
 230 684 230 684 274 761 c 0,19,20
 317 835 317 835 386 880.5 c 128,-1,21
 455 926 455 926 551 926 c 0,22,23
 644 926 644 926 717.5 887.5 c 128,-1,24
 791 849 791 849 876 745 c 0,25,26
 956 647 956 647 1007 601.5 c 128,-1,27
 1058 556 1058 556 1119 556 c 0,28,29
 1222 556 1222 556 1270.5 657 c 128,-1,30
 1319 758 1319 758 1322 927 c 1,31,-1
 1489 927 l 1,0,1
EndSplineSet
EndChar

StartChar: exclamdown
Encoding: 161 161 98
Width: 806
Flags: W
LayerCount: 2
Fore
SplineSet
505 1278 m 1,0,-1
 301 1278 l 1,1,-1
 301 1489 l 1,2,-1
 505 1489 l 1,3,-1
 505 1278 l 1,0,-1
515 0 m 1,4,-1
 291 0 l 1,5,-1
 317 1079 l 1,6,-1
 487 1079 l 1,7,-1
 515 0 l 1,4,-1
EndSplineSet
EndChar

StartChar: cent
Encoding: 162 162 99
Width: 1302
Flags: W
LayerCount: 2
Fore
SplineSet
1120 74 m 1,0,1
 1049 44 1049 44 959 20.5 c 128,-1,2
 869 -3 869 -3 765 -6 c 1,3,-1
 765 -361 l 1,4,-1
 647 -361 l 1,5,-1
 647 -2 l 1,6,7
 420 19 420 19 289.5 163 c 128,-1,8
 159 307 159 307 159 557 c 0,9,10
 159 799 159 799 292.5 948.5 c 128,-1,11
 426 1098 426 1098 647 1120 c 1,12,-1
 647 1475 l 1,13,-1
 765 1475 l 1,14,-1
 765 1124 l 1,15,16
 869 1121 869 1121 962 1099 c 128,-1,17
 1055 1077 1055 1077 1120 1046 c 1,18,-1
 1120 843 l 1,19,-1
 1109 843 l 1,20,21
 1054 887 1054 887 967 928 c 128,-1,22
 880 969 880 969 765 978 c 1,23,-1
 765 139 l 1,24,25
 885 149 885 149 971.5 191.5 c 128,-1,26
 1058 234 1058 234 1109 275 c 1,27,-1
 1120 275 l 1,28,-1
 1120 74 l 1,0,1
647 142 m 1,29,-1
 647 976 l 1,30,31
 512 956 512 956 431 851 c 128,-1,32
 350 746 350 746 350 557 c 0,33,34
 350 376 350 376 426 271 c 128,-1,35
 502 166 502 166 647 142 c 1,29,-1
EndSplineSet
EndChar

StartChar: sterling
Encoding: 163 163 100
Width: 1302
Flags: W
LayerCount: 2
Fore
SplineSet
1163 0 m 1,0,-1
 137 0 l 1,1,-1
 137 207 l 1,2,3
 255 239 255 239 306.5 333.5 c 128,-1,4
 358 428 358 428 358 613 c 1,5,-1
 182 613 l 1,6,-1
 182 751 l 1,7,-1
 358 751 l 1,8,-1
 358 1061 l 2,9,10
 358 1261 358 1261 484.5 1389.5 c 128,-1,11
 611 1518 611 1518 816 1518 c 0,12,13
 921 1518 921 1518 997 1501 c 128,-1,14
 1073 1484 1073 1484 1137 1467 c 1,15,-1
 1137 1261 l 1,16,-1
 1127 1261 l 1,17,18
 1065 1303 1065 1303 989 1327 c 128,-1,19
 913 1351 913 1351 827 1351 c 0,20,21
 687 1351 687 1351 617.5 1268.5 c 128,-1,22
 548 1186 548 1186 548 1042 c 2,23,-1
 548 751 l 1,24,-1
 963 751 l 1,25,-1
 963 613 l 1,26,-1
 548 613 l 1,27,-1
 548 552 l 2,28,29
 548 426 548 426 486 332.5 c 128,-1,30
 424 239 424 239 326 182 c 1,31,-1
 326 171 l 1,32,-1
 1163 171 l 1,33,-1
 1163 0 l 1,0,-1
EndSplineSet
EndChar

StartChar: currency
Encoding: 164 164 101
Width: 1302
Flags: W
LayerCount: 2
Fore
SplineSet
1168 257 m 1,0,-1
 1058 147 l 1,1,-1
 822 381 l 1,2,3
 778 355 778 355 741 344 c 128,-1,4
 704 333 704 333 652 333 c 0,5,6
 606 333 606 333 562.5 345.5 c 128,-1,7
 519 358 519 358 483 381 c 1,8,-1
 247 145 l 1,9,-1
 138 258 l 1,10,-1
 371 492 l 1,11,12
 348 529 348 529 336 573.5 c 128,-1,13
 324 618 324 618 324 661 c 0,14,15
 324 713 324 713 335 749.5 c 128,-1,16
 346 786 346 786 372 829 c 1,17,-1
 138 1066 l 1,18,-1
 249 1176 l 1,19,-1
 484 941 l 1,20,21
 520 964 520 964 563.5 976.5 c 128,-1,22
 607 989 607 989 652 989 c 0,23,24
 696 989 696 989 740 977 c 128,-1,25
 784 965 784 965 821 942 c 1,26,-1
 1055 1176 l 1,27,-1
 1168 1067 l 1,28,-1
 933 830 l 1,29,30
 957 792 957 792 969 750.5 c 128,-1,31
 981 709 981 709 981 661 c 0,32,33
 981 616 981 616 968.5 572 c 128,-1,34
 956 528 956 528 933 492 c 1,35,-1
 1168 257 l 1,0,-1
832 661 m 0,36,37
 832 734 832 734 779.5 790 c 128,-1,38
 727 846 727 846 652 846 c 0,39,40
 579 846 579 846 525.5 791 c 128,-1,41
 472 736 472 736 472 661 c 0,42,43
 472 587 472 587 524.5 531.5 c 128,-1,44
 577 476 577 476 652 476 c 0,45,46
 725 476 725 476 778.5 530.5 c 128,-1,47
 832 585 832 585 832 661 c 0,36,37
EndSplineSet
EndChar

StartChar: yen
Encoding: 165 165 102
AltUni2: 00ffe5.ffffffff.0
Width: 1302
Flags: W
LayerCount: 2
Fore
SplineSet
1191 1489 m 1,0,-1
 743 647 l 1,1,-1
 743 600 l 1,2,-1
 1115 600 l 1,3,-1
 1115 462 l 1,4,-1
 745 462 l 1,5,-1
 745 324 l 1,6,-1
 1115 324 l 1,7,-1
 1115 186 l 1,8,-1
 745 186 l 1,9,-1
 745 0 l 1,10,-1
 557 0 l 1,11,-1
 557 186 l 1,12,-1
 187 186 l 1,13,-1
 187 324 l 1,14,-1
 557 324 l 1,15,-1
 557 462 l 1,16,-1
 187 462 l 1,17,-1
 187 600 l 1,18,-1
 559 600 l 1,19,-1
 559 647 l 1,20,-1
 108 1489 l 1,21,-1
 320 1489 l 1,22,-1
 652 830 l 1,23,-1
 988 1489 l 1,24,-1
 1191 1489 l 1,0,-1
EndSplineSet
EndChar

StartChar: brokenbar
Encoding: 166 166 103
Width: 930
Flags: W
LayerCount: 2
Fore
SplineSet
552 758 m 1,0,-1
 378 758 l 1,1,-1
 378 1556 l 1,2,-1
 552 1556 l 1,3,-1
 552 758 l 1,0,-1
552 -392 m 1,4,-1
 378 -392 l 1,5,-1
 378 406 l 1,6,-1
 552 406 l 1,7,-1
 552 -392 l 1,4,-1
EndSplineSet
EndChar

StartChar: section
Encoding: 167 167 104
Width: 1302
Flags: W
LayerCount: 2
Fore
SplineSet
1128 601 m 0,0,1
 1128 495 1128 495 1069 414 c 128,-1,2
 1010 333 1010 333 911 278 c 1,3,-1
 911 271 l 1,4,5
 1008 225 1008 225 1052 152.5 c 128,-1,6
 1096 80 1096 80 1096 -10 c 0,7,8
 1096 -87 1096 -87 1063 -156 c 128,-1,9
 1030 -225 1030 -225 965 -275 c 0,10,11
 893 -331 893 -331 796 -358 c 128,-1,12
 699 -385 699 -385 575 -385 c 0,13,14
 488 -385 488 -385 404.5 -371.5 c 128,-1,15
 321 -358 321 -358 229 -327 c 1,16,-1
 229 -133 l 1,17,-1
 239 -133 l 1,18,19
 318 -170 318 -170 408 -195 c 128,-1,20
 498 -220 498 -220 606 -220 c 0,21,22
 740 -220 740 -220 821 -171.5 c 128,-1,23
 902 -123 902 -123 902 -36 c 0,24,25
 902 20 902 20 882.5 52.5 c 128,-1,26
 863 85 863 85 818 110 c 0,27,28
 777 133 777 133 705 151.5 c 128,-1,29
 633 170 633 170 551 190 c 0,30,31
 337 242 337 242 255 323 c 0,32,33
 172 404 172 404 172 533 c 0,34,35
 172 631 172 631 229 715.5 c 128,-1,36
 286 800 286 800 388 857 c 1,37,-1
 388 864 l 1,38,39
 287 912 287 912 245 985 c 128,-1,40
 203 1058 203 1058 203 1147 c 0,41,42
 203 1228 203 1228 235 1293.5 c 128,-1,43
 267 1359 267 1359 334 1411 c 0,44,45
 398 1461 398 1461 497.5 1490 c 128,-1,46
 597 1519 597 1519 725 1519 c 0,47,48
 812 1519 812 1519 896 1505 c 128,-1,49
 980 1491 980 1491 1071 1462 c 1,50,-1
 1071 1268 l 1,51,-1
 1061 1268 l 1,52,53
 1003 1295 1003 1295 908.5 1325 c 128,-1,54
 814 1355 814 1355 693 1355 c 0,55,56
 566 1355 566 1355 481.5 1309 c 128,-1,57
 397 1263 397 1263 397 1176 c 0,58,59
 397 1119 397 1119 418.5 1083.5 c 128,-1,60
 440 1048 440 1048 483 1025 c 256,61,62
 526 1002 526 1002 592 983.5 c 128,-1,63
 658 965 658 965 749 944 c 0,64,65
 949 898 949 898 1039 819 c 0,66,67
 1128 740 1128 740 1128 601 c 0,0,1
881 399 m 0,68,69
 909 432 909 432 924 464.5 c 128,-1,70
 939 497 939 497 939 555 c 0,71,72
 939 606 939 606 922.5 641 c 128,-1,73
 906 676 906 676 877 699 c 0,74,75
 849 723 849 723 810 738.5 c 128,-1,76
 771 754 771 754 727 766 c 0,77,78
 688 777 688 777 641.5 787.5 c 128,-1,79
 595 798 595 798 525 818 c 1,80,81
 507 809 507 809 476 786.5 c 128,-1,82
 445 764 445 764 423 740 c 0,83,84
 399 714 399 714 380 671 c 128,-1,85
 361 628 361 628 361 579 c 0,86,87
 361 529 361 529 376.5 494 c 128,-1,88
 392 459 392 459 421 435 c 0,89,90
 448 412 448 412 488.5 396 c 128,-1,91
 529 380 529 380 573 369 c 0,92,93
 611 359 611 359 659 347 c 128,-1,94
 707 335 707 335 774 316 c 1,95,96
 794 327 794 327 827 350.5 c 128,-1,97
 860 374 860 374 881 399 c 0,68,69
EndSplineSet
EndChar

StartChar: dieresis
Encoding: 168 168 105
Width: 1302
Flags: W
LayerCount: 2
Fore
SplineSet
958 1304 m 1,0,-1
 759 1304 l 1,1,-1
 759 1499 l 1,2,-1
 958 1499 l 1,3,-1
 958 1304 l 1,0,-1
545 1304 m 1,4,-1
 346 1304 l 1,5,-1
 346 1499 l 1,6,-1
 545 1499 l 1,7,-1
 545 1304 l 1,4,-1
EndSplineSet
EndChar

StartChar: copyright
Encoding: 169 169 106
Width: 2048
Flags: W
LayerCount: 2
Fore
SplineSet
1889 655 m 256,0,1
 1889 297 1889 297 1635.5 43.5 c 128,-1,2
 1382 -210 1382 -210 1024 -210 c 256,3,4
 666 -210 666 -210 412.5 43.5 c 128,-1,5
 159 297 159 297 159 655 c 256,6,7
 159 1013 159 1013 412.5 1266.5 c 128,-1,8
 666 1520 666 1520 1024 1520 c 256,9,10
 1382 1520 1382 1520 1635.5 1266.5 c 128,-1,11
 1889 1013 1889 1013 1889 655 c 256,0,1
1773 655 m 256,12,13
 1773 965 1773 965 1553.5 1187 c 128,-1,14
 1334 1409 1334 1409 1024 1409 c 256,15,16
 714 1409 714 1409 494.5 1187 c 128,-1,17
 275 965 275 965 275 655 c 256,18,19
 275 345 275 345 494.5 123 c 128,-1,20
 714 -99 714 -99 1024 -99 c 256,21,22
 1334 -99 1334 -99 1553.5 123 c 128,-1,23
 1773 345 1773 345 1773 655 c 256,12,13
1375 258 m 1,24,25
 1289 219 1289 219 1209.5 199.5 c 128,-1,26
 1130 180 1130 180 1052 180 c 0,27,28
 825 180 825 180 693 303 c 128,-1,29
 561 426 561 426 561 660 c 0,30,31
 561 885 561 885 695.5 1014 c 128,-1,32
 830 1143 830 1143 1052 1143 c 0,33,34
 1141 1143 1141 1143 1227 1119 c 128,-1,35
 1313 1095 1313 1095 1375 1067 c 1,36,-1
 1375 886 l 1,37,-1
 1359 886 l 1,38,39
 1305 926 1305 926 1220.5 961 c 128,-1,40
 1136 996 1136 996 1047 996 c 0,41,42
 905 996 905 996 825.5 910.5 c 128,-1,43
 746 825 746 825 746 660 c 0,44,45
 746 501 746 501 822.5 414 c 128,-1,46
 899 327 899 327 1047 327 c 0,47,48
 1130 327 1130 327 1208.5 356 c 128,-1,49
 1287 385 1287 385 1359 437 c 1,50,-1
 1375 437 l 1,51,-1
 1375 258 l 1,24,25
EndSplineSet
EndChar

StartChar: ordfeminine
Encoding: 170 170 107
Width: 1117
Flags: W
LayerCount: 2
Fore
SplineSet
944 554 m 1,0,-1
 774 554 l 1,1,-1
 774 648 l 1,2,3
 746 628 746 628 721.5 609.5 c 128,-1,4
 697 591 697 591 653 572 c 0,5,6
 608 552 608 552 567.5 541.5 c 128,-1,7
 527 531 527 531 454 531 c 0,8,9
 326 531 326 531 238.5 616 c 128,-1,10
 151 701 151 701 151 833 c 0,11,12
 151 939 151 939 197.5 1006.5 c 128,-1,13
 244 1074 244 1074 321 1110 c 0,14,15
 399 1146 399 1146 518.5 1161.5 c 128,-1,16
 638 1177 638 1177 774 1183 c 1,17,-1
 774 1201 l 2,18,19
 774 1254 774 1254 756 1286 c 128,-1,20
 738 1318 738 1318 705 1337 c 0,21,22
 671 1355 671 1355 627.5 1360 c 128,-1,23
 584 1365 584 1365 536 1365 c 0,24,25
 452 1365 452 1365 368 1341 c 128,-1,26
 284 1317 284 1317 245 1303 c 1,27,-1
 231 1303 l 1,28,-1
 231 1475 l 1,29,30
 276 1488 276 1488 368 1504 c 128,-1,31
 460 1520 460 1520 537 1520 c 0,32,33
 754 1520 754 1520 849 1435.5 c 128,-1,34
 944 1351 944 1351 944 1192 c 2,35,-1
 944 554 l 1,0,-1
774 796 m 1,36,-1
 774 1041 l 1,37,38
 705 1037 705 1037 613.5 1029 c 128,-1,39
 522 1021 522 1021 468 1006 c 0,40,41
 404 988 404 988 365 949.5 c 128,-1,42
 326 911 326 911 326 843 c 0,43,44
 326 767 326 767 371.5 729 c 128,-1,45
 417 691 417 691 511 691 c 0,46,47
 593 691 593 691 658.5 724.5 c 128,-1,48
 724 758 724 758 774 796 c 1,36,-1
EndSplineSet
EndChar

StartChar: guillemotleft
Encoding: 171 171 108
Width: 1320
Flags: W
LayerCount: 2
Fore
SplineSet
1146 191 m 1,0,-1
 618 610 l 1,1,-1
 618 695 l 1,2,-1
 1146 1113 l 1,3,-1
 1146 925 l 1,4,-1
 789 652 l 1,5,-1
 1146 379 l 1,6,-1
 1146 191 l 1,0,-1
716 162 m 1,7,-1
 166 608 l 1,8,-1
 166 697 l 1,9,-1
 716 1142 l 1,10,-1
 716 946 l 1,11,-1
 345 652 l 1,12,-1
 716 358 l 1,13,-1
 716 162 l 1,7,-1
EndSplineSet
EndChar

StartChar: logicalnot
Encoding: 172 172 109
Width: 1676
Flags: W
LayerCount: 2
Fore
SplineSet
1456 57 m 1,0,-1
 1285 57 l 1,1,-1
 1285 602 l 1,2,-1
 210 602 l 1,3,-1
 210 762 l 1,4,-1
 1456 762 l 1,5,-1
 1456 57 l 1,0,-1
EndSplineSet
EndChar

StartChar: registered
Encoding: 174 174 110
Width: 2048
Flags: W
LayerCount: 2
Fore
SplineSet
1889 655 m 256,0,1
 1889 297 1889 297 1635.5 43.5 c 128,-1,2
 1382 -210 1382 -210 1024 -210 c 256,3,4
 666 -210 666 -210 412.5 43.5 c 128,-1,5
 159 297 159 297 159 655 c 256,6,7
 159 1013 159 1013 412.5 1266.5 c 128,-1,8
 666 1520 666 1520 1024 1520 c 256,9,10
 1382 1520 1382 1520 1635.5 1266.5 c 128,-1,11
 1889 1013 1889 1013 1889 655 c 256,0,1
1773 655 m 256,12,13
 1773 965 1773 965 1553.5 1187 c 128,-1,14
 1334 1409 1334 1409 1024 1409 c 256,15,16
 714 1409 714 1409 494.5 1187 c 128,-1,17
 275 965 275 965 275 655 c 256,18,19
 275 345 275 345 494.5 123 c 128,-1,20
 714 -99 714 -99 1024 -99 c 256,21,22
 1334 -99 1334 -99 1553.5 123 c 128,-1,23
 1773 345 1773 345 1773 655 c 256,12,13
1581 215 m 1,24,-1
 1358 215 l 1,25,-1
 1027 570 l 1,26,-1
 865 570 l 1,27,-1
 865 215 l 1,28,-1
 700 215 l 1,29,-1
 700 1130 l 1,30,-1
 1012 1130 l 2,31,32
 1106 1130 1106 1130 1167 1122 c 128,-1,33
 1228 1114 1228 1114 1287 1083 c 0,34,35
 1350 1049 1350 1049 1379.5 1000.5 c 128,-1,36
 1409 952 1409 952 1409 879 c 0,37,38
 1409 782 1409 782 1352.5 717.5 c 128,-1,39
 1296 653 1296 653 1197 615 c 1,40,-1
 1581 215 l 1,24,-1
1229 868 m 0,41,42
 1229 904 1229 904 1215 932 c 128,-1,43
 1201 960 1201 960 1168 978 c 0,44,45
 1137 995 1137 995 1102 1000 c 128,-1,46
 1067 1005 1067 1005 1014 1005 c 2,47,-1
 865 1005 l 1,48,-1
 865 696 l 1,49,-1
 992 696 l 2,50,51
 1054 696 1054 696 1099 705.5 c 128,-1,52
 1144 715 1144 715 1173 738 c 0,53,54
 1204 763 1204 763 1216.5 793 c 128,-1,55
 1229 823 1229 823 1229 868 c 0,41,42
EndSplineSet
EndChar

StartChar: macron
Encoding: 175 175 111
Width: 1302
Flags: W
LayerCount: 2
Fore
SplineSet
1306 1668 m 1,0,-1
 1 1668 l 1,1,-1
 -4 1788 l 1,2,-1
 1306 1788 l 1,3,-1
 1306 1668 l 1,0,-1
EndSplineSet
EndChar

StartChar: degree
Encoding: 176 176 112
Width: 1110
Flags: W
LayerCount: 2
Fore
SplineSet
956 1116 m 256,0,1
 956 948 956 948 840 832 c 128,-1,2
 724 716 724 716 555 716 c 256,3,4
 386 716 386 716 270 831.5 c 128,-1,5
 154 947 154 947 154 1116 c 0,6,7
 154 1284 154 1284 270 1400 c 128,-1,8
 386 1516 386 1516 555 1516 c 0,9,10
 725 1516 725 1516 840.5 1400 c 128,-1,11
 956 1284 956 1284 956 1116 c 256,0,1
791 1116 m 0,12,13
 791 1218 791 1218 724 1287.5 c 128,-1,14
 657 1357 657 1357 555 1357 c 256,15,16
 453 1357 453 1357 386 1287.5 c 128,-1,17
 319 1218 319 1218 319 1116 c 0,18,19
 319 1012 319 1012 387.5 943.5 c 128,-1,20
 456 875 456 875 555 875 c 0,21,22
 657 875 657 875 724 945 c 128,-1,23
 791 1015 791 1015 791 1116 c 0,12,13
EndSplineSet
EndChar

StartChar: plusminus
Encoding: 177 177 113
Width: 1676
Flags: W
LayerCount: 2
Fore
SplineSet
1461 179 m 1,0,-1
 215 179 l 1,1,-1
 215 337 l 1,2,-1
 755 337 l 1,3,-1
 755 759 l 1,4,-1
 215 759 l 1,5,-1
 215 917 l 1,6,-1
 755 917 l 1,7,-1
 755 1462 l 1,8,-1
 921 1462 l 1,9,-1
 921 917 l 1,10,-1
 1461 917 l 1,11,-1
 1461 759 l 1,12,-1
 921 759 l 1,13,-1
 921 337 l 1,14,-1
 1461 337 l 1,15,-1
 1461 179 l 1,0,-1
EndSplineSet
EndChar

StartChar: uni00B2
Encoding: 178 178 114
Width: 1110
Flags: W
LayerCount: 2
Fore
SplineSet
967 566 m 1,0,-1
 207 566 l 1,1,-1
 207 722 l 1,2,3
 307 784 307 784 390.5 839 c 128,-1,4
 474 894 474 894 525 935 c 0,5,6
 656 1038 656 1038 693 1089.5 c 128,-1,7
 730 1141 730 1141 730 1225 c 0,8,9
 730 1294 730 1294 676.5 1332 c 128,-1,10
 623 1370 623 1370 533 1370 c 0,11,12
 444 1370 444 1370 358 1339.5 c 128,-1,13
 272 1309 272 1309 224 1278 c 1,14,-1
 211 1278 l 1,15,-1
 211 1458 l 1,16,17
 282 1484 282 1484 369.5 1501.5 c 128,-1,18
 457 1519 457 1519 544 1519 c 0,19,20
 724 1519 724 1519 817.5 1440.5 c 128,-1,21
 911 1362 911 1362 911 1237 c 0,22,23
 911 1138 911 1138 862.5 1062.5 c 128,-1,24
 814 987 814 987 699 897 c 0,25,26
 644 854 644 854 566.5 803 c 128,-1,27
 489 752 489 752 423 711 c 1,28,-1
 967 711 l 1,29,-1
 967 566 l 1,0,-1
EndSplineSet
EndChar

StartChar: uni00B3
Encoding: 179 179 115
Width: 1110
Flags: W
LayerCount: 2
Fore
SplineSet
956 817 m 0,0,1
 956 742 956 742 923 685.5 c 128,-1,2
 890 629 890 629 834 595 c 0,3,4
 777 560 777 560 703 543.5 c 128,-1,5
 629 527 629 527 540 527 c 0,6,7
 446 527 446 527 363.5 542 c 128,-1,8
 281 557 281 557 207 585 c 1,9,-1
 207 764 l 1,10,-1
 221 764 l 1,11,12
 262 728 262 728 359.5 698.5 c 128,-1,13
 457 669 457 669 550 669 c 0,14,15
 650 669 650 669 716.5 704.5 c 128,-1,16
 783 740 783 740 783 815 c 0,17,18
 783 900 783 900 724 930 c 128,-1,19
 665 960 665 960 553 960 c 2,20,-1
 410 960 l 1,21,-1
 410 1101 l 1,22,-1
 538 1101 l 2,23,24
 650 1101 650 1101 703.5 1139.5 c 128,-1,25
 757 1178 757 1178 757 1246 c 0,26,27
 757 1307 757 1307 707.5 1342.5 c 128,-1,28
 658 1378 658 1378 554 1378 c 0,29,30
 477 1378 477 1378 379.5 1347 c 128,-1,31
 282 1316 282 1316 238 1280 c 1,32,-1
 224 1280 l 1,33,-1
 224 1458 l 1,34,35
 298 1485 298 1485 384.5 1502.5 c 128,-1,36
 471 1520 471 1520 561 1520 c 0,37,38
 736 1520 736 1520 832.5 1452 c 128,-1,39
 929 1384 929 1384 929 1278 c 0,40,41
 929 1189 929 1189 874 1132 c 128,-1,42
 819 1075 819 1075 730 1049 c 1,43,-1
 730 1041 l 1,44,45
 825 1024 825 1024 890.5 968.5 c 128,-1,46
 956 913 956 913 956 817 c 0,0,1
EndSplineSet
EndChar

StartChar: acute
Encoding: 180 180 116
Width: 1302
Flags: W
LayerCount: 2
Fore
SplineSet
963 1676 m 1,0,-1
 690 1302 l 1,1,-1
 541 1302 l 1,2,-1
 720 1676 l 1,3,-1
 963 1676 l 1,0,-1
EndSplineSet
EndChar

StartChar: mu
Encoding: 181 181 117
Width: 1314
Flags: W
LayerCount: 2
Fore
SplineSet
1124 0 m 1,0,-1
 946 0 l 1,1,-1
 936 118 l 1,2,3
 877 53 877 53 812.5 16 c 128,-1,4
 748 -21 748 -21 657 -21 c 0,5,6
 571 -21 571 -21 507.5 14 c 128,-1,7
 444 49 444 49 378 113 c 1,8,-1
 378 -412 l 1,9,-1
 190 -412 l 1,10,-1
 190 1117 l 1,11,-1
 378 1117 l 1,12,-1
 378 279 l 1,13,14
 410 240 410 240 487.5 199 c 128,-1,15
 565 158 565 158 656 158 c 0,16,17
 749 158 749 158 815.5 191.5 c 128,-1,18
 882 225 882 225 936 285 c 1,19,-1
 936 1117 l 1,20,-1
 1124 1117 l 1,21,-1
 1124 0 l 1,0,-1
EndSplineSet
EndChar

StartChar: paragraph
Encoding: 182 182 118
Width: 1302
Flags: W
LayerCount: 2
Fore
SplineSet
1106 -363 m 1,0,-1
 958 -363 l 1,1,-1
 958 1359 l 1,2,-1
 744 1359 l 1,3,-1
 744 -363 l 1,4,-1
 595 -363 l 1,5,-1
 595 593 l 1,6,7
 389 598 389 598 263 722 c 128,-1,8
 137 846 137 846 137 1050 c 0,9,10
 137 1257 137 1257 267 1373 c 128,-1,11
 397 1489 397 1489 640 1489 c 2,12,-1
 1106 1489 l 1,13,-1
 1106 -363 l 1,0,-1
EndSplineSet
EndChar

StartChar: periodcentered
Encoding: 183 183 119
Width: 745
Flags: W
LayerCount: 2
Fore
SplineSet
492 511 m 1,0,-1
 253 511 l 1,1,-1
 253 794 l 1,2,-1
 492 794 l 1,3,-1
 492 511 l 1,0,-1
EndSplineSet
EndChar

StartChar: cedilla
Encoding: 184 184 120
Width: 1302
Flags: W
LayerCount: 2
Fore
SplineSet
880 -89 m 0,0,1
 880 -251 880 -251 788.5 -337 c 128,-1,2
 697 -423 697 -423 551 -423 c 0,3,4
 514 -423 514 -423 456 -416 c 128,-1,5
 398 -409 398 -409 353 -397 c 1,6,-1
 353 -237 l 1,7,-1
 362 -237 l 1,8,9
 388 -247 388 -247 432 -260 c 128,-1,10
 476 -273 476 -273 526 -273 c 0,11,12
 630 -273 630 -273 679 -234 c 128,-1,13
 728 -195 728 -195 728 -107 c 0,14,15
 728 -78 728 -78 725 -41.5 c 128,-1,16
 722 -5 722 -5 719 20 c 1,17,-1
 872 20 l 1,18,19
 874 1 874 1 877 -25 c 128,-1,20
 880 -51 880 -51 880 -89 c 0,0,1
EndSplineSet
EndChar

StartChar: uni00B9
Encoding: 185 185 121
Width: 1110
Flags: W
LayerCount: 2
Fore
SplineSet
914 566 m 1,0,-1
 299 566 l 1,1,-1
 299 688 l 1,2,-1
 533 688 l 1,3,-1
 533 1256 l 1,4,-1
 291 1256 l 1,5,-1
 291 1368 l 1,6,7
 336 1368 336 1368 390 1374.5 c 128,-1,8
 444 1381 444 1381 474 1393 c 0,9,10
 511 1409 511 1409 533 1431 c 128,-1,11
 555 1453 555 1453 558 1493 c 1,12,-1
 693 1493 l 1,13,-1
 693 688 l 1,14,-1
 914 688 l 1,15,-1
 914 566 l 1,0,-1
EndSplineSet
EndChar

StartChar: ordmasculine
Encoding: 186 186 122
Width: 1117
Flags: W
LayerCount: 2
Fore
SplineSet
996 1025 m 256,0,1
 996 790 996 790 874 660.5 c 128,-1,2
 752 531 752 531 559 531 c 0,3,4
 358 531 358 531 239.5 663.5 c 128,-1,5
 121 796 121 796 121 1025 c 256,6,7
 121 1254 121 1254 239.5 1387 c 128,-1,8
 358 1520 358 1520 559 1520 c 0,9,10
 752 1520 752 1520 874 1390 c 128,-1,11
 996 1260 996 1260 996 1025 c 256,0,1
814 1025 m 256,12,13
 814 1197 814 1197 746.5 1283 c 128,-1,14
 679 1369 679 1369 559 1369 c 0,15,16
 437 1369 437 1369 370 1282 c 128,-1,17
 303 1195 303 1195 303 1025 c 256,18,19
 303 855 303 855 370 768.5 c 128,-1,20
 437 682 437 682 559 682 c 0,21,22
 679 682 679 682 746.5 767.5 c 128,-1,23
 814 853 814 853 814 1025 c 256,12,13
EndSplineSet
EndChar

StartChar: guillemotright
Encoding: 187 187 123
Width: 1320
Flags: W
LayerCount: 2
Fore
SplineSet
1154 608 m 1,0,-1
 604 162 l 1,1,-1
 604 358 l 1,2,-1
 975 652 l 1,3,-1
 604 946 l 1,4,-1
 604 1142 l 1,5,-1
 1154 697 l 1,6,-1
 1154 608 l 1,0,-1
702 610 m 1,7,-1
 174 191 l 1,8,-1
 174 379 l 1,9,-1
 531 652 l 1,10,-1
 174 925 l 1,11,-1
 174 1113 l 1,12,-1
 702 695 l 1,13,-1
 702 610 l 1,7,-1
EndSplineSet
EndChar

StartChar: questiondown
Encoding: 191 191 127
Width: 1117
Flags: W
LayerCount: 2
Fore
SplineSet
712 1278 m 1,0,-1
 508 1278 l 1,1,-1
 508 1489 l 1,2,-1
 712 1489 l 1,3,-1
 712 1278 l 1,0,-1
958 40 m 1,4,5
 875 10 875 10 782 -10 c 128,-1,6
 689 -30 689 -30 577 -30 c 0,7,8
 362 -30 362 -30 237.5 74.5 c 128,-1,9
 113 179 113 179 113 350 c 0,10,11
 113 448 113 448 147.5 523 c 128,-1,12
 182 598 182 598 241 660 c 0,13,14
 299 722 299 722 377.5 772.5 c 128,-1,15
 456 823 456 823 524 864 c 1,16,-1
 524 1089 l 1,17,-1
 703 1089 l 1,18,-1
 703 784 l 1,19,20
 643 751 643 751 564 702.5 c 128,-1,21
 485 654 485 654 439 614 c 0,22,23
 385 567 385 567 351 505 c 128,-1,24
 317 443 317 443 317 365 c 0,25,26
 317 252 317 252 393.5 196.5 c 128,-1,27
 470 141 470 141 591 141 c 0,28,29
 694 141 694 141 792.5 174 c 128,-1,30
 891 207 891 207 948 244 c 1,31,-1
 958 244 l 1,32,-1
 958 40 l 1,4,5
EndSplineSet
EndChar

StartChar: Aring
Encoding: 197 197 133
Width: 1400
Flags: W
LayerCount: 2
Fore
SplineSet
1374 0 m 1,0,-1
 1163 0 l 1,1,-1
 1015 415 l 1,2,-1
 375 415 l 1,3,-1
 227 0 l 1,4,-1
 26 0 l 1,5,-1
 545 1407 l 1,6,7
 456 1451 456 1451 402.5 1530.5 c 128,-1,8
 349 1610 349 1610 349 1712 c 0,9,10
 349 1855 349 1855 451 1952 c 128,-1,11
 553 2049 553 2049 699 2049 c 0,12,13
 846 2049 846 2049 947.5 1952 c 128,-1,14
 1049 1855 1049 1855 1049 1712 c 0,15,16
 1049 1612 1049 1612 996.5 1530.5 c 128,-1,17
 944 1449 944 1449 855 1407 c 1,18,-1
 1374 0 l 1,0,-1
899 1710 m 256,19,20
 899 1796 899 1796 842 1853.5 c 128,-1,21
 785 1911 785 1911 699 1911 c 256,22,23
 613 1911 613 1911 556 1853 c 128,-1,24
 499 1795 499 1795 499 1710 c 0,25,26
 499 1624 499 1624 556.5 1566.5 c 128,-1,27
 614 1509 614 1509 699 1509 c 0,28,29
 785 1509 785 1509 842 1566.5 c 128,-1,30
 899 1624 899 1624 899 1710 c 256,19,20
953 585 m 1,31,-1
 695 1300 l 1,32,-1
 436 585 l 1,33,-1
 953 585 l 1,31,-1
EndSplineSet
EndChar

StartChar: AE
Encoding: 198 198 134
Width: 2016
Flags: W
LayerCount: 2
Fore
SplineSet
1901 0 m 1,0,-1
 957 0 l 1,1,-1
 957 556 l 1,2,-1
 433 556 l 1,3,-1
 221 0 l 1,4,-1
 14 0 l 1,5,-1
 608 1489 l 1,6,-1
 1901 1489 l 1,7,-1
 1901 1313 l 1,8,-1
 1152 1313 l 1,9,-1
 1152 905 l 1,10,-1
 1901 905 l 1,11,-1
 1901 729 l 1,12,-1
 1152 729 l 1,13,-1
 1152 176 l 1,14,-1
 1901 176 l 1,15,-1
 1901 0 l 1,0,-1
957 723 m 1,16,-1
 957 1324 l 1,17,-1
 738 1324 l 1,18,-1
 499 723 l 1,19,-1
 957 723 l 1,16,-1
EndSplineSet
EndChar

StartChar: Ccedilla
Encoding: 199 199 135
Width: 1430
Flags: W
LayerCount: 2
Fore
SplineSet
1350 108 m 1,0,1
 1295 84 1295 84 1250.5 63 c 128,-1,2
 1206 42 1206 42 1134 19 c 0,3,4
 1123 16 1123 16 1110 11.5 c 128,-1,5
 1097 7 1097 7 1079 4 c 1,6,7
 1081 -15 1081 -15 1082.5 -40.5 c 128,-1,8
 1084 -66 1084 -66 1084 -89 c 0,9,10
 1084 -251 1084 -251 990.5 -337 c 128,-1,11
 897 -423 897 -423 750 -423 c 0,12,13
 712 -423 712 -423 652.5 -416 c 128,-1,14
 593 -409 593 -409 548 -397 c 1,15,-1
 548 -235 l 1,16,-1
 557 -235 l 1,17,18
 583 -245 583 -245 628.5 -259 c 128,-1,19
 674 -273 674 -273 724 -273 c 0,20,21
 830 -273 830 -273 879 -233 c 128,-1,22
 928 -193 928 -193 928 -107 c 0,23,24
 928 -88 928 -88 927 -65.5 c 128,-1,25
 926 -43 926 -43 924 -23 c 1,26,27
 905 -25 905 -25 883.5 -26 c 128,-1,28
 862 -27 862 -27 844 -27 c 0,29,30
 682 -27 682 -27 549.5 18.5 c 128,-1,31
 417 64 417 64 319 161 c 0,32,33
 223 256 223 256 169 402.5 c 128,-1,34
 115 549 115 549 115 743 c 0,35,36
 115 927 115 927 167 1072 c 128,-1,37
 219 1217 219 1217 317 1317 c 0,38,39
 412 1414 412 1414 546.5 1465 c 128,-1,40
 681 1516 681 1516 845 1516 c 0,41,42
 965 1516 965 1516 1084.5 1487 c 128,-1,43
 1204 1458 1204 1458 1350 1385 c 1,44,-1
 1350 1150 l 1,45,-1
 1335 1150 l 1,46,47
 1212 1253 1212 1253 1091 1300 c 128,-1,48
 970 1347 970 1347 832 1347 c 0,49,50
 719 1347 719 1347 628.5 1310.5 c 128,-1,51
 538 1274 538 1274 467 1197 c 0,52,53
 398 1122 398 1122 359.5 1007.5 c 128,-1,54
 321 893 321 893 321 743 c 0,55,56
 321 586 321 586 363.5 473 c 128,-1,57
 406 360 406 360 473 289 c 0,58,59
 543 215 543 215 636.5 179.5 c 128,-1,60
 730 144 730 144 834 144 c 0,61,62
 977 144 977 144 1102 193 c 128,-1,63
 1227 242 1227 242 1336 340 c 1,64,-1
 1350 340 l 1,65,-1
 1350 108 l 1,0,1
EndSplineSet
EndChar

StartChar: Eth
Encoding: 208 208 144
Width: 1588
Flags: W
LayerCount: 2
Fore
SplineSet
1468 743 m 0,0,1
 1468 540 1468 540 1379.5 375 c 128,-1,2
 1291 210 1291 210 1144 119 c 0,3,4
 1042 56 1042 56 916.5 28 c 128,-1,5
 791 0 791 0 586 0 c 2,6,-1
 210 0 l 1,7,-1
 210 740 l 1,8,-1
 14 740 l 1,9,-1
 14 883 l 1,10,-1
 210 883 l 1,11,-1
 210 1489 l 1,12,-1
 582 1489 l 2,13,14
 800 1489 800 1489 929 1457.5 c 128,-1,15
 1058 1426 1058 1426 1146 1371 c 0,16,17
 1298 1276 1298 1276 1383 1118 c 128,-1,18
 1468 960 1468 960 1468 743 c 0,0,1
1261 746 m 0,19,20
 1261 921 1261 921 1200 1041 c 128,-1,21
 1139 1161 1139 1161 1018 1230 c 0,22,23
 930 1280 930 1280 831 1299.5 c 128,-1,24
 732 1319 732 1319 594 1319 c 2,25,-1
 406 1319 l 1,26,-1
 406 883 l 1,27,-1
 767 883 l 1,28,-1
 767 740 l 1,29,-1
 406 740 l 1,30,-1
 406 170 l 1,31,-1
 594 170 l 2,32,33
 737 170 737 170 843.5 191 c 128,-1,34
 950 212 950 212 1039 269 c 0,35,36
 1150 340 1150 340 1205.5 456 c 128,-1,37
 1261 572 1261 572 1261 746 c 0,19,20
EndSplineSet
EndChar

StartChar: multiply
Encoding: 215 215 151
Width: 1676
Flags: W
LayerCount: 2
Fore
SplineSet
1385 216 m 1,0,-1
 1274 105 l 1,1,-1
 838 545 l 1,2,-1
 402 105 l 1,3,-1
 291 216 l 1,4,-1
 731 652 l 1,5,-1
 291 1088 l 1,6,-1
 402 1199 l 1,7,-1
 838 759 l 1,8,-1
 1274 1199 l 1,9,-1
 1385 1088 l 1,10,-1
 945 652 l 1,11,-1
 1385 216 l 1,0,-1
EndSplineSet
EndChar

StartChar: Oslash
Encoding: 216 216 152
Width: 1612
Flags: W
LayerCount: 2
Fore
SplineSet
1498 744 m 0,0,1
 1498 560 1498 560 1448.5 414.5 c 128,-1,2
 1399 269 1399 269 1310 172 c 0,3,4
 1218 71 1218 71 1092.5 20 c 128,-1,5
 967 -31 967 -31 806 -31 c 0,6,7
 691 -31 691 -31 590.5 -2 c 128,-1,8
 490 27 490 27 411 82 c 1,9,-1
 252 -146 l 1,10,-1
 120 -146 l 1,11,-1
 325 148 l 1,12,13
 224 248 224 248 169.5 398 c 128,-1,14
 115 548 115 548 115 744 c 0,15,16
 115 926 115 926 163 1070.5 c 128,-1,17
 211 1215 211 1215 303 1318 c 0,18,19
 391 1416 391 1416 521.5 1468 c 128,-1,20
 652 1520 652 1520 806 1520 c 0,21,22
 924 1520 924 1520 1021 1492.5 c 128,-1,23
 1118 1465 1118 1465 1200 1410 c 1,24,-1
 1342 1611 l 1,25,-1
 1474 1611 l 1,26,-1
 1286 1343 l 1,27,28
 1387 1243 1387 1243 1442.5 1094.5 c 128,-1,29
 1498 946 1498 946 1498 744 c 0,0,1
1097 1260 m 1,30,31
 1040 1306 1040 1306 968 1328.5 c 128,-1,32
 896 1351 896 1351 807 1351 c 0,33,34
 697 1351 697 1351 607 1312.5 c 128,-1,35
 517 1274 517 1274 451 1196 c 0,36,37
 387 1120 387 1120 352.5 1005.5 c 128,-1,38
 318 891 318 891 318 744 c 0,39,40
 318 604 318 604 347.5 492 c 128,-1,41
 377 380 377 380 435 304 c 1,42,-1
 1097 1260 l 1,30,31
1295 744 m 0,43,44
 1295 883 1295 883 1265 997 c 128,-1,45
 1235 1111 1235 1111 1177 1186 c 1,46,-1
 513 229 l 1,47,48
 573 184 573 184 645.5 161 c 128,-1,49
 718 138 718 138 807 138 c 0,50,51
 917 138 917 138 1008.5 178 c 128,-1,52
 1100 218 1100 218 1162 294 c 0,53,54
 1229 376 1229 376 1262 488.5 c 128,-1,55
 1295 601 1295 601 1295 744 c 0,43,44
EndSplineSet
EndChar

StartChar: Thorn
Encoding: 222 222 158
Width: 1240
Flags: W
LayerCount: 2
Fore
SplineSet
1174 787 m 0,0,1
 1174 695 1174 695 1139 610.5 c 128,-1,2
 1104 526 1104 526 1044 469 c 0,3,4
 966 394 966 394 856.5 358 c 128,-1,5
 747 322 747 322 596 322 c 2,6,-1
 398 322 l 1,7,-1
 398 0 l 1,8,-1
 200 0 l 1,9,-1
 200 1489 l 1,10,-1
 398 1489 l 1,11,-1
 398 1219 l 1,12,-1
 603 1219 l 2,13,14
 736 1219 736 1219 833 1196.5 c 128,-1,15
 930 1174 930 1174 997 1130 c 0,16,17
 1080 1077 1080 1077 1127 992 c 128,-1,18
 1174 907 1174 907 1174 787 c 0,0,1
968 782 m 0,19,20
 968 854 968 854 942 907.5 c 128,-1,21
 916 961 916 961 860 996 c 0,22,23
 812 1026 812 1026 748 1038.5 c 128,-1,24
 684 1051 684 1051 594 1051 c 2,25,-1
 398 1051 l 1,26,-1
 398 488 l 1,27,-1
 565 488 l 2,28,29
 684 488 684 488 760 508.5 c 128,-1,30
 836 529 836 529 883 574 c 0,31,32
 927 615 927 615 947.5 666 c 128,-1,33
 968 717 968 717 968 782 c 0,19,20
EndSplineSet
EndChar

StartChar: germandbls
Encoding: 223 223 159
Width: 1270
Flags: W
LayerCount: 2
Fore
SplineSet
1165 481 m 0,0,1
 1165 267 1165 267 1029.5 121.5 c 128,-1,2
 894 -24 894 -24 675 -24 c 0,3,4
 631 -24 631 -24 573.5 -16.5 c 128,-1,5
 516 -9 516 -9 480 4 c 1,6,-1
 480 169 l 1,7,-1
 490 169 l 1,8,9
 532 145 532 145 581.5 136 c 128,-1,10
 631 127 631 127 687 127 c 0,11,12
 761 127 761 127 816 156 c 128,-1,13
 871 185 871 185 904 234 c 0,14,15
 939 286 939 286 954.5 349.5 c 128,-1,16
 970 413 970 413 970 489 c 0,17,18
 970 655 970 655 864.5 739.5 c 128,-1,19
 759 824 759 824 561 824 c 1,20,-1
 561 974 l 1,21,22
 718 974 718 974 795 1033.5 c 128,-1,23
 872 1093 872 1093 872 1222 c 0,24,25
 872 1257 872 1257 861 1290 c 128,-1,26
 850 1323 850 1323 820 1354 c 0,27,28
 793 1383 793 1383 749 1400.5 c 128,-1,29
 705 1418 705 1418 644 1418 c 0,30,31
 587 1418 587 1418 541 1403.5 c 128,-1,32
 495 1389 495 1389 455 1350 c 0,33,34
 418 1314 418 1314 395.5 1248 c 128,-1,35
 373 1182 373 1182 373 1087 c 2,36,-1
 373 0 l 1,37,-1
 185 0 l 1,38,-1
 185 1080 l 2,39,40
 185 1204 185 1204 221 1295.5 c 128,-1,41
 257 1387 257 1387 321 1449 c 0,42,43
 381 1507 381 1507 470.5 1536.5 c 128,-1,44
 560 1566 560 1566 654 1566 c 0,45,46
 837 1566 837 1566 951.5 1479 c 128,-1,47
 1066 1392 1066 1392 1066 1241 c 0,48,49
 1066 1129 1066 1129 995 1040 c 128,-1,50
 924 951 924 951 811 919 c 1,51,-1
 811 910 l 1,52,53
 975 873 975 873 1070 761.5 c 128,-1,54
 1165 650 1165 650 1165 481 c 0,0,1
EndSplineSet
EndChar

StartChar: ae
Encoding: 230 230 166
Width: 1956
Flags: W
LayerCount: 2
Fore
SplineSet
1855 559 m 1,0,-1
 1036 559 l 1,1,2
 1036 445 1036 445 1066 364 c 128,-1,3
 1096 283 1096 283 1151 231 c 0,4,5
 1203 183 1203 183 1274 160.5 c 128,-1,6
 1345 138 1345 138 1431 138 c 0,7,8
 1542 138 1542 138 1648.5 179.5 c 128,-1,9
 1755 221 1755 221 1821 273 c 1,10,-1
 1833 273 l 1,11,-1
 1833 68 l 1,12,13
 1755 33 1755 33 1648.5 3.5 c 128,-1,14
 1542 -26 1542 -26 1433 -26 c 0,15,16
 1267 -26 1267 -26 1148.5 26 c 128,-1,17
 1030 78 1030 78 954 181 c 1,18,19
 933 162 933 162 887 122 c 128,-1,20
 841 82 841 82 791 54 c 0,21,22
 728 18 728 18 654 -5.5 c 128,-1,23
 580 -29 580 -29 465 -29 c 0,24,25
 315 -29 315 -29 209.5 68 c 128,-1,26
 104 165 104 165 104 317 c 0,27,28
 104 441 104 441 158 517.5 c 128,-1,29
 212 594 212 594 313 636 c 0,30,31
 408 675 408 675 554 689 c 128,-1,32
 700 703 700 703 862 706 c 1,33,-1
 862 767 l 2,34,35
 862 832 862 832 839 874.5 c 128,-1,36
 816 917 816 917 775 940 c 0,37,38
 735 963 735 963 679 971.5 c 128,-1,39
 623 980 623 980 563 980 c 0,40,41
 484 980 484 980 394.5 959 c 128,-1,42
 305 938 305 938 215 902 c 1,43,-1
 202 902 l 1,44,-1
 202 1093 l 1,45,46
 257 1108 257 1108 360 1127 c 128,-1,47
 463 1146 463 1146 564 1146 c 0,48,49
 723 1146 723 1146 828.5 1099.5 c 128,-1,50
 934 1053 934 1053 991 962 c 1,51,52
 1060 1044 1060 1044 1161 1096 c 128,-1,53
 1262 1148 1262 1148 1387 1148 c 0,54,55
 1604 1148 1604 1148 1729.5 1020 c 128,-1,56
 1855 892 1855 892 1855 641 c 2,57,-1
 1855 559 l 1,0,-1
1673 703 m 1,58,59
 1668 771 1668 771 1649.5 822 c 128,-1,60
 1631 873 1631 873 1599 910 c 0,61,62
 1565 949 1565 949 1510.5 971 c 128,-1,63
 1456 993 1456 993 1377 993 c 0,64,65
 1244 993 1244 993 1154 918 c 128,-1,66
 1064 843 1064 843 1039 703 c 1,67,-1
 1673 703 l 1,58,59
894 298 m 1,68,69
 874 351 874 351 863.5 417 c 128,-1,70
 853 483 853 483 853 558 c 1,71,72
 748 555 748 555 652 550.5 c 128,-1,73
 556 546 556 546 474 525 c 0,74,75
 395 505 395 505 346.5 459.5 c 128,-1,76
 298 414 298 414 298 331 c 0,77,78
 298 236 298 236 356 190 c 128,-1,79
 414 144 414 144 532 144 c 0,80,81
 631 144 631 144 727.5 187 c 128,-1,82
 824 230 824 230 894 298 c 1,68,69
EndSplineSet
EndChar

StartChar: ccedilla
Encoding: 231 231 167
Width: 1067
Flags: W
LayerCount: 2
Fore
SplineSet
1011 70 m 1,0,1
 978 55 978 55 939.5 39.5 c 128,-1,2
 901 24 901 24 872 15 c 1,3,4
 875 -4 875 -4 877.5 -32.5 c 128,-1,5
 880 -61 880 -61 880 -89 c 0,6,7
 880 -251 880 -251 788.5 -337 c 128,-1,8
 697 -423 697 -423 551 -423 c 0,9,10
 514 -423 514 -423 456 -416 c 128,-1,11
 398 -409 398 -409 353 -397 c 1,12,-1
 353 -237 l 1,13,-1
 362 -237 l 1,14,15
 388 -247 388 -247 432 -260 c 128,-1,16
 476 -273 476 -273 526 -273 c 0,17,18
 630 -273 630 -273 679 -234 c 128,-1,19
 728 -195 728 -195 728 -107 c 0,20,21
 728 -85 728 -85 726.5 -62 c 128,-1,22
 725 -39 725 -39 723 -19 c 1,23,24
 707 -21 707 -21 692.5 -23 c 128,-1,25
 678 -25 678 -25 653 -25 c 0,26,27
 532 -25 532 -25 431 10.5 c 128,-1,28
 330 46 330 46 258 118 c 0,29,30
 185 190 185 190 145 300 c 128,-1,31
 105 410 105 410 105 557 c 0,32,33
 105 831 105 831 255.5 987 c 128,-1,34
 406 1143 406 1143 653 1143 c 0,35,36
 749 1143 749 1143 841.5 1116 c 128,-1,37
 934 1089 934 1089 1011 1050 c 1,38,-1
 1011 841 l 1,39,-1
 1001 841 l 1,40,41
 915 908 915 908 823.5 944 c 128,-1,42
 732 980 732 980 645 980 c 0,43,44
 485 980 485 980 392.5 872.5 c 128,-1,45
 300 765 300 765 300 557 c 0,46,47
 300 355 300 355 390.5 246.5 c 128,-1,48
 481 138 481 138 645 138 c 0,49,50
 702 138 702 138 761 153 c 128,-1,51
 820 168 820 168 867 192 c 0,52,53
 908 213 908 213 944 236.5 c 128,-1,54
 980 260 980 260 1001 277 c 1,55,-1
 1011 277 l 1,56,-1
 1011 70 l 1,0,1
EndSplineSet
EndChar

StartChar: icircumflex
Encoding: 238 238 174
Width: 562
Flags: W
LayerCount: 2
Fore
SplineSet
572 1297 m 1,0,-1
 421 1297 l 1,1,-1
 278 1564 l 1,2,-1
 136 1297 l 1,3,-1
 -11 1297 l 1,4,-1
 167 1676 l 1,5,-1
 394 1676 l 1,6,-1
 572 1297 l 1,0,-1
375 0 m 1,7,-1
 187 0 l 1,8,-1
 187 1117 l 1,9,-1
 375 1117 l 1,10,-1
 375 0 l 1,7,-1
EndSplineSet
EndChar

StartChar: idieresis
Encoding: 239 239 175
Width: 562
Flags: W
LayerCount: 2
Fore
SplineSet
557 1304 m 1,0,-1
 368 1304 l 1,1,-1
 368 1499 l 1,2,-1
 557 1499 l 1,3,-1
 557 1304 l 1,0,-1
194 1304 m 1,4,-1
 5 1304 l 1,5,-1
 5 1499 l 1,6,-1
 194 1499 l 1,7,-1
 194 1304 l 1,4,-1
375 0 m 1,8,-1
 187 0 l 1,9,-1
 187 1117 l 1,10,-1
 375 1117 l 1,11,-1
 375 0 l 1,8,-1
EndSplineSet
EndChar

StartChar: eth
Encoding: 240 240 176
Width: 1253
Flags: W
LayerCount: 2
Fore
SplineSet
1137 637 m 0,0,1
 1137 313 1137 313 995 141 c 128,-1,2
 853 -31 853 -31 612 -31 c 0,3,4
 383 -31 383 -31 244.5 104 c 128,-1,5
 106 239 106 239 106 484 c 0,6,7
 106 710 106 710 243 842 c 128,-1,8
 380 974 380 974 582 974 c 0,9,10
 690 974 690 974 767.5 947.5 c 128,-1,11
 845 921 845 921 931 868 c 1,12,13
 899 980 899 980 831.5 1087 c 128,-1,14
 764 1194 764 1194 677 1268 c 1,15,-1
 413 1106 l 1,16,-1
 347 1203 l 1,17,-1
 584 1345 l 1,18,19
 500 1412 500 1412 428 1452.5 c 128,-1,20
 356 1493 356 1493 263 1540 c 1,21,-1
 263 1556 l 1,22,-1
 558 1556 l 1,23,24
 593 1531 593 1531 642 1497.5 c 128,-1,25
 691 1464 691 1464 728 1438 c 1,26,-1
 938 1566 l 1,27,-1
 1004 1469 l 1,28,-1
 818 1360 l 1,29,30
 971 1213 971 1213 1054 1034.5 c 128,-1,31
 1137 856 1137 856 1137 637 c 0,0,1
847 226 m 0,32,33
 896 285 896 285 922 369.5 c 128,-1,34
 948 454 948 454 948 604 c 0,35,36
 948 636 948 636 946.5 663.5 c 128,-1,37
 945 691 945 691 943 721 c 1,38,39
 868 766 868 766 785.5 787.5 c 128,-1,40
 703 809 703 809 617 809 c 0,41,42
 470 809 470 809 385.5 721.5 c 128,-1,43
 301 634 301 634 301 482 c 0,44,45
 301 302 301 302 385.5 215 c 128,-1,46
 470 128 470 128 613 128 c 0,47,48
 679 128 679 128 740.5 150 c 128,-1,49
 802 172 802 172 847 226 c 0,32,33
EndSplineSet
EndChar

StartChar: divide
Encoding: 247 247 183
Width: 1676
Flags: W
LayerCount: 2
Fore
SplineSet
957 1022 m 1,0,-1
 719 1022 l 1,1,-1
 719 1297 l 1,2,-1
 957 1297 l 1,3,-1
 957 1022 l 1,0,-1
1466 572 m 1,4,-1
 210 572 l 1,5,-1
 210 732 l 1,6,-1
 1466 732 l 1,7,-1
 1466 572 l 1,4,-1
957 7 m 1,8,-1
 719 7 l 1,9,-1
 719 282 l 1,10,-1
 957 282 l 1,11,-1
 957 7 l 1,8,-1
EndSplineSet
EndChar

StartChar: oslash
Encoding: 248 248 184
Width: 1243
Flags: W
LayerCount: 2
Fore
SplineSet
1137 558 m 0,0,1
 1137 285 1137 285 997 127 c 128,-1,2
 857 -31 857 -31 622 -31 c 0,3,4
 538 -31 538 -31 466.5 -10 c 128,-1,5
 395 11 395 11 336 50 c 1,6,-1
 203 -148 l 1,7,-1
 93 -148 l 1,8,-1
 264 108 l 1,9,10
 189 185 189 185 147.5 298 c 128,-1,11
 106 411 106 411 106 558 c 0,12,13
 106 831 106 831 245.5 989.5 c 128,-1,14
 385 1148 385 1148 622 1148 c 0,15,16
 709 1148 709 1148 780 1126 c 128,-1,17
 851 1104 851 1104 905 1069 c 1,18,-1
 1021 1241 l 1,19,-1
 1132 1241 l 1,20,-1
 977 1010 l 1,21,22
 1053 934 1053 934 1095 822 c 128,-1,23
 1137 710 1137 710 1137 558 c 0,0,1
813 930 m 1,24,25
 776 959 776 959 726.5 973.5 c 128,-1,26
 677 988 677 988 622 988 c 0,27,28
 467 988 467 988 382 878 c 128,-1,29
 297 768 297 768 297 558 c 0,30,31
 297 461 297 461 314 387 c 128,-1,32
 331 313 331 313 366 259 c 1,33,-1
 813 930 l 1,24,25
946 558 m 0,34,35
 946 655 946 655 928.5 731 c 128,-1,36
 911 807 911 807 877 861 c 1,37,-1
 429 190 l 1,38,39
 468 159 468 159 515.5 144 c 128,-1,40
 563 129 563 129 622 129 c 0,41,42
 772 129 772 129 859 237.5 c 128,-1,43
 946 346 946 346 946 558 c 0,34,35
EndSplineSet
EndChar

StartChar: thorn
Encoding: 254 254 190
Width: 1276
Flags: W
LayerCount: 2
Fore
SplineSet
1168 572 m 0,0,1
 1168 436 1168 436 1129 323.5 c 128,-1,2
 1090 211 1090 211 1019 133 c 0,3,4
 953 59 953 59 863.5 18.5 c 128,-1,5
 774 -22 774 -22 674 -22 c 0,6,7
 587 -22 587 -22 516.5 -3 c 128,-1,8
 446 16 446 16 373 56 c 1,9,-1
 373 -412 l 1,10,-1
 185 -412 l 1,11,-1
 185 1556 l 1,12,-1
 373 1556 l 1,13,-1
 373 1000 l 1,14,15
 448 1063 448 1063 541.5 1105.5 c 128,-1,16
 635 1148 635 1148 741 1148 c 0,17,18
 943 1148 943 1148 1055.5 995.5 c 128,-1,19
 1168 843 1168 843 1168 572 c 0,0,1
974 567 m 0,20,21
 974 769 974 769 905 869 c 128,-1,22
 836 969 836 969 693 969 c 0,23,24
 612 969 612 969 530 934 c 128,-1,25
 448 899 448 899 373 842 c 1,26,-1
 373 209 l 1,27,28
 453 173 453 173 510.5 160 c 128,-1,29
 568 147 568 147 641 147 c 0,30,31
 798 147 798 147 886 253 c 128,-1,32
 974 359 974 359 974 567 c 0,20,21
EndSplineSet
EndChar

StartChar: Aogonek
Encoding: 260 260 196
Width: 1400
Flags: W
LayerCount: 2
Fore
SplineSet
1579 -391 m 1,0,1
 1527 -405 1527 -405 1489.5 -411 c 128,-1,2
 1452 -417 1452 -417 1410 -417 c 0,3,4
 1271 -417 1271 -417 1186.5 -338.5 c 128,-1,5
 1102 -260 1102 -260 1102 -116 c 0,6,7
 1102 -52 1102 -52 1117 1 c 128,-1,8
 1132 54 1132 54 1138 75 c 1,9,-1
 1017 415 l 1,10,-1
 373 415 l 1,11,-1
 227 0 l 1,12,-1
 26 0 l 1,13,-1
 568 1489 l 1,14,-1
 832 1489 l 1,15,-1
 1374 0 l 1,16,-1
 1277 0 l 1,17,18
 1271 -27 1271 -27 1267.5 -53.5 c 128,-1,19
 1264 -80 1264 -80 1264 -107 c 0,20,21
 1264 -189 1264 -189 1305.5 -228 c 128,-1,22
 1347 -267 1347 -267 1437 -267 c 0,23,24
 1473 -267 1473 -267 1513.5 -253.5 c 128,-1,25
 1554 -240 1554 -240 1571 -232 c 1,26,-1
 1579 -232 l 1,27,-1
 1579 -391 l 1,0,1
956 585 m 1,28,-1
 695 1316 l 1,29,-1
 433 585 l 1,30,-1
 956 585 l 1,28,-1
EndSplineSet
EndChar

StartChar: aogonek
Encoding: 261 261 197
Width: 1230
Flags: W
LayerCount: 2
Fore
SplineSet
1326 -391 m 1,0,1
 1274 -405 1274 -405 1236.5 -411 c 128,-1,2
 1199 -417 1199 -417 1157 -417 c 0,3,4
 1018 -417 1018 -417 933.5 -338 c 128,-1,5
 849 -259 849 -259 849 -116 c 0,6,7
 849 -78 849 -78 855.5 -48.5 c 128,-1,8
 862 -19 862 -19 866 0 c 1,9,-1
 866 119 l 1,10,11
 841 102 841 102 798.5 71.5 c 128,-1,12
 756 41 756 41 716 23 c 0,13,14
 669 0 669 0 608 -15.5 c 128,-1,15
 547 -31 547 -31 465 -31 c 0,16,17
 314 -31 314 -31 209 69 c 128,-1,18
 104 169 104 169 104 324 c 0,19,20
 104 451 104 451 158.5 529.5 c 128,-1,21
 213 608 213 608 314 653 c 0,22,23
 416 698 416 698 559 714 c 128,-1,24
 702 730 702 730 866 738 c 1,25,-1
 866 767 l 2,26,27
 866 831 866 831 843.5 873 c 128,-1,28
 821 915 821 915 779 939 c 0,29,30
 739 962 739 962 683 970 c 128,-1,31
 627 978 627 978 566 978 c 0,32,33
 492 978 492 978 401 958.5 c 128,-1,34
 310 939 310 939 213 902 c 1,35,-1
 203 902 l 1,36,-1
 203 1093 l 1,37,38
 258 1108 258 1108 362 1126 c 128,-1,39
 466 1144 466 1144 567 1144 c 0,40,41
 685 1144 685 1144 772.5 1124.5 c 128,-1,42
 860 1105 860 1105 924 1058 c 0,43,44
 987 1012 987 1012 1020 939 c 128,-1,45
 1053 866 1053 866 1053 758 c 2,46,-1
 1053 0 l 1,47,-1
 1024 0 l 1,48,49
 1018 -27 1018 -27 1014.5 -52 c 128,-1,50
 1011 -77 1011 -77 1011 -107 c 0,51,52
 1011 -189 1011 -189 1052.5 -228 c 128,-1,53
 1094 -267 1094 -267 1184 -267 c 0,54,55
 1220 -267 1220 -267 1260.5 -253.5 c 128,-1,56
 1301 -240 1301 -240 1318 -232 c 1,57,-1
 1326 -232 l 1,58,-1
 1326 -391 l 1,0,1
866 275 m 1,59,-1
 866 586 l 1,60,61
 780 581 780 581 663.5 571 c 128,-1,62
 547 561 547 561 479 542 c 0,63,64
 398 519 398 519 348 470.5 c 128,-1,65
 298 422 298 422 298 337 c 0,66,67
 298 241 298 241 356 192.5 c 128,-1,68
 414 144 414 144 533 144 c 0,69,70
 632 144 632 144 714 182.5 c 128,-1,71
 796 221 796 221 866 275 c 1,59,-1
EndSplineSet
EndChar

StartChar: dcaron
Encoding: 271 271 207
Width: 1326
Flags: W
LayerCount: 2
Fore
SplineSet
1575 1556 m 1,0,-1
 1325 1051 l 1,1,-1
 1198 1051 l 1,2,-1
 1350 1556 l 1,3,-1
 1575 1556 l 1,0,-1
1091 0 m 1,4,-1
 903 0 l 1,5,-1
 903 117 l 1,6,7
 822 47 822 47 734 8 c 128,-1,8
 646 -31 646 -31 543 -31 c 0,9,10
 343 -31 343 -31 225.5 123 c 128,-1,11
 108 277 108 277 108 550 c 0,12,13
 108 692 108 692 148.5 803 c 128,-1,14
 189 914 189 914 258 992 c 0,15,16
 326 1068 326 1068 416.5 1108 c 128,-1,17
 507 1148 507 1148 604 1148 c 0,18,19
 692 1148 692 1148 760 1129.5 c 128,-1,20
 828 1111 828 1111 903 1072 c 1,21,-1
 903 1556 l 1,22,-1
 1091 1556 l 1,23,-1
 1091 0 l 1,4,-1
903 275 m 1,24,-1
 903 916 l 1,25,26
 827 950 827 950 767 963 c 128,-1,27
 707 976 707 976 636 976 c 0,28,29
 478 976 478 976 390 866 c 128,-1,30
 302 756 302 756 302 554 c 0,31,32
 302 355 302 355 370 251.5 c 128,-1,33
 438 148 438 148 588 148 c 0,34,35
 668 148 668 148 750 183.5 c 128,-1,36
 832 219 832 219 903 275 c 1,24,-1
EndSplineSet
EndChar

StartChar: dcroat
Encoding: 273 273 209
Width: 1276
Flags: W
LayerCount: 2
Fore
SplineSet
1275 1268 m 1,0,-1
 1091 1268 l 1,1,-1
 1091 0 l 1,2,-1
 903 0 l 1,3,-1
 903 117 l 1,4,5
 826 51 826 51 739.5 10 c 128,-1,6
 653 -31 653 -31 543 -31 c 0,7,8
 345 -31 345 -31 226.5 120 c 128,-1,9
 108 271 108 271 108 544 c 0,10,11
 108 686 108 686 149 795.5 c 128,-1,12
 190 905 190 905 258 982 c 0,13,14
 326 1058 326 1058 417 1097.5 c 128,-1,15
 508 1137 508 1137 604 1137 c 0,16,17
 693 1137 693 1137 760 1119 c 128,-1,18
 827 1101 827 1101 903 1062 c 1,19,-1
 903 1268 l 1,20,-1
 540 1268 l 1,21,-1
 540 1402 l 1,22,-1
 903 1402 l 1,23,-1
 903 1556 l 1,24,-1
 1091 1556 l 1,25,-1
 1091 1402 l 1,26,-1
 1275 1402 l 1,27,-1
 1275 1268 l 1,0,-1
903 275 m 1,28,-1
 903 908 l 1,29,30
 824 942 824 942 766.5 954 c 128,-1,31
 709 966 709 966 636 966 c 0,32,33
 480 966 480 966 391 859 c 128,-1,34
 302 752 302 752 302 548 c 0,35,36
 302 353 302 353 369.5 250.5 c 128,-1,37
 437 148 437 148 588 148 c 0,38,39
 668 148 668 148 750 183.5 c 128,-1,40
 832 219 832 219 903 275 c 1,28,-1
EndSplineSet
EndChar

StartChar: Eogonek
Encoding: 280 280 216
Width: 1295
Flags: W
LayerCount: 2
Fore
SplineSet
1229 -391 m 1,0,1
 1177 -405 1177 -405 1139.5 -411 c 128,-1,2
 1102 -417 1102 -417 1060 -417 c 0,3,4
 921 -417 921 -417 836.5 -338 c 128,-1,5
 752 -259 752 -259 752 -116 c 0,6,7
 752 -80 752 -80 757.5 -54.5 c 128,-1,8
 763 -29 763 -29 769 0 c 1,9,-1
 200 0 l 1,10,-1
 200 1489 l 1,11,-1
 1181 1489 l 1,12,-1
 1181 1313 l 1,13,-1
 398 1313 l 1,14,-1
 398 905 l 1,15,-1
 1181 905 l 1,16,-1
 1181 729 l 1,17,-1
 398 729 l 1,18,-1
 398 176 l 1,19,-1
 1181 176 l 1,20,-1
 1181 0 l 1,21,-1
 927 0 l 1,22,23
 921 -27 921 -27 917.5 -53.5 c 128,-1,24
 914 -80 914 -80 914 -107 c 0,25,26
 914 -189 914 -189 955.5 -228 c 128,-1,27
 997 -267 997 -267 1087 -267 c 0,28,29
 1123 -267 1123 -267 1163.5 -253.5 c 128,-1,30
 1204 -240 1204 -240 1221 -232 c 1,31,-1
 1229 -232 l 1,32,-1
 1229 -391 l 1,0,1
EndSplineSet
EndChar

StartChar: eogonek
Encoding: 281 281 217
Width: 1220
Flags: W
LayerCount: 2
Fore
SplineSet
1120 539 m 1,0,-1
 297 539 l 1,1,2
 297 436 297 436 328 359.5 c 128,-1,3
 359 283 359 283 413 234 c 0,4,5
 465 186 465 186 536.5 162 c 128,-1,6
 608 138 608 138 694 138 c 0,7,8
 808 138 808 138 923.5 183.5 c 128,-1,9
 1039 229 1039 229 1088 273 c 1,10,-1
 1098 273 l 1,11,-1
 1098 68 l 1,12,13
 1024 37 1024 37 946.5 12.5 c 128,-1,14
 869 -12 869 -12 788 -21 c 1,15,16
 786 -41 786 -41 784.5 -65 c 128,-1,17
 783 -89 783 -89 783 -107 c 0,18,19
 783 -189 783 -189 824.5 -228 c 128,-1,20
 866 -267 866 -267 956 -267 c 0,21,22
 992 -267 992 -267 1032.5 -253.5 c 128,-1,23
 1073 -240 1073 -240 1090 -232 c 1,24,-1
 1098 -232 l 1,25,-1
 1098 -391 l 1,26,27
 1046 -405 1046 -405 1008.5 -411 c 128,-1,28
 971 -417 971 -417 929 -417 c 0,29,30
 790 -417 790 -417 705.5 -338 c 128,-1,31
 621 -259 621 -259 621 -116 c 0,32,33
 621 -92 621 -92 624 -67 c 128,-1,34
 627 -42 627 -42 631 -24 c 1,35,36
 383 -6 383 -6 244.5 143 c 128,-1,37
 106 292 106 292 106 552 c 0,38,39
 106 826 106 826 255.5 987 c 128,-1,40
 405 1148 405 1148 649 1148 c 0,41,42
 875 1148 875 1148 997.5 1016 c 128,-1,43
 1120 884 1120 884 1120 641 c 2,44,-1
 1120 539 l 1,0,-1
937 683 m 1,45,46
 936 831 936 831 862.5 912 c 128,-1,47
 789 993 789 993 639 993 c 0,48,49
 488 993 488 993 398.5 904 c 128,-1,50
 309 815 309 815 297 683 c 1,51,-1
 937 683 l 1,45,46
EndSplineSet
EndChar

StartChar: Gcommaaccent
Encoding: 290 290 226
Width: 1588
Flags: W
LayerCount: 2
Fore
SplineSet
898 -107 m 0,0,1
 898 -86 898 -86 896.5 -64.5 c 128,-1,2
 895 -43 895 -43 893 -28 c 1,3,4
 720 -28 720 -28 576 19.5 c 128,-1,5
 432 67 432 67 330 163 c 0,6,7
 227 260 227 260 171 405.5 c 128,-1,8
 115 551 115 551 115 746 c 0,9,10
 115 1103 115 1103 323.5 1309.5 c 128,-1,11
 532 1516 532 1516 896 1516 c 0,12,13
 1023 1516 1023 1516 1155.5 1485.5 c 128,-1,14
 1288 1455 1288 1455 1441 1382 c 1,15,-1
 1441 1147 l 1,16,-1
 1423 1147 l 1,17,18
 1392 1171 1392 1171 1333 1210 c 128,-1,19
 1274 1249 1274 1249 1217 1275 c 0,20,21
 1148 1306 1148 1306 1060.5 1326.5 c 128,-1,22
 973 1347 973 1347 862 1347 c 0,23,24
 612 1347 612 1347 466.5 1186.5 c 128,-1,25
 321 1026 321 1026 321 752 c 0,26,27
 321 463 321 463 473 302.5 c 128,-1,28
 625 142 625 142 887 142 c 0,29,30
 983 142 983 142 1078.5 161 c 128,-1,31
 1174 180 1174 180 1246 210 c 1,32,-1
 1246 575 l 1,33,-1
 847 575 l 1,34,-1
 847 749 l 1,35,-1
 1442 749 l 1,36,-1
 1442 110 l 1,37,38
 1352 69 1352 69 1246 34 c 128,-1,39
 1140 -1 1140 -1 1046 -16 c 1,40,41
 1047 -30 1047 -30 1048.5 -48.5 c 128,-1,42
 1050 -67 1050 -67 1050 -89 c 0,43,44
 1050 -251 1050 -251 958.5 -337 c 128,-1,45
 867 -423 867 -423 721 -423 c 0,46,47
 684 -423 684 -423 626 -416 c 128,-1,48
 568 -409 568 -409 523 -397 c 1,49,-1
 523 -237 l 1,50,-1
 532 -237 l 1,51,52
 558 -247 558 -247 602 -260 c 128,-1,53
 646 -273 646 -273 696 -273 c 0,54,55
 800 -273 800 -273 849 -234 c 128,-1,56
 898 -195 898 -195 898 -107 c 0,0,1
EndSplineSet
EndChar

StartChar: gcommaaccent
Encoding: 291 291 227
Width: 1276
Flags: W
LayerCount: 2
Fore
SplineSet
1091 127 m 2,0,1
 1091 -157 1091 -157 962 -290 c 128,-1,2
 833 -423 833 -423 565 -423 c 0,3,4
 476 -423 476 -423 391.5 -410.5 c 128,-1,5
 307 -398 307 -398 225 -375 c 1,6,-1
 225 -183 l 1,7,-1
 235 -183 l 1,8,9
 281 -201 281 -201 381 -227.5 c 128,-1,10
 481 -254 481 -254 581 -254 c 0,11,12
 677 -254 677 -254 740 -231 c 128,-1,13
 803 -208 803 -208 838 -167 c 0,14,15
 873 -128 873 -128 888 -73 c 128,-1,16
 903 -18 903 -18 903 50 c 2,17,-1
 903 152 l 1,18,19
 818 84 818 84 740.5 50.5 c 128,-1,20
 663 17 663 17 543 17 c 0,21,22
 343 17 343 17 225.5 161.5 c 128,-1,23
 108 306 108 306 108 569 c 0,24,25
 108 713 108 713 148.5 817.5 c 128,-1,26
 189 922 189 922 259 998 c 0,27,28
 324 1069 324 1069 417 1108.5 c 128,-1,29
 510 1148 510 1148 602 1148 c 0,30,31
 699 1148 699 1148 764.5 1128.5 c 128,-1,32
 830 1109 830 1109 903 1069 c 1,33,-1
 915 1117 l 1,34,-1
 1091 1117 l 1,35,-1
 1091 127 l 2,0,1
903 307 m 1,36,-1
 903 916 l 1,37,38
 828 950 828 950 763.5 964.5 c 128,-1,39
 699 979 699 979 635 979 c 0,40,41
 480 979 480 979 391 875 c 128,-1,42
 302 771 302 771 302 573 c 0,43,44
 302 385 302 385 368 288 c 128,-1,45
 434 191 434 191 587 191 c 0,46,47
 669 191 669 191 751.5 222.5 c 128,-1,48
 834 254 834 254 903 307 c 1,36,-1
886 1676 m 1,49,-1
 707 1302 l 1,50,-1
 464 1302 l 1,51,-1
 737 1676 l 1,52,-1
 886 1676 l 1,49,-1
EndSplineSet
EndChar

StartChar: Hbar
Encoding: 294 294 230
Width: 1539
Flags: W
LayerCount: 2
Fore
SplineSet
1507 1109 m 1,0,-1
 1339 1109 l 1,1,-1
 1339 0 l 1,2,-1
 1141 0 l 1,3,-1
 1141 729 l 1,4,-1
 398 729 l 1,5,-1
 398 0 l 1,6,-1
 200 0 l 1,7,-1
 200 1109 l 1,8,-1
 32 1109 l 1,9,-1
 32 1249 l 1,10,-1
 200 1249 l 1,11,-1
 200 1489 l 1,12,-1
 398 1489 l 1,13,-1
 398 1249 l 1,14,-1
 1141 1249 l 1,15,-1
 1141 1489 l 1,16,-1
 1339 1489 l 1,17,-1
 1339 1249 l 1,18,-1
 1507 1249 l 1,19,-1
 1507 1109 l 1,0,-1
1141 905 m 1,20,-1
 1141 1109 l 1,21,-1
 398 1109 l 1,22,-1
 398 905 l 1,23,-1
 1141 905 l 1,20,-1
EndSplineSet
EndChar

StartChar: hbar
Encoding: 295 295 231
Width: 1296
Flags: W
LayerCount: 2
Fore
SplineSet
1119 0 m 1,0,-1
 931 0 l 1,1,-1
 931 636 l 2,2,3
 931 713 931 713 922 780.5 c 128,-1,4
 913 848 913 848 889 886 c 0,5,6
 864 928 864 928 817 948.5 c 128,-1,7
 770 969 770 969 695 969 c 0,8,9
 618 969 618 969 534 931 c 128,-1,10
 450 893 450 893 373 834 c 1,11,-1
 373 0 l 1,12,-1
 185 0 l 1,13,-1
 185 1268 l 1,14,-1
 19 1268 l 1,15,-1
 19 1402 l 1,16,-1
 185 1402 l 1,17,-1
 185 1556 l 1,18,-1
 373 1556 l 1,19,-1
 373 1402 l 1,20,-1
 694 1402 l 1,21,-1
 694 1268 l 1,22,-1
 373 1268 l 1,23,-1
 373 993 l 1,24,25
 461 1066 461 1066 555 1107 c 128,-1,26
 649 1148 649 1148 748 1148 c 0,27,28
 929 1148 929 1148 1024 1039 c 128,-1,29
 1119 930 1119 930 1119 725 c 2,30,-1
 1119 0 l 1,0,-1
EndSplineSet
EndChar

StartChar: Itilde
Encoding: 296 296 232
Width: 862
Flags: W
LayerCount: 2
Fore
SplineSet
725 0 m 1,0,-1
 137 0 l 1,1,-1
 137 152 l 1,2,-1
 332 152 l 1,3,-1
 332 1337 l 1,4,-1
 137 1337 l 1,5,-1
 137 1489 l 1,6,-1
 725 1489 l 1,7,-1
 725 1337 l 1,8,-1
 530 1337 l 1,9,-1
 530 152 l 1,10,-1
 725 152 l 1,11,-1
 725 0 l 1,0,-1
819 1992 m 1,12,13
 812 1840 812 1840 749.5 1764.5 c 128,-1,14
 687 1689 687 1689 585 1689 c 0,15,16
 533 1689 533 1689 491.5 1707 c 128,-1,17
 450 1725 450 1725 412 1763 c 0,18,19
 367 1806 367 1806 337 1827 c 128,-1,20
 307 1848 307 1848 275 1848 c 0,21,22
 227 1848 227 1848 204.5 1802.5 c 128,-1,23
 182 1757 182 1757 180 1682 c 1,24,-1
 44 1682 l 1,25,26
 47 1818 47 1818 110 1901 c 128,-1,27
 173 1984 173 1984 277 1984 c 0,28,29
 328 1984 328 1984 368.5 1966 c 128,-1,30
 409 1948 409 1948 449 1911 c 0,31,32
 491 1871 491 1871 524.5 1850.5 c 128,-1,33
 558 1830 558 1830 587 1830 c 0,34,35
 633 1830 633 1830 657.5 1875.5 c 128,-1,36
 682 1921 682 1921 683 1992 c 1,37,-1
 819 1992 l 1,12,13
EndSplineSet
EndChar

StartChar: itilde
Encoding: 297 297 233
Width: 562
Flags: W
LayerCount: 2
Fore
SplineSet
375 0 m 1,0,-1
 187 0 l 1,1,-1
 187 1117 l 1,2,-1
 375 1117 l 1,3,-1
 375 0 l 1,0,-1
577 1596 m 1,4,5
 577 1467 577 1467 525.5 1402 c 128,-1,6
 474 1337 474 1337 394 1337 c 0,7,8
 354 1337 354 1337 325 1350 c 128,-1,9
 296 1363 296 1363 266 1395 c 0,10,11
 234 1430 234 1430 211.5 1447 c 128,-1,12
 189 1464 189 1464 166 1464 c 0,13,14
 131 1464 131 1464 114.5 1429.5 c 128,-1,15
 98 1395 98 1395 98 1330 c 1,16,-1
 -14 1330 l 1,17,18
 -14 1459 -14 1459 38 1524 c 128,-1,19
 90 1589 90 1589 168 1589 c 0,20,21
 215 1589 215 1589 240 1575.5 c 128,-1,22
 265 1562 265 1562 297 1531 c 0,23,24
 330 1496 330 1496 352 1479 c 128,-1,25
 374 1462 374 1462 396 1462 c 0,26,27
 432 1462 432 1462 448.5 1498 c 128,-1,28
 465 1534 465 1534 465 1596 c 1,29,-1
 577 1596 l 1,4,5
EndSplineSet
EndChar

StartChar: Imacron
Encoding: 298 298 234
Width: 862
Flags: W
LayerCount: 2
Fore
SplineSet
725 0 m 1,0,-1
 137 0 l 1,1,-1
 137 152 l 1,2,-1
 332 152 l 1,3,-1
 332 1337 l 1,4,-1
 137 1337 l 1,5,-1
 137 1489 l 1,6,-1
 725 1489 l 1,7,-1
 725 1337 l 1,8,-1
 530 1337 l 1,9,-1
 530 152 l 1,10,-1
 725 152 l 1,11,-1
 725 0 l 1,0,-1
767 1698 m 1,12,-1
 95 1698 l 1,13,-1
 95 1852 l 1,14,-1
 767 1852 l 1,15,-1
 767 1698 l 1,12,-1
EndSplineSet
EndChar

StartChar: imacron
Encoding: 299 299 235
Width: 562
Flags: W
LayerCount: 2
Fore
SplineSet
566 1335 m 1,0,-1
 -4 1335 l 1,1,-1
 -4 1489 l 1,2,-1
 566 1489 l 1,3,-1
 566 1335 l 1,0,-1
375 0 m 1,4,-1
 187 0 l 1,5,-1
 187 1117 l 1,6,-1
 375 1117 l 1,7,-1
 375 0 l 1,4,-1
EndSplineSet
EndChar

StartChar: Ibreve
Encoding: 300 300 236
Width: 862
Flags: W
LayerCount: 2
Fore
SplineSet
725 0 m 1,0,-1
 137 0 l 1,1,-1
 137 152 l 1,2,-1
 332 152 l 1,3,-1
 332 1337 l 1,4,-1
 137 1337 l 1,5,-1
 137 1489 l 1,6,-1
 725 1489 l 1,7,-1
 725 1337 l 1,8,-1
 530 1337 l 1,9,-1
 530 152 l 1,10,-1
 725 152 l 1,11,-1
 725 0 l 1,0,-1
735 2003 m 1,12,13
 735 1835 735 1835 661.5 1731.5 c 128,-1,14
 588 1628 588 1628 432 1628 c 0,15,16
 279 1628 279 1628 203.5 1731.5 c 128,-1,17
 128 1835 128 1835 128 2003 c 1,18,-1
 286 2003 l 1,19,20
 286 1869 286 1869 320.5 1812 c 128,-1,21
 355 1755 355 1755 432 1755 c 0,22,23
 505 1755 505 1755 541 1810 c 128,-1,24
 577 1865 577 1865 577 2003 c 1,25,-1
 735 2003 l 1,12,13
EndSplineSet
EndChar

StartChar: ibreve
Encoding: 301 301 237
Width: 562
Flags: W
LayerCount: 2
Fore
SplineSet
560 1640 m 1,0,1
 560 1486 560 1486 490.5 1390 c 128,-1,2
 421 1294 421 1294 281 1294 c 0,3,4
 143 1294 143 1294 72 1389 c 128,-1,5
 1 1484 1 1484 1 1640 c 1,6,-1
 147 1640 l 1,7,8
 147 1518 147 1518 179.5 1464.5 c 128,-1,9
 212 1411 212 1411 281 1411 c 0,10,11
 346 1411 346 1411 380 1460 c 128,-1,12
 414 1509 414 1509 414 1640 c 1,13,-1
 560 1640 l 1,0,1
375 0 m 1,14,-1
 187 0 l 1,15,-1
 187 1117 l 1,16,-1
 375 1117 l 1,17,-1
 375 0 l 1,14,-1
EndSplineSet
EndChar

StartChar: Iogonek
Encoding: 302 302 238
Width: 862
Flags: W
LayerCount: 2
Fore
SplineSet
372 0 m 1,0,-1
 137 0 l 1,1,-1
 137 152 l 1,2,-1
 332 152 l 1,3,-1
 332 1337 l 1,4,-1
 137 1337 l 1,5,-1
 137 1489 l 1,6,-1
 725 1489 l 1,7,-1
 725 1337 l 1,8,-1
 530 1337 l 1,9,-1
 530 152 l 1,10,-1
 725 152 l 1,11,-1
 725 0 l 1,12,-1
 531 0 l 1,13,14
 525 -28 525 -28 520.5 -48.5 c 128,-1,15
 516 -69 516 -69 516 -107 c 0,16,17
 516 -188 516 -188 549 -228 c 128,-1,18
 582 -268 582 -268 670 -268 c 0,19,20
 703 -268 703 -268 735.5 -258.5 c 128,-1,21
 768 -249 768 -249 787 -238 c 1,22,-1
 796 -238 l 1,23,-1
 796 -396 l 1,24,25
 760 -406 760 -406 719.5 -411.5 c 128,-1,26
 679 -417 679 -417 645 -417 c 0,27,28
 510 -417 510 -417 433 -337 c 128,-1,29
 356 -257 356 -257 356 -117 c 0,30,31
 356 -83 356 -83 360.5 -56.5 c 128,-1,32
 365 -30 365 -30 372 0 c 1,0,-1
EndSplineSet
EndChar

StartChar: iogonek
Encoding: 303 303 239
Width: 562
Flags: W
LayerCount: 2
Fore
SplineSet
387 1304 m 1,0,-1
 175 1304 l 1,1,-1
 175 1499 l 1,2,-1
 387 1499 l 1,3,-1
 387 1304 l 1,0,-1
582 -396 m 1,4,5
 546 -406 546 -406 505.5 -411.5 c 128,-1,6
 465 -417 465 -417 431 -417 c 0,7,8
 298 -417 298 -417 220 -338 c 128,-1,9
 142 -259 142 -259 142 -117 c 0,10,11
 142 -54 142 -54 160.5 1.5 c 128,-1,12
 179 57 179 57 187 82 c 1,13,-1
 187 1117 l 1,14,-1
 375 1117 l 1,15,-1
 375 0 l 1,16,-1
 315 0 l 1,17,18
 309 -26 309 -26 305.5 -53 c 128,-1,19
 302 -80 302 -80 302 -107 c 0,20,21
 302 -188 302 -188 335 -228 c 128,-1,22
 368 -268 368 -268 456 -268 c 0,23,24
 489 -268 489 -268 521.5 -258.5 c 128,-1,25
 554 -249 554 -249 573 -238 c 1,26,-1
 582 -238 l 1,27,-1
 582 -396 l 1,4,5
EndSplineSet
EndChar

StartChar: dotlessi
Encoding: 305 305 241
Width: 562
Flags: W
LayerCount: 2
Fore
SplineSet
375 0 m 1,0,-1
 187 0 l 1,1,-1
 187 1117 l 1,2,-1
 375 1117 l 1,3,-1
 375 0 l 1,0,-1
EndSplineSet
EndChar

StartChar: jcircumflex
Encoding: 309 309 245
Width: 705
Flags: W
LayerCount: 2
Fore
SplineSet
521 -27 m 2,0,1
 521 -223 521 -223 421 -323 c 128,-1,2
 321 -423 321 -423 153 -423 c 0,3,4
 113 -423 113 -423 47.5 -415 c 128,-1,5
 -18 -407 -18 -407 -62 -395 c 1,6,-1
 -62 -216 l 1,7,-1
 -52 -216 l 1,8,9
 -24 -227 -24 -227 23.5 -241 c 128,-1,10
 71 -255 71 -255 116 -255 c 0,11,12
 188 -255 188 -255 232 -235 c 128,-1,13
 276 -215 276 -215 298 -175 c 256,14,15
 320 -135 320 -135 326.5 -78.5 c 128,-1,16
 333 -22 333 -22 333 59 c 2,17,-1
 333 959 l 1,18,-1
 100 959 l 1,19,-1
 100 1117 l 1,20,-1
 521 1117 l 1,21,-1
 521 -27 l 2,0,1
687 1297 m 1,22,-1
 528 1297 l 1,23,-1
 343 1553 l 1,24,-1
 159 1297 l 1,25,-1
 4 1297 l 1,26,-1
 232 1676 l 1,27,-1
 459 1676 l 1,28,-1
 687 1297 l 1,22,-1
EndSplineSet
EndChar

StartChar: kgreenlandic
Encoding: 312 312 248
Width: 1212
Flags: W
LayerCount: 2
Fore
SplineSet
1199 0 m 1,0,-1
 951 0 l 1,1,-1
 503 489 l 1,2,-1
 381 373 l 1,3,-1
 381 0 l 1,4,-1
 193 0 l 1,5,-1
 193 1117 l 1,6,-1
 381 1117 l 1,7,-1
 381 558 l 1,8,-1
 924 1117 l 1,9,-1
 1161 1117 l 1,10,-1
 642 601 l 1,11,-1
 1199 0 l 1,0,-1
EndSplineSet
EndChar

StartChar: Lcommaaccent
Encoding: 315 315 251
Width: 1140
Flags: W
LayerCount: 2
Fore
SplineSet
703 0 m 1,0,-1
 200 0 l 1,1,-1
 200 1489 l 1,2,-1
 398 1489 l 1,3,-1
 398 176 l 1,4,-1
 1142 176 l 1,5,-1
 1142 0 l 1,6,-1
 857 0 l 1,7,8
 859 -18 859 -18 861 -41.5 c 128,-1,9
 863 -65 863 -65 863 -89 c 0,10,11
 863 -251 863 -251 771.5 -337 c 128,-1,12
 680 -423 680 -423 534 -423 c 0,13,14
 497 -423 497 -423 439 -416 c 128,-1,15
 381 -409 381 -409 336 -397 c 1,16,-1
 336 -237 l 1,17,-1
 345 -237 l 1,18,19
 371 -247 371 -247 415 -260 c 128,-1,20
 459 -273 459 -273 509 -273 c 0,21,22
 613 -273 613 -273 662 -234 c 128,-1,23
 711 -195 711 -195 711 -107 c 0,24,25
 711 -77 711 -77 708 -46 c 128,-1,26
 705 -15 705 -15 703 0 c 1,0,-1
EndSplineSet
EndChar

StartChar: lcommaaccent
Encoding: 316 316 252
Width: 562
Flags: W
LayerCount: 2
Fore
SplineSet
329 0 m 1,0,-1
 187 0 l 1,1,-1
 187 1556 l 1,2,-1
 375 1556 l 1,3,-1
 375 20 l 1,4,-1
 483 20 l 1,5,6
 484 2 484 2 486.5 -25.5 c 128,-1,7
 489 -53 489 -53 489 -89 c 0,8,9
 489 -251 489 -251 402 -337 c 128,-1,10
 315 -423 315 -423 182 -423 c 0,11,12
 145 -423 145 -423 95 -417 c 128,-1,13
 45 -411 45 -411 5 -399 c 1,14,-1
 5 -239 l 1,15,-1
 14 -239 l 1,16,17
 38 -250 38 -250 77 -261.5 c 128,-1,18
 116 -273 116 -273 156 -273 c 0,19,20
 250 -273 250 -273 291 -233.5 c 128,-1,21
 332 -194 332 -194 332 -107 c 0,22,23
 332 -86 332 -86 331.5 -60.5 c 128,-1,24
 331 -35 331 -35 329 0 c 1,0,-1
EndSplineSet
EndChar

StartChar: Lcaron
Encoding: 317 317 253
Width: 1140
Flags: W
LayerCount: 2
Fore
SplineSet
1142 0 m 1,0,-1
 200 0 l 1,1,-1
 200 1489 l 1,2,-1
 398 1489 l 1,3,-1
 398 176 l 1,4,-1
 1142 176 l 1,5,-1
 1142 0 l 1,0,-1
947 1556 m 1,6,-1
 697 1051 l 1,7,-1
 570 1051 l 1,8,-1
 722 1556 l 1,9,-1
 947 1556 l 1,6,-1
EndSplineSet
EndChar

StartChar: lcaron
Encoding: 318 318 254
Width: 606
Flags: W
LayerCount: 2
Fore
SplineSet
852 1556 m 1,0,-1
 602 1051 l 1,1,-1
 475 1051 l 1,2,-1
 627 1556 l 1,3,-1
 852 1556 l 1,0,-1
375 0 m 1,4,-1
 187 0 l 1,5,-1
 187 1556 l 1,6,-1
 375 1556 l 1,7,-1
 375 0 l 1,4,-1
EndSplineSet
EndChar

StartChar: Ldot
Encoding: 319 319 255
Width: 1140
Flags: W
LayerCount: 2
Fore
SplineSet
1142 0 m 1,0,-1
 200 0 l 1,1,-1
 200 1489 l 1,2,-1
 398 1489 l 1,3,-1
 398 176 l 1,4,-1
 1142 176 l 1,5,-1
 1142 0 l 1,0,-1
986 519 m 1,6,-1
 753 519 l 1,7,-1
 753 786 l 1,8,-1
 986 786 l 1,9,-1
 986 519 l 1,6,-1
EndSplineSet
EndChar

StartChar: ldot
Encoding: 320 320 256
Width: 939
Flags: W
LayerCount: 2
Fore
SplineSet
375 0 m 1,0,-1
 187 0 l 1,1,-1
 187 1556 l 1,2,-1
 375 1556 l 1,3,-1
 375 0 l 1,0,-1
866 520 m 1,4,-1
 635 520 l 1,5,-1
 635 785 l 1,6,-1
 866 785 l 1,7,-1
 866 520 l 1,4,-1
EndSplineSet
EndChar

StartChar: Lslash
Encoding: 321 321 257
Width: 1150
Flags: W
LayerCount: 2
Fore
SplineSet
1152 0 m 1,0,-1
 210 0 l 1,1,-1
 210 535 l 1,2,-1
 24 383 l 1,3,-1
 24 546 l 1,4,-1
 210 695 l 1,5,-1
 210 1489 l 1,6,-1
 408 1489 l 1,7,-1
 408 841 l 1,8,-1
 757 1124 l 1,9,-1
 757 961 l 1,10,-1
 408 681 l 1,11,-1
 408 176 l 1,12,-1
 1152 176 l 1,13,-1
 1152 0 l 1,0,-1
EndSplineSet
EndChar

StartChar: lslash
Encoding: 322 322 258
Width: 582
Flags: W
LayerCount: 2
Fore
SplineSet
566 890 m 1,0,-1
 385 745 l 1,1,-1
 385 0 l 1,2,-1
 197 0 l 1,3,-1
 197 608 l 1,4,-1
 24 467 l 1,5,-1
 24 626 l 1,6,-1
 197 764 l 1,7,-1
 197 1556 l 1,8,-1
 385 1556 l 1,9,-1
 385 901 l 1,10,-1
 566 1049 l 1,11,-1
 566 890 l 1,0,-1
EndSplineSet
EndChar

StartChar: napostrophe
Encoding: 329 329 265
Width: 1496
Flags: W
LayerCount: 2
Fore
SplineSet
1319 0 m 1,0,-1
 1131 0 l 1,1,-1
 1131 636 l 2,2,3
 1131 713 1131 713 1122 780.5 c 128,-1,4
 1113 848 1113 848 1089 886 c 0,5,6
 1064 928 1064 928 1017 948.5 c 128,-1,7
 970 969 970 969 895 969 c 0,8,9
 818 969 818 969 734 931 c 128,-1,10
 650 893 650 893 573 834 c 1,11,-1
 573 0 l 1,12,-1
 385 0 l 1,13,-1
 385 1117 l 1,14,-1
 573 1117 l 1,15,-1
 573 993 l 1,16,17
 661 1066 661 1066 755 1107 c 128,-1,18
 849 1148 849 1148 948 1148 c 0,19,20
 1129 1148 1129 1148 1224 1039 c 128,-1,21
 1319 930 1319 930 1319 725 c 2,22,-1
 1319 0 l 1,0,-1
409 1556 m 1,23,-1
 138 997 l 1,24,-1
 0 997 l 1,25,-1
 165 1556 l 1,26,-1
 409 1556 l 1,23,-1
EndSplineSet
EndChar

StartChar: Eng
Encoding: 330 330 266
Width: 1532
Flags: W
LayerCount: 2
Fore
SplineSet
1152 -10 m 1,1,-1
 385 1332 l 1,2,-1
 385 0 l 1,3,-1
 200 0 l 1,4,-1
 200 1489 l 1,5,-1
 507 1489 l 1,6,-1
 1151 369 l 1,7,-1
 1151 1489 l 1,8,-1
 1336 1489 l 1,9,-1
 1336 -23 l 2,10,11
 1336 -214 1336 -214 1233 -318.5 c 128,-1,12
 1130 -423 1130 -423 950 -423 c 0,13,14
 911 -423 911 -423 870.5 -419 c 128,-1,15
 830 -415 830 -415 793 -409 c 1,16,-1
 793 -241 l 1,17,-1
 804 -241 l 1,18,19
 826 -246 826 -246 855 -251 c 128,-1,20
 884 -256 884 -256 914 -256 c 0,21,22
 1041 -256 1041 -256 1096.5 -202 c 128,-1,0
 1152 -148 1152 -148 1152 -10 c 1,1,-1
EndSplineSet
EndChar

StartChar: eng
Encoding: 331 331 267
Width: 1296
Flags: W
LayerCount: 2
Fore
SplineSet
931 49 m 2,1,-1
 931 636 l 2,2,3
 931 713 931 713 922 780.5 c 128,-1,4
 913 848 913 848 889 886 c 0,5,6
 864 928 864 928 817 948.5 c 128,-1,7
 770 969 770 969 695 969 c 0,8,9
 618 969 618 969 534 931 c 128,-1,10
 450 893 450 893 373 834 c 1,11,-1
 373 0 l 1,12,-1
 185 0 l 1,13,-1
 185 1117 l 1,14,-1
 373 1117 l 1,15,-1
 373 993 l 1,16,17
 461 1066 461 1066 555 1107 c 128,-1,18
 649 1148 649 1148 748 1148 c 0,19,20
 929 1148 929 1148 1024 1039 c 128,-1,21
 1119 930 1119 930 1119 725 c 2,22,-1
 1119 -28 l 2,23,24
 1119 -219 1119 -219 1017 -321 c 128,-1,25
 915 -423 915 -423 735 -423 c 0,26,27
 696 -423 696 -423 657 -419.5 c 128,-1,28
 618 -416 618 -416 580 -410 c 1,29,-1
 580 -242 l 1,30,-1
 591 -242 l 1,31,32
 613 -247 613 -247 643 -252 c 128,-1,33
 673 -257 673 -257 699 -257 c 0,34,35
 775 -257 775 -257 823.5 -238 c 128,-1,36
 872 -219 872 -219 895 -181 c 0,37,38
 917 -143 917 -143 924 -90 c 128,-1,0
 931 -37 931 -37 931 49 c 2,1,-1
EndSplineSet
EndChar

StartChar: OE
Encoding: 338 338 274
Width: 2191
Flags: W
LayerCount: 2
Fore
SplineSet
2076 0 m 1,0,-1
 1002 0 l 2,1,2
 806 0 806 0 676.5 27 c 128,-1,3
 547 54 547 54 444 119 c 0,4,5
 299 210 299 210 209.5 373 c 128,-1,6
 120 536 120 536 120 743 c 0,7,8
 120 958 120 958 207 1116 c 128,-1,9
 294 1274 294 1274 446 1370 c 0,10,11
 525 1421 525 1421 649.5 1455 c 128,-1,12
 774 1489 774 1489 1006 1489 c 2,13,-1
 2076 1489 l 1,14,-1
 2076 1313 l 1,15,-1
 1313 1313 l 1,16,-1
 1313 905 l 1,17,-1
 2076 905 l 1,18,-1
 2076 729 l 1,19,-1
 1313 729 l 1,20,-1
 1313 176 l 1,21,-1
 2076 176 l 1,22,-1
 2076 0 l 1,0,-1
1116 172 m 1,23,-1
 1116 1317 l 1,24,-1
 994 1317 l 2,25,26
 848 1317 848 1317 757.5 1301 c 128,-1,27
 667 1285 667 1285 572 1231 c 0,28,29
 456 1165 456 1165 391.5 1041 c 128,-1,30
 327 917 327 917 327 746 c 256,31,32
 327 575 327 575 383.5 456 c 128,-1,33
 440 337 440 337 549 269 c 0,34,35
 640 212 640 212 744 192 c 128,-1,36
 848 172 848 172 994 172 c 2,37,-1
 1116 172 l 1,23,-1
EndSplineSet
EndChar

StartChar: oe
Encoding: 339 339 275
Width: 2010
Flags: W
LayerCount: 2
Fore
SplineSet
1910 539 m 1,0,-1
 1106 539 l 1,1,2
 1106 435 1106 435 1136 359 c 128,-1,3
 1166 283 1166 283 1218 234 c 256,4,5
 1270 185 1270 185 1340.5 161.5 c 128,-1,6
 1411 138 1411 138 1493 138 c 0,7,8
 1602 138 1602 138 1704.5 177.5 c 128,-1,9
 1807 217 1807 217 1877 273 c 1,10,-1
 1889 273 l 1,11,-1
 1889 68 l 1,12,13
 1791 26 1791 26 1695.5 0 c 128,-1,14
 1600 -26 1600 -26 1495 -26 c 0,15,16
 1327 -26 1327 -26 1211 35 c 128,-1,17
 1095 96 1095 96 1021 200 c 1,18,19
 952 89 952 89 847.5 29 c 128,-1,20
 743 -31 743 -31 612 -31 c 0,21,22
 379 -31 379 -31 242.5 127 c 128,-1,23
 106 285 106 285 106 558 c 0,24,25
 106 835 106 835 245.5 991.5 c 128,-1,26
 385 1148 385 1148 612 1148 c 0,27,28
 752 1148 752 1148 852 1087.5 c 128,-1,29
 952 1027 952 1027 1020 913 c 1,30,31
 1091 1019 1091 1019 1198.5 1083.5 c 128,-1,32
 1306 1148 1306 1148 1449 1148 c 0,33,34
 1674 1148 1674 1148 1792 1014 c 128,-1,35
 1910 880 1910 880 1910 641 c 2,36,-1
 1910 539 l 1,0,-1
1727 683 m 1,37,38
 1724 838 1724 838 1651.5 915.5 c 128,-1,39
 1579 993 1579 993 1438 993 c 0,40,41
 1299 993 1299 993 1211.5 911 c 128,-1,42
 1124 829 1124 829 1108 683 c 1,43,-1
 1727 683 l 1,37,38
924 558 m 0,44,45
 924 773 924 773 842 879.5 c 128,-1,46
 760 986 760 986 613 986 c 0,47,48
 460 986 460 986 380 874 c 128,-1,49
 300 762 300 762 300 558 c 0,50,51
 300 346 300 346 383.5 238.5 c 128,-1,52
 467 131 467 131 613 131 c 256,53,54
 759 131 759 131 841.5 237.5 c 128,-1,55
 924 344 924 344 924 558 c 0,44,45
EndSplineSet
EndChar

StartChar: rcommaaccent
Encoding: 343 343 279
Width: 874
Flags: W
LayerCount: 2
Fore
SplineSet
99 -261.5 m 128,-1,1
 138 -273 138 -273 178 -273 c 0,2,3
 272 -273 272 -273 313 -233.5 c 128,-1,4
 354 -194 354 -194 354 -107 c 0,5,6
 354 -86 354 -86 353.5 -60.5 c 128,-1,7
 353 -35 353 -35 351 0 c 1,8,-1
 185 0 l 1,9,-1
 185 1117 l 1,10,-1
 373 1117 l 1,11,-1
 373 952 l 1,12,13
 485 1042 485 1042 570.5 1079.5 c 128,-1,14
 656 1117 656 1117 745 1117 c 0,15,16
 794 1117 794 1117 816 1114.5 c 128,-1,17
 838 1112 838 1112 882 1105 c 1,18,-1
 882 912 l 1,19,-1
 872 912 l 1,20,21
 830 922 830 922 790.5 926.5 c 128,-1,22
 751 931 751 931 697 931 c 0,23,24
 610 931 610 931 529 892.5 c 128,-1,25
 448 854 448 854 373 793 c 1,26,-1
 373 20 l 1,27,-1
 505 20 l 1,28,29
 506 2 506 2 508.5 -25.5 c 128,-1,30
 511 -53 511 -53 511 -89 c 0,31,32
 511 -251 511 -251 424 -337 c 128,-1,33
 337 -423 337 -423 204 -423 c 0,34,35
 167 -423 167 -423 117 -417 c 128,-1,36
 67 -411 67 -411 27 -399 c 1,37,-1
 27 -239 l 1,38,-1
 36 -239 l 1,39,0
 60 -250 60 -250 99 -261.5 c 128,-1,1
EndSplineSet
EndChar

StartChar: Scedilla
Encoding: 350 350 286
Width: 1400
Flags: W
LayerCount: 2
Fore
SplineSet
1282 425 m 0,0,1
 1282 338 1282 338 1241.5 253 c 128,-1,2
 1201 168 1201 168 1128 109 c 0,3,4
 1084 74 1084 74 1032 46.5 c 128,-1,5
 980 19 980 19 918 2 c 1,6,7
 921 -20 921 -20 922.5 -42 c 128,-1,8
 924 -64 924 -64 924 -89 c 0,9,10
 924 -246 924 -246 834.5 -334.5 c 128,-1,11
 745 -423 745 -423 591 -423 c 0,12,13
 554 -423 554 -423 496 -416 c 128,-1,14
 438 -409 438 -409 393 -397 c 1,15,-1
 393 -235 l 1,16,-1
 402 -235 l 1,17,18
 428 -245 428 -245 469 -259 c 128,-1,19
 510 -273 510 -273 566 -273 c 0,20,21
 670 -273 670 -273 719 -234 c 128,-1,22
 768 -195 768 -195 768 -107 c 0,23,24
 768 -83 768 -83 766.5 -62.5 c 128,-1,25
 765 -42 765 -42 763 -24 c 1,26,27
 743 -25 743 -25 724.5 -26 c 128,-1,28
 706 -27 706 -27 685 -27 c 0,29,30
 524 -27 524 -27 395.5 3 c 128,-1,31
 267 33 267 33 134 92 c 1,32,-1
 134 340 l 1,33,-1
 148 340 l 1,34,35
 261 246 261 246 409 195 c 128,-1,36
 557 144 557 144 687 144 c 0,37,38
 871 144 871 144 973.5 213 c 128,-1,39
 1076 282 1076 282 1076 397 c 0,40,41
 1076 496 1076 496 1027.5 543 c 128,-1,42
 979 590 979 590 880 616 c 0,43,44
 805 636 805 636 717.5 649 c 128,-1,45
 630 662 630 662 532 682 c 0,46,47
 334 724 334 724 238.5 825.5 c 128,-1,48
 143 927 143 927 143 1090 c 0,49,50
 143 1277 143 1277 301 1396.5 c 128,-1,51
 459 1516 459 1516 702 1516 c 0,52,53
 859 1516 859 1516 990 1486 c 128,-1,54
 1121 1456 1121 1456 1222 1412 c 1,55,-1
 1222 1178 l 1,56,-1
 1208 1178 l 1,57,58
 1123 1250 1123 1250 984.5 1297.5 c 128,-1,59
 846 1345 846 1345 701 1345 c 0,60,61
 542 1345 542 1345 445.5 1279 c 128,-1,62
 349 1213 349 1213 349 1109 c 0,63,64
 349 1016 349 1016 397 963 c 128,-1,65
 445 910 445 910 566 882 c 0,66,67
 630 868 630 868 748 848 c 128,-1,68
 866 828 866 828 948 807 c 0,69,70
 1114 763 1114 763 1198 674 c 128,-1,71
 1282 585 1282 585 1282 425 c 0,0,1
EndSplineSet
EndChar

StartChar: scedilla
Encoding: 351 351 287
Width: 1067
Flags: W
LayerCount: 2
Fore
SplineSet
983 322 m 0,0,1
 983 215 983 215 919.5 133.5 c 128,-1,2
 856 52 856 52 745 10 c 1,3,4
 747 -9 747 -9 749.5 -36 c 128,-1,5
 752 -63 752 -63 752 -89 c 0,6,7
 752 -251 752 -251 660.5 -337 c 128,-1,8
 569 -423 569 -423 423 -423 c 0,9,10
 386 -423 386 -423 328 -416 c 128,-1,11
 270 -409 270 -409 225 -397 c 1,12,-1
 225 -237 l 1,13,-1
 234 -237 l 1,14,15
 260 -247 260 -247 304 -260 c 128,-1,16
 348 -273 348 -273 398 -273 c 0,17,18
 502 -273 502 -273 551 -234 c 128,-1,19
 600 -195 600 -195 600 -107 c 0,20,21
 600 -83 600 -83 598.5 -60.5 c 128,-1,22
 597 -38 597 -38 595 -23 c 1,23,24
 574 -25 574 -25 554 -26 c 128,-1,25
 534 -27 534 -27 511 -27 c 0,26,27
 387 -27 387 -27 283.5 2.5 c 128,-1,28
 180 32 180 32 110 67 c 1,29,-1
 110 278 l 1,30,-1
 120 278 l 1,31,32
 209 211 209 211 318 171.5 c 128,-1,33
 427 132 427 132 527 132 c 0,34,35
 651 132 651 132 721 172 c 128,-1,36
 791 212 791 212 791 298 c 0,37,38
 791 364 791 364 753 398 c 256,39,40
 715 432 715 432 607 456 c 0,41,42
 567 465 567 465 502.5 477 c 128,-1,43
 438 489 438 489 385 503 c 0,44,45
 238 542 238 542 176.5 617.5 c 128,-1,46
 115 693 115 693 115 803 c 0,47,48
 115 872 115 872 143.5 933 c 128,-1,49
 172 994 172 994 230 1042 c 0,50,51
 286 1089 286 1089 372.5 1116.5 c 128,-1,52
 459 1144 459 1144 566 1144 c 0,53,54
 666 1144 666 1144 768.5 1119.5 c 128,-1,55
 871 1095 871 1095 939 1060 c 1,56,-1
 939 859 l 1,57,-1
 929 859 l 1,58,59
 857 912 857 912 754 948.5 c 128,-1,60
 651 985 651 985 552 985 c 0,61,62
 449 985 449 985 378 945.5 c 128,-1,63
 307 906 307 906 307 828 c 0,64,65
 307 759 307 759 350 724 c 0,66,67
 392 689 392 689 486 667 c 0,68,69
 538 655 538 655 602.5 643 c 128,-1,70
 667 631 667 631 710 621 c 0,71,72
 841 591 841 591 912 518 c 0,73,74
 983 444 983 444 983 322 c 0,0,1
EndSplineSet
EndChar

StartChar: Tcommaaccent
Encoding: 354 354 290
Width: 1262
Flags: W
LayerCount: 2
Fore
SplineSet
1262 1313 m 1,0,-1
 730 1313 l 1,1,-1
 730 37 l 2,2,3
 733 17 733 17 737.5 -19 c 128,-1,4
 742 -55 742 -55 742 -89 c 0,5,6
 742 -251 742 -251 650.5 -337 c 128,-1,7
 559 -423 559 -423 413 -423 c 0,8,9
 376 -423 376 -423 318 -416 c 128,-1,10
 260 -409 260 -409 215 -397 c 1,11,-1
 215 -237 l 1,12,-1
 224 -237 l 1,13,14
 250 -247 250 -247 294 -260 c 128,-1,15
 338 -273 338 -273 388 -273 c 0,16,17
 492 -273 492 -273 541 -234 c 128,-1,18
 590 -195 590 -195 590 -107 c 0,19,20
 590 -77 590 -77 587.5 -50 c 128,-1,21
 585 -23 585 -23 582 0 c 1,22,-1
 532 0 l 1,23,-1
 532 1313 l 1,24,-1
 0 1313 l 1,25,-1
 0 1489 l 1,26,-1
 1262 1489 l 1,27,-1
 1262 1313 l 1,0,-1
EndSplineSet
EndChar

StartChar: tcommaaccent
Encoding: 355 355 291
Width: 807
Flags: W
LayerCount: 2
Fore
SplineSet
765 10 m 1,0,1
 753 7 753 7 739 3.5 c 128,-1,2
 725 0 725 0 709 -3 c 1,3,4
 711 -21 711 -21 713 -43 c 128,-1,5
 715 -65 715 -65 715 -89 c 0,6,7
 715 -251 715 -251 623.5 -337 c 128,-1,8
 532 -423 532 -423 386 -423 c 0,9,10
 349 -423 349 -423 291 -416 c 128,-1,11
 233 -409 233 -409 188 -397 c 1,12,-1
 188 -237 l 1,13,-1
 197 -237 l 1,14,15
 223 -247 223 -247 267 -260 c 128,-1,16
 311 -273 311 -273 361 -273 c 0,17,18
 465 -273 465 -273 514 -234 c 128,-1,19
 563 -195 563 -195 563 -107 c 0,20,21
 563 -84 563 -84 561.5 -60.5 c 128,-1,22
 560 -37 560 -37 558 -21 c 1,23,-1
 538 -21 l 2,24,25
 367 -21 367 -21 278 70.5 c 128,-1,26
 189 162 189 162 189 365 c 2,27,-1
 189 959 l 1,28,-1
 62 959 l 1,29,-1
 62 1117 l 1,30,-1
 189 1117 l 1,31,-1
 189 1438 l 1,32,-1
 377 1438 l 1,33,-1
 377 1117 l 1,34,-1
 765 1117 l 1,35,-1
 765 959 l 1,36,-1
 377 959 l 1,37,-1
 377 450 l 2,38,39
 377 362 377 362 381 312.5 c 128,-1,40
 385 263 385 263 409 220 c 0,41,42
 431 180 431 180 469.5 161.5 c 128,-1,43
 508 143 508 143 587 143 c 0,44,45
 633 143 633 143 683 156.5 c 128,-1,46
 733 170 733 170 755 179 c 1,47,-1
 765 179 l 1,48,-1
 765 10 l 1,0,1
EndSplineSet
EndChar

StartChar: tcaron
Encoding: 357 357 293
Width: 807
Flags: W
LayerCount: 2
Fore
SplineSet
765 10 m 1,0,1
 712 -4 712 -4 649.5 -13 c 128,-1,2
 587 -22 587 -22 538 -22 c 0,3,4
 367 -22 367 -22 278 70 c 128,-1,5
 189 162 189 162 189 365 c 2,6,-1
 189 959 l 1,7,-1
 62 959 l 1,8,-1
 62 1117 l 1,9,-1
 189 1117 l 1,10,-1
 189 1438 l 1,11,-1
 377 1438 l 1,12,-1
 377 1117 l 1,13,-1
 765 1117 l 1,14,-1
 765 959 l 1,15,-1
 377 959 l 1,16,-1
 377 450 l 2,17,18
 377 362 377 362 381 312.5 c 128,-1,19
 385 263 385 263 409 220 c 0,20,21
 431 180 431 180 469.5 161.5 c 128,-1,22
 508 143 508 143 587 143 c 0,23,24
 633 143 633 143 683 156.5 c 128,-1,25
 733 170 733 170 755 179 c 1,26,-1
 765 179 l 1,27,-1
 765 10 l 1,0,1
890 1797 m 1,28,-1
 640 1302 l 1,29,-1
 513 1302 l 1,30,-1
 665 1797 l 1,31,-1
 890 1797 l 1,28,-1
EndSplineSet
EndChar

StartChar: Tbar
Encoding: 358 358 294
Width: 1262
Flags: W
LayerCount: 2
Fore
SplineSet
532 740 m 1,0,-1
 200 740 l 1,1,-1
 200 883 l 1,2,-1
 532 883 l 1,3,-1
 532 1313 l 1,4,-1
 0 1313 l 1,5,-1
 0 1489 l 1,6,-1
 1262 1489 l 1,7,-1
 1262 1313 l 1,8,-1
 730 1313 l 1,9,-1
 730 883 l 1,10,-1
 1062 883 l 1,11,-1
 1062 740 l 1,12,-1
 730 740 l 1,13,-1
 730 0 l 1,14,-1
 532 0 l 1,15,-1
 532 740 l 1,0,-1
EndSplineSet
EndChar

StartChar: tbar
Encoding: 359 359 295
Width: 807
Flags: W
LayerCount: 2
Fore
SplineSet
765 10 m 1,0,1
 712 -4 712 -4 649.5 -13 c 128,-1,2
 587 -22 587 -22 538 -22 c 0,3,4
 367 -22 367 -22 278 70 c 128,-1,5
 189 162 189 162 189 365 c 2,6,-1
 189 533 l 1,7,-1
 62 533 l 1,8,-1
 62 667 l 1,9,-1
 189 667 l 1,10,-1
 189 959 l 1,11,-1
 62 959 l 1,12,-1
 62 1117 l 1,13,-1
 189 1117 l 1,14,-1
 189 1438 l 1,15,-1
 377 1438 l 1,16,-1
 377 1117 l 1,17,-1
 765 1117 l 1,18,-1
 765 959 l 1,19,-1
 377 959 l 1,20,-1
 377 667 l 1,21,-1
 678 667 l 1,22,-1
 678 533 l 1,23,-1
 377 533 l 1,24,-1
 377 450 l 2,25,26
 377 362 377 362 381 312.5 c 128,-1,27
 385 263 385 263 409 220 c 0,28,29
 431 180 431 180 469.5 161.5 c 128,-1,30
 508 143 508 143 587 143 c 0,31,32
 633 143 633 143 683 156.5 c 128,-1,33
 733 170 733 170 755 179 c 1,34,-1
 765 179 l 1,35,-1
 765 10 l 1,0,1
EndSplineSet
EndChar

StartChar: Uogonek
Encoding: 370 370 306
Width: 1499
Flags: W
LayerCount: 2
Fore
SplineSet
788 -116 m 0,0,1
 788 -90 788 -90 790.5 -70.5 c 128,-1,2
 793 -51 793 -51 798 -29 c 1,3,4
 789 -29 789 -29 776.5 -29.5 c 128,-1,5
 764 -30 764 -30 749 -30 c 0,6,7
 609 -30 609 -30 505 6.5 c 128,-1,8
 401 43 401 43 330 115 c 0,9,10
 249 197 249 197 213.5 313 c 128,-1,11
 178 429 178 429 178 598 c 2,12,-1
 178 1489 l 1,13,-1
 376 1489 l 1,14,-1
 376 588 l 2,15,16
 376 467 376 467 392.5 397 c 128,-1,17
 409 327 409 327 448 270 c 0,18,19
 492 205 492 205 567.5 172 c 128,-1,20
 643 139 643 139 749 139 c 0,21,22
 856 139 856 139 931 171.5 c 128,-1,23
 1006 204 1006 204 1051 270 c 0,24,25
 1090 327 1090 327 1106.5 400.5 c 128,-1,26
 1123 474 1123 474 1123 583 c 2,27,-1
 1123 1489 l 1,28,-1
 1321 1489 l 1,29,-1
 1321 598 l 2,30,31
 1321 436 1321 436 1285.5 315.5 c 128,-1,32
 1250 195 1250 195 1169 115 c 0,33,34
 1124 71 1124 71 1072 41.5 c 128,-1,35
 1020 12 1020 12 959 -4 c 1,36,37
 955 -24 955 -24 952.5 -54 c 128,-1,38
 950 -84 950 -84 950 -107 c 0,39,40
 950 -189 950 -189 991.5 -228 c 128,-1,41
 1033 -267 1033 -267 1123 -267 c 0,42,43
 1159 -267 1159 -267 1199.5 -253.5 c 128,-1,44
 1240 -240 1240 -240 1257 -232 c 1,45,-1
 1265 -232 l 1,46,-1
 1265 -391 l 1,47,48
 1213 -405 1213 -405 1175.5 -411 c 128,-1,49
 1138 -417 1138 -417 1096 -417 c 0,50,51
 956 -417 956 -417 872 -337.5 c 128,-1,52
 788 -258 788 -258 788 -116 c 0,0,1
EndSplineSet
EndChar

StartChar: uogonek
Encoding: 371 371 307
Width: 1291
Flags: W
LayerCount: 2
Fore
SplineSet
923 0 m 1,1,-1
 923 124 l 1,2,3
 828 49 828 49 741 9 c 128,-1,4
 654 -31 654 -31 549 -31 c 0,5,6
 373 -31 373 -31 275 76.5 c 128,-1,7
 177 184 177 184 177 392 c 2,8,-1
 177 1117 l 1,9,-1
 365 1117 l 1,10,-1
 365 481 l 2,11,12
 365 396 365 396 373 335.5 c 128,-1,13
 381 275 381 275 407 232 c 0,14,15
 434 188 434 188 477 168 c 128,-1,16
 520 148 520 148 602 148 c 0,17,18
 675 148 675 148 761.5 186 c 128,-1,19
 848 224 848 224 923 283 c 1,20,-1
 923 1117 l 1,21,-1
 1111 1117 l 1,22,-1
 1111 0 l 1,23,-1
 1081 0 l 1,24,25
 1075 -27 1075 -27 1071.5 -53.5 c 128,-1,26
 1068 -80 1068 -80 1068 -107 c 0,27,28
 1068 -189 1068 -189 1109.5 -228 c 128,-1,29
 1151 -267 1151 -267 1241 -267 c 0,30,31
 1277 -267 1277 -267 1317.5 -253.5 c 128,-1,32
 1358 -240 1358 -240 1375 -232 c 1,33,-1
 1383 -232 l 1,34,-1
 1383 -391 l 1,35,36
 1331 -405 1331 -405 1293.5 -411 c 128,-1,37
 1256 -417 1256 -417 1214 -417 c 0,38,39
 1074 -417 1074 -417 990 -337 c 128,-1,40
 906 -257 906 -257 906 -116 c 0,41,42
 906 -80 906 -80 911.5 -54.5 c 128,-1,0
 917 -29 917 -29 923 0 c 1,1,-1
EndSplineSet
EndChar

StartChar: longs
Encoding: 383 383 319
Width: 615
Flags: W
LayerCount: 2
Fore
SplineSet
776 1374 m 1,0,-1
 766 1374 l 1,1,2
 735 1383 735 1383 685 1392.5 c 128,-1,3
 635 1402 635 1402 597 1402 c 0,4,5
 476 1402 476 1402 424.5 1348.5 c 128,-1,6
 373 1295 373 1295 373 1155 c 2,7,-1
 373 0 l 1,8,-1
 185 0 l 1,9,-1
 185 1154 l 2,10,11
 185 1348 185 1348 282 1457 c 128,-1,12
 379 1566 379 1566 570 1566 c 0,13,14
 633 1566 633 1566 683.5 1560 c 128,-1,15
 734 1554 734 1554 776 1546 c 1,16,-1
 776 1374 l 1,0,-1
EndSplineSet
EndChar

StartChar: uni018F
Encoding: 399 399 320
Width: 1546
Flags: W
LayerCount: 2
Fore
SplineSet
1432 744 m 0,0,1
 1432 405 1432 405 1275 199 c 0,2,3
 1101 -31 1101 -31 773 -31 c 0,4,5
 469 -31 469 -31 293 172 c 0,6,7
 178 305 178 305 139 513 c 0,8,9
 115 644 115 644 115 892 c 1,10,-1
 1217 892 l 1,11,12
 1193 1083 1193 1083 1077 1207 c 0,13,14
 949 1344 949 1344 753 1344 c 0,15,16
 470 1344 470 1344 288 1204 c 1,17,-1
 271 1204 l 1,18,-1
 271 1424 l 1,19,20
 490 1516 490 1516 751 1516 c 0,21,22
 1091 1516 1091 1516 1268 1298 c 0,23,24
 1432 1096 1432 1096 1432 744 c 0,0,1
1226 713 m 1,25,-1
 321 713 l 1,26,27
 327 471 327 471 427 320 c 0,28,29
 546 140 546 140 774 140 c 0,30,31
 1003 140 1003 140 1121 320 c 0,32,33
 1220 470 1220 470 1226 713 c 1,25,-1
EndSplineSet
EndChar

StartChar: florin
Encoding: 402 402 321
Width: 1302
Flags: W
LayerCount: 2
Fore
SplineSet
1280 1321 m 1,0,-1
 1270 1321 l 1,1,2
 1241 1331 1241 1331 1184 1344 c 128,-1,3
 1127 1357 1127 1357 1086 1357 c 0,4,5
 965 1357 965 1357 902 1297.5 c 128,-1,6
 839 1238 839 1238 804 1078 c 2,7,-1
 762 884 l 1,8,-1
 1083 884 l 1,9,-1
 1083 746 l 1,10,-1
 734 746 l 1,11,-1
 631 256 l 2,12,13
 602 122 602 122 556 34 c 128,-1,14
 510 -54 510 -54 446 -106 c 0,15,16
 381 -159 381 -159 305 -180 c 128,-1,17
 229 -201 229 -201 137 -201 c 0,18,19
 96 -201 96 -201 56 -197.5 c 128,-1,20
 16 -194 16 -194 -36 -185 c 1,21,-1
 -36 -5 l 1,22,-1
 -26 -5 l 1,23,24
 7 -19 7 -19 54 -29 c 128,-1,25
 101 -39 101 -39 145 -39 c 0,26,27
 272 -39 272 -39 336.5 25 c 128,-1,28
 401 89 401 89 436 256 c 2,29,-1
 539 746 l 1,30,-1
 322 746 l 1,31,-1
 322 884 l 1,32,-1
 567 884 l 1,33,-1
 609 1082 l 2,34,35
 635 1205 635 1205 681 1289 c 128,-1,36
 727 1373 727 1373 789 1424 c 256,37,38
 851 1475 851 1475 927.5 1497 c 128,-1,39
 1004 1519 1004 1519 1091 1519 c 0,40,41
 1149 1519 1149 1519 1188.5 1514 c 128,-1,42
 1228 1509 1228 1509 1280 1501 c 1,43,-1
 1280 1321 l 1,0,-1
EndSplineSet
EndChar

StartChar: Ohorn
Encoding: 416 416 322
Width: 1652
Flags: W
LayerCount: 2
Fore
SplineSet
1441 1097 m 1,0,1
 1472 1009 1472 1009 1485 926 c 128,-1,2
 1498 843 1498 843 1498 744 c 0,3,4
 1498 560 1498 560 1448.5 414.5 c 128,-1,5
 1399 269 1399 269 1310 172 c 0,6,7
 1218 71 1218 71 1092.5 20 c 128,-1,8
 967 -31 967 -31 806 -31 c 0,9,10
 649 -31 649 -31 520.5 21 c 128,-1,11
 392 73 392 73 302 172 c 256,12,13
 212 271 212 271 163.5 415 c 128,-1,14
 115 559 115 559 115 744 c 0,15,16
 115 926 115 926 163 1070.5 c 128,-1,17
 211 1215 211 1215 303 1318 c 0,18,19
 391 1416 391 1416 521.5 1468 c 128,-1,20
 652 1520 652 1520 806 1520 c 0,21,22
 966 1520 966 1520 1093.5 1467.5 c 128,-1,23
 1221 1415 1221 1415 1310 1318 c 0,24,25
 1334 1291 1334 1291 1346.5 1274.5 c 128,-1,26
 1359 1258 1359 1258 1379 1225 c 1,27,28
 1458 1229 1458 1229 1491.5 1261 c 128,-1,29
 1525 1293 1525 1293 1525 1361 c 0,30,31
 1525 1397 1525 1397 1514 1442.5 c 128,-1,32
 1503 1488 1503 1488 1491 1511 c 1,33,-1
 1491 1520 l 1,34,-1
 1651 1520 l 1,35,36
 1664 1473 1664 1473 1669.5 1438 c 128,-1,37
 1675 1403 1675 1403 1675 1353 c 0,38,39
 1675 1245 1675 1245 1615 1180 c 128,-1,40
 1555 1115 1555 1115 1441 1097 c 1,0,1
1292 744 m 0,41,42
 1292 1034 1292 1034 1162 1191.5 c 128,-1,43
 1032 1349 1032 1349 807 1349 c 0,44,45
 580 1349 580 1349 450.5 1191.5 c 128,-1,46
 321 1034 321 1034 321 744 c 0,47,48
 321 451 321 451 453 295.5 c 128,-1,49
 585 140 585 140 807 140 c 256,50,51
 1029 140 1029 140 1160.5 295.5 c 128,-1,52
 1292 451 1292 451 1292 744 c 0,41,42
EndSplineSet
EndChar

StartChar: ohorn
Encoding: 417 417 323
Width: 1243
Flags: W
LayerCount: 2
Fore
SplineSet
1137 558 m 0,0,1
 1137 285 1137 285 997 127 c 128,-1,2
 857 -31 857 -31 622 -31 c 0,3,4
 385 -31 385 -31 245.5 127 c 128,-1,5
 106 285 106 285 106 558 c 256,6,7
 106 831 106 831 245.5 989.5 c 128,-1,8
 385 1148 385 1148 622 1148 c 0,9,10
 673 1148 673 1148 721 1140.5 c 128,-1,11
 769 1133 769 1133 812 1117 c 1,12,-1
 905 1117 l 2,13,14
 995 1117 995 1117 1032 1149.5 c 128,-1,15
 1069 1182 1069 1182 1069 1253 c 0,16,17
 1069 1289 1069 1289 1058 1334.5 c 128,-1,18
 1047 1380 1047 1380 1035 1403 c 1,19,-1
 1035 1412 l 1,20,-1
 1195 1412 l 1,21,22
 1208 1365 1208 1365 1213.5 1330 c 128,-1,23
 1219 1295 1219 1295 1219 1245 c 0,24,25
 1219 1139 1219 1139 1161.5 1075 c 128,-1,26
 1104 1011 1104 1011 996 991 c 1,27,28
 1065 914 1065 914 1101 805.5 c 128,-1,29
 1137 697 1137 697 1137 558 c 0,0,1
943 558 m 0,30,31
 943 775 943 775 858 880.5 c 128,-1,32
 773 986 773 986 622 986 c 0,33,34
 469 986 469 986 384.5 880.5 c 128,-1,35
 300 775 300 775 300 558 c 0,36,37
 300 348 300 348 385 239.5 c 128,-1,38
 470 131 470 131 622 131 c 0,39,40
 772 131 772 131 857.5 238.5 c 128,-1,41
 943 346 943 346 943 558 c 0,30,31
EndSplineSet
EndChar

StartChar: Uhorn
Encoding: 431 431 324
Width: 1549
Flags: W
LayerCount: 2
Fore
SplineSet
1321 598 m 2,0,1
 1321 436 1321 436 1285.5 315.5 c 128,-1,2
 1250 195 1250 195 1169 115 c 0,3,4
 1092 39 1092 39 989 4 c 128,-1,5
 886 -31 886 -31 749 -31 c 0,6,7
 609 -31 609 -31 505 6 c 128,-1,8
 401 43 401 43 330 115 c 0,9,10
 249 197 249 197 213.5 313 c 128,-1,11
 178 429 178 429 178 598 c 2,12,-1
 178 1489 l 1,13,-1
 376 1489 l 1,14,-1
 376 588 l 2,15,16
 376 467 376 467 392.5 397 c 128,-1,17
 409 327 409 327 448 270 c 0,18,19
 492 205 492 205 567.5 172 c 128,-1,20
 643 139 643 139 749 139 c 0,21,22
 856 139 856 139 931 171.5 c 128,-1,23
 1006 204 1006 204 1051 270 c 0,24,25
 1090 327 1090 327 1106.5 400.5 c 128,-1,26
 1123 474 1123 474 1123 583 c 2,27,-1
 1123 1489 l 1,28,-1
 1339 1489 l 2,29,30
 1429 1489 1429 1489 1466 1521.5 c 128,-1,31
 1503 1554 1503 1554 1503 1625 c 0,32,33
 1503 1661 1503 1661 1492 1706.5 c 128,-1,34
 1481 1752 1481 1752 1469 1775 c 1,35,-1
 1469 1784 l 1,36,-1
 1629 1784 l 1,37,38
 1642 1737 1642 1737 1647.5 1702 c 128,-1,39
 1653 1667 1653 1667 1653 1617 c 0,40,41
 1653 1486 1653 1486 1567 1420 c 128,-1,42
 1481 1354 1481 1354 1321 1354 c 1,43,-1
 1321 598 l 2,0,1
EndSplineSet
EndChar

StartChar: uhorn
Encoding: 432 432 325
Width: 1351
Flags: W
LayerCount: 2
Fore
SplineSet
1111 0 m 1,0,-1
 923 0 l 1,1,-1
 923 124 l 1,2,3
 828 49 828 49 741 9 c 128,-1,4
 654 -31 654 -31 549 -31 c 0,5,6
 373 -31 373 -31 275 76.5 c 128,-1,7
 177 184 177 184 177 392 c 2,8,-1
 177 1117 l 1,9,-1
 365 1117 l 1,10,-1
 365 481 l 2,11,12
 365 396 365 396 373 335.5 c 128,-1,13
 381 275 381 275 407 232 c 0,14,15
 434 188 434 188 477 168 c 128,-1,16
 520 148 520 148 602 148 c 0,17,18
 675 148 675 148 761.5 186 c 128,-1,19
 848 224 848 224 923 283 c 1,20,-1
 923 1117 l 1,21,-1
 1131 1117 l 2,22,23
 1221 1117 1221 1117 1258 1149.5 c 128,-1,24
 1295 1182 1295 1182 1295 1253 c 0,25,26
 1295 1289 1295 1289 1284 1334.5 c 128,-1,27
 1273 1380 1273 1380 1261 1403 c 1,28,-1
 1261 1412 l 1,29,-1
 1421 1412 l 1,30,31
 1434 1365 1434 1365 1439.5 1330 c 128,-1,32
 1445 1295 1445 1295 1445 1245 c 0,33,34
 1445 1114 1445 1114 1359 1048 c 128,-1,35
 1273 982 1273 982 1113 982 c 2,36,-1
 1111 982 l 1,37,-1
 1111 0 l 1,0,-1
EndSplineSet
EndChar

StartChar: Aringacute
Encoding: 506 506 326
Width: 1400
Flags: W
LayerCount: 2
Fore
SplineSet
1374 0 m 1,0,-1
 1163 0 l 1,1,-1
 1015 415 l 1,2,-1
 375 415 l 1,3,-1
 227 0 l 1,4,-1
 26 0 l 1,5,-1
 530 1367 l 1,6,7
 481 1398 481 1398 452.5 1448.5 c 128,-1,8
 424 1499 424 1499 424 1563 c 0,9,10
 424 1672 424 1672 504.5 1744 c 128,-1,11
 585 1816 585 1816 700 1816 c 256,12,13
 815 1816 815 1816 895 1744 c 128,-1,14
 975 1672 975 1672 975 1563 c 0,15,16
 975 1499 975 1499 946.5 1448.5 c 128,-1,17
 918 1398 918 1398 870 1367 c 1,18,-1
 1374 0 l 1,0,-1
828 1563 m 0,19,20
 828 1617 828 1617 792.5 1654.5 c 128,-1,21
 757 1692 757 1692 700 1692 c 256,22,23
 643 1692 643 1692 607 1655 c 128,-1,24
 571 1618 571 1618 571 1563 c 0,25,26
 571 1506 571 1506 607.5 1468.5 c 128,-1,27
 644 1431 644 1431 700 1431 c 256,28,29
 756 1431 756 1431 792 1469 c 128,-1,30
 828 1507 828 1507 828 1563 c 0,19,20
953 585 m 1,31,-1
 695 1300 l 1,32,-1
 436 585 l 1,33,-1
 953 585 l 1,31,-1
977 2048 m 1,34,-1
 734 1843 l 1,35,-1
 585 1843 l 1,36,-1
 734 2048 l 1,37,-1
 977 2048 l 1,34,-1
EndSplineSet
EndChar

StartChar: aringacute
Encoding: 507 507 327
Width: 1230
Flags: W
LayerCount: 2
Fore
SplineSet
1053 0 m 1,0,-1
 866 0 l 1,1,-1
 866 119 l 1,2,3
 841 102 841 102 798.5 71.5 c 128,-1,4
 756 41 756 41 716 23 c 0,5,6
 669 0 669 0 608 -15.5 c 128,-1,7
 547 -31 547 -31 465 -31 c 0,8,9
 314 -31 314 -31 209 69 c 128,-1,10
 104 169 104 169 104 324 c 0,11,12
 104 451 104 451 158.5 529.5 c 128,-1,13
 213 608 213 608 314 653 c 0,14,15
 416 698 416 698 559 714 c 128,-1,16
 702 730 702 730 866 738 c 1,17,-1
 866 767 l 2,18,19
 866 832 866 832 843 875 c 128,-1,20
 820 918 820 918 779 941 c 0,21,22
 738 965 738 965 683.5 973.5 c 128,-1,23
 629 982 629 982 566 982 c 0,24,25
 508 982 508 982 455.5 972 c 128,-1,26
 403 962 403 962 361 951 c 0,27,28
 312 938 312 938 272 923.5 c 128,-1,29
 232 909 232 909 213 902 c 1,30,-1
 203 902 l 1,31,-1
 203 1093 l 1,32,33
 238 1102 238 1102 290.5 1112 c 128,-1,34
 343 1122 343 1122 392 1130 c 1,35,36
 364 1160 364 1160 345.5 1201.5 c 128,-1,37
 327 1243 327 1243 327 1289 c 0,38,39
 327 1398 327 1398 406.5 1470 c 128,-1,40
 486 1542 486 1542 601 1542 c 256,41,42
 716 1542 716 1542 795 1470 c 128,-1,43
 874 1398 874 1398 874 1289 c 0,44,45
 874 1238 874 1238 851 1192.5 c 128,-1,46
 828 1147 828 1147 793 1116 c 1,47,48
 918 1082 918 1082 985.5 997 c 128,-1,49
 1053 912 1053 912 1053 758 c 2,50,-1
 1053 0 l 1,0,-1
866 275 m 1,51,-1
 866 586 l 1,52,53
 780 581 780 581 663.5 571 c 128,-1,54
 547 561 547 561 479 542 c 0,55,56
 398 519 398 519 348 470.5 c 128,-1,57
 298 422 298 422 298 337 c 0,58,59
 298 241 298 241 356 192.5 c 128,-1,60
 414 144 414 144 533 144 c 0,61,62
 632 144 632 144 714 182.5 c 128,-1,63
 796 221 796 221 866 275 c 1,51,-1
729 1289 m 0,64,65
 729 1343 729 1343 693.5 1380.5 c 128,-1,66
 658 1418 658 1418 601 1418 c 256,67,68
 544 1418 544 1418 508 1381 c 128,-1,69
 472 1344 472 1344 472 1289 c 0,70,71
 472 1232 472 1232 508.5 1194 c 128,-1,72
 545 1156 545 1156 601 1156 c 256,73,74
 657 1156 657 1156 693 1194.5 c 128,-1,75
 729 1233 729 1233 729 1289 c 0,64,65
878 1843 m 1,76,-1
 635 1569 l 1,77,-1
 486 1569 l 1,78,-1
 635 1843 l 1,79,-1
 878 1843 l 1,76,-1
EndSplineSet
EndChar

StartChar: uni0259
Encoding: 601 601 336
Width: 1220
Flags: W
LayerCount: 2
Fore
SplineSet
1120 570 m 0,0,1
 1120 308 1120 308 981 146 c 0,2,3
 834 -26 834 -26 577 -26 c 0,4,5
 345 -26 345 -26 222 113 c 0,6,7
 106 245 106 245 106 481 c 2,8,-1
 106 583 l 1,9,-1
 929 583 l 1,10,11
 929 782 929 782 813 888 c 0,12,13
 708 984 708 984 532 984 c 0,14,15
 438 984 438 984 324 947 c 0,16,17
 203 907 203 907 138 849 c 1,18,-1
 128 849 l 1,19,-1
 128 1054 l 1,20,21
 351 1148 351 1148 530 1148 c 0,22,23
 809 1148 809 1148 964.5 998 c 128,-1,24
 1120 848 1120 848 1120 570 c 0,0,1
929 439 m 1,25,-1
 289 439 l 1,26,27
 291 129 291 129 587 129 c 0,28,29
 730 129 730 129 823 213 c 128,-1,30
 916 297 916 297 929 439 c 1,25,-1
EndSplineSet
EndChar

StartChar: circumflex
Encoding: 710 710 337
Width: 1302
Flags: W
LayerCount: 2
Fore
SplineSet
993 1297 m 1,0,-1
 834 1297 l 1,1,-1
 649 1553 l 1,2,-1
 465 1297 l 1,3,-1
 310 1297 l 1,4,-1
 538 1676 l 1,5,-1
 765 1676 l 1,6,-1
 993 1297 l 1,0,-1
EndSplineSet
EndChar

StartChar: caron
Encoding: 711 711 338
Width: 1302
Flags: W
LayerCount: 2
Fore
SplineSet
989 1676 m 1,0,-1
 761 1297 l 1,1,-1
 534 1297 l 1,2,-1
 306 1676 l 1,3,-1
 465 1676 l 1,4,-1
 650 1420 l 1,5,-1
 834 1676 l 1,6,-1
 989 1676 l 1,0,-1
EndSplineSet
EndChar

StartChar: uni02C9
Encoding: 713 713 339
Width: 1302
Flags: W
LayerCount: 2
Fore
SplineSet
1022 1335 m 1,0,-1
 280 1335 l 1,1,-1
 280 1489 l 1,2,-1
 1022 1489 l 1,3,-1
 1022 1335 l 1,0,-1
EndSplineSet
EndChar

StartChar: breve
Encoding: 728 728 340
Width: 1302
Flags: W
LayerCount: 2
Fore
SplineSet
1026 1676 m 1,0,1
 1016 1508 1016 1508 917.5 1401 c 128,-1,2
 819 1294 819 1294 650 1294 c 256,3,4
 481 1294 481 1294 382.5 1401 c 128,-1,5
 284 1508 284 1508 275 1676 c 1,6,-1
 441 1676 l 1,7,8
 453 1544 453 1544 506.5 1484 c 128,-1,9
 560 1424 560 1424 651 1424 c 0,10,11
 740 1424 740 1424 793.5 1484 c 128,-1,12
 847 1544 847 1544 861 1676 c 1,13,-1
 1026 1676 l 1,0,1
EndSplineSet
EndChar

StartChar: dotaccent
Encoding: 729 729 341
Width: 1302
Flags: W
LayerCount: 2
Fore
SplineSet
757 1304 m 1,0,-1
 545 1304 l 1,1,-1
 545 1499 l 1,2,-1
 757 1499 l 1,3,-1
 757 1304 l 1,0,-1
EndSplineSet
EndChar

StartChar: ring
Encoding: 730 730 342
Width: 1302
Flags: W
LayerCount: 2
Fore
SplineSet
1001 1630 m 256,0,1
 1001 1487 1001 1487 899 1388 c 128,-1,2
 797 1289 797 1289 651 1289 c 0,3,4
 507 1289 507 1289 404 1387.5 c 128,-1,5
 301 1486 301 1486 301 1630 c 0,6,7
 301 1773 301 1773 403 1871 c 128,-1,8
 505 1969 505 1969 651 1969 c 0,9,10
 798 1969 798 1969 899.5 1871 c 128,-1,11
 1001 1773 1001 1773 1001 1630 c 256,0,1
856 1630 m 0,12,13
 856 1716 856 1716 797.5 1775.5 c 128,-1,14
 739 1835 739 1835 651 1835 c 256,15,16
 563 1835 563 1835 504.5 1776 c 128,-1,17
 446 1717 446 1717 446 1630 c 256,18,19
 446 1543 446 1543 505 1484 c 128,-1,20
 564 1425 564 1425 651 1425 c 0,21,22
 739 1425 739 1425 797.5 1484 c 128,-1,23
 856 1543 856 1543 856 1630 c 0,12,13
EndSplineSet
EndChar

StartChar: ogonek
Encoding: 731 731 343
Width: 1302
Flags: W
LayerCount: 2
Fore
SplineSet
892 -391 m 1,0,1
 840 -405 840 -405 802.5 -411 c 128,-1,2
 765 -417 765 -417 723 -417 c 0,3,4
 584 -417 584 -417 499.5 -338 c 128,-1,5
 415 -259 415 -259 415 -116 c 0,6,7
 415 -78 415 -78 421.5 -47 c 128,-1,8
 428 -16 428 -16 434 10 c 1,9,-1
 589 10 l 1,10,11
 583 -17 583 -17 580 -47 c 128,-1,12
 577 -77 577 -77 577 -107 c 0,13,14
 577 -189 577 -189 618.5 -228 c 128,-1,15
 660 -267 660 -267 750 -267 c 0,16,17
 786 -267 786 -267 826.5 -253.5 c 128,-1,18
 867 -240 867 -240 884 -232 c 1,19,-1
 892 -232 l 1,20,-1
 892 -391 l 1,0,1
EndSplineSet
EndChar

StartChar: tilde
Encoding: 732 732 344
Width: 1302
Flags: W
LayerCount: 2
Fore
SplineSet
1068 1619 m 1,0,1
 1057 1467 1057 1467 991 1390 c 128,-1,2
 925 1313 925 1313 814 1313 c 0,3,4
 760 1313 760 1313 714 1332.5 c 128,-1,5
 668 1352 668 1352 627 1389 c 0,6,7
 580 1432 580 1432 547.5 1453.5 c 128,-1,8
 515 1475 515 1475 476 1475 c 0,9,10
 424 1475 424 1475 398 1430 c 128,-1,11
 372 1385 372 1385 368 1309 c 1,12,-1
 237 1309 l 1,13,14
 245 1460 245 1460 316 1537 c 128,-1,15
 387 1614 387 1614 490 1614 c 0,16,17
 540 1614 540 1614 586.5 1594.5 c 128,-1,18
 633 1575 633 1575 675 1539 c 0,19,20
 722 1498 722 1498 758.5 1477.5 c 128,-1,21
 795 1457 795 1457 828 1457 c 0,22,23
 879 1457 879 1457 907.5 1503 c 128,-1,24
 936 1549 936 1549 939 1619 c 1,25,-1
 1068 1619 l 1,0,1
EndSplineSet
EndChar

StartChar: hungarumlaut
Encoding: 733 733 345
Width: 1302
Flags: W
LayerCount: 2
Fore
SplineSet
1143 1676 m 1,0,-1
 885 1302 l 1,1,-1
 746 1302 l 1,2,-1
 915 1676 l 1,3,-1
 1143 1676 l 1,0,-1
739 1676 m 1,4,-1
 481 1302 l 1,5,-1
 342 1302 l 1,6,-1
 511 1676 l 1,7,-1
 739 1676 l 1,4,-1
EndSplineSet
EndChar

StartChar: hookabovecomb
Encoding: 777 777 349
Width: 0
Flags: W
LayerCount: 2
Fore
SplineSet
-387 1528 m 0,0,1
 -387 1464 -387 1464 -420 1425 c 128,-1,2
 -453 1386 -453 1386 -519 1365 c 1,3,-1
 -519 1297 l 1,4,-1
 -629 1297 l 1,5,-1
 -629 1418 l 1,6,7
 -582 1430 -582 1430 -558 1449.5 c 128,-1,8
 -534 1469 -534 1469 -534 1508 c 0,9,10
 -534 1532 -534 1532 -553 1551.5 c 128,-1,11
 -572 1571 -572 1571 -605 1571 c 0,12,13
 -636 1571 -636 1571 -654.5 1566.5 c 128,-1,14
 -673 1562 -673 1562 -697 1553 c 1,15,-1
 -700 1553 l 1,16,-1
 -700 1658 l 1,17,18
 -681 1664 -681 1664 -644.5 1670 c 128,-1,19
 -608 1676 -608 1676 -570 1676 c 0,20,21
 -489 1676 -489 1676 -438 1633 c 128,-1,22
 -387 1590 -387 1590 -387 1528 c 0,0,1
EndSplineSet
EndChar

StartChar: dotbelowcomb
Encoding: 803 803 350
Width: 0
Flags: W
LayerCount: 2
Fore
SplineSet
-533 -382 m 1,0,-1
 -745 -382 l 1,1,-1
 -745 -187 l 1,2,-1
 -533 -187 l 1,3,-1
 -533 -382 l 1,0,-1
EndSplineSet
EndChar

StartChar: tonos
Encoding: 900 900 351
Width: 1302
Flags: W
LayerCount: 2
Fore
SplineSet
773 1676 m 1,0,-1
 724 1292 l 1,1,-1
 579 1292 l 1,2,-1
 530 1676 l 1,3,-1
 773 1676 l 1,0,-1
EndSplineSet
EndChar

StartChar: dieresistonos
Encoding: 901 901 352
Width: 1302
Flags: W
LayerCount: 2
Fore
SplineSet
765 1676 m 1,0,-1
 716 1292 l 1,1,-1
 588 1292 l 1,2,-1
 539 1676 l 1,3,-1
 765 1676 l 1,0,-1
1048 1304 m 1,4,-1
 857 1304 l 1,5,-1
 857 1499 l 1,6,-1
 1048 1499 l 1,7,-1
 1048 1304 l 1,4,-1
447 1304 m 1,8,-1
 256 1304 l 1,9,-1
 256 1499 l 1,10,-1
 447 1499 l 1,11,-1
 447 1304 l 1,8,-1
EndSplineSet
EndChar

StartChar: anoteleia
Encoding: 903 903 354
Width: 930
Flags: W
LayerCount: 2
Fore
SplineSet
585 832 m 1,0,-1
 346 832 l 1,1,-1
 346 1117 l 1,2,-1
 585 1117 l 1,3,-1
 585 832 l 1,0,-1
EndSplineSet
EndChar

StartChar: iotadieresistonos
Encoding: 912 912 361
Width: 562
Flags: W
LayerCount: 2
Fore
SplineSet
375 0 m 1,0,-1
 187 0 l 1,1,-1
 187 1117 l 1,2,-1
 375 1117 l 1,3,-1
 375 0 l 1,0,-1
379 1676 m 1,4,-1
 323 1292 l 1,5,-1
 239 1292 l 1,6,-1
 183 1676 l 1,7,-1
 379 1676 l 1,4,-1
615 1304 m 1,8,-1
 444 1304 l 1,9,-1
 444 1499 l 1,10,-1
 615 1499 l 1,11,-1
 615 1304 l 1,8,-1
118 1304 m 1,12,-1
 -53 1304 l 1,13,-1
 -53 1499 l 1,14,-1
 118 1499 l 1,15,-1
 118 1304 l 1,12,-1
EndSplineSet
EndChar

StartChar: Gamma
Encoding: 915 915 364
Width: 1160
Flags: W
LayerCount: 2
Fore
SplineSet
1162 1313 m 1,0,-1
 398 1313 l 1,1,-1
 398 0 l 1,2,-1
 200 0 l 1,3,-1
 200 1489 l 1,4,-1
 1162 1489 l 1,5,-1
 1162 1313 l 1,0,-1
EndSplineSet
EndChar

StartChar: uni0394
Encoding: 916 916 365
Width: 1440
Flags: W
LayerCount: 2
Fore
SplineSet
1414 0 m 1,0,-1
 26 0 l 1,1,-1
 588 1489 l 1,2,-1
 852 1489 l 1,3,-1
 1414 0 l 1,0,-1
1147 168 m 1,4,-1
 715 1315 l 1,5,-1
 284 168 l 1,6,-1
 1147 168 l 1,4,-1
EndSplineSet
EndChar

StartChar: Theta
Encoding: 920 920 369
Width: 1612
Flags: W
LayerCount: 2
Fore
SplineSet
1310 1318 m 0,0,1
 1401 1218 1401 1218 1449.5 1073 c 128,-1,2
 1498 928 1498 928 1498 744 c 256,3,4
 1498 560 1498 560 1448.5 414.5 c 128,-1,5
 1399 269 1399 269 1310 172 c 0,6,7
 1218 71 1218 71 1092.5 20 c 128,-1,8
 967 -31 967 -31 806 -31 c 0,9,10
 649 -31 649 -31 520.5 21 c 128,-1,11
 392 73 392 73 302 172 c 256,12,13
 212 271 212 271 163.5 415 c 128,-1,14
 115 559 115 559 115 744 c 0,15,16
 115 926 115 926 163 1070.5 c 128,-1,17
 211 1215 211 1215 303 1318 c 0,18,19
 391 1416 391 1416 521.5 1468 c 128,-1,20
 652 1520 652 1520 806 1520 c 0,21,22
 966 1520 966 1520 1093.5 1467.5 c 128,-1,23
 1221 1415 1221 1415 1310 1318 c 0,0,1
1292 744 m 0,24,25
 1292 1034 1292 1034 1162 1191.5 c 128,-1,26
 1032 1349 1032 1349 807 1349 c 0,27,28
 580 1349 580 1349 450.5 1191.5 c 128,-1,29
 321 1034 321 1034 321 744 c 0,30,31
 321 451 321 451 453 295.5 c 128,-1,32
 585 140 585 140 807 140 c 256,33,34
 1029 140 1029 140 1160.5 295.5 c 128,-1,35
 1292 451 1292 451 1292 744 c 0,24,25
1120 713 m 1,36,-1
 493 713 l 1,37,-1
 493 892 l 1,38,-1
 1120 892 l 1,39,-1
 1120 713 l 1,36,-1
EndSplineSet
EndChar

StartChar: Lambda
Encoding: 923 923 372
Width: 1404
Flags: W
LayerCount: 2
Fore
SplineSet
1378 0 m 1,0,-1
 1165 0 l 1,1,-1
 697 1285 l 1,2,-1
 229 0 l 1,3,-1
 26 0 l 1,4,-1
 582 1489 l 1,5,-1
 822 1489 l 1,6,-1
 1378 0 l 1,0,-1
EndSplineSet
EndChar

StartChar: Xi
Encoding: 926 926 375
Width: 1329
Flags: W
LayerCount: 2
Fore
SplineSet
1215 1313 m 1,0,-1
 114 1313 l 1,1,-1
 114 1489 l 1,2,-1
 1215 1489 l 1,3,-1
 1215 1313 l 1,0,-1
1163 729 m 1,4,-1
 166 729 l 1,5,-1
 166 905 l 1,6,-1
 1163 905 l 1,7,-1
 1163 729 l 1,4,-1
1215 0 m 1,8,-1
 114 0 l 1,9,-1
 114 176 l 1,10,-1
 1215 176 l 1,11,-1
 1215 0 l 1,8,-1
EndSplineSet
EndChar

StartChar: Pi
Encoding: 928 928 377
Width: 1539
Flags: W
LayerCount: 2
Fore
SplineSet
1339 0 m 1,0,-1
 1141 0 l 1,1,-1
 1141 1313 l 1,2,-1
 398 1313 l 1,3,-1
 398 0 l 1,4,-1
 200 0 l 1,5,-1
 200 1489 l 1,6,-1
 1339 1489 l 1,7,-1
 1339 0 l 1,0,-1
EndSplineSet
EndChar

StartChar: Sigma
Encoding: 931 931 379
Width: 1377
Flags: W
LayerCount: 2
Fore
SplineSet
1280 0 m 1,0,-1
 118 0 l 1,1,-1
 118 184 l 1,2,-1
 738 784 l 1,3,-1
 138 1310 l 1,4,-1
 138 1489 l 1,5,-1
 1234 1489 l 1,6,-1
 1234 1313 l 1,7,-1
 402 1313 l 1,8,-1
 988 807 l 1,9,-1
 988 781 l 1,10,-1
 358 176 l 1,11,-1
 1280 176 l 1,12,-1
 1280 0 l 1,0,-1
EndSplineSet
EndChar

StartChar: Phi
Encoding: 934 934 382
Width: 1677
Flags: W
LayerCount: 2
Fore
SplineSet
1572 755 m 0,0,1
 1572 615 1572 615 1527.5 506.5 c 128,-1,2
 1483 398 1483 398 1404 325 c 0,3,4
 1319 246 1319 246 1197 199.5 c 128,-1,5
 1075 153 1075 153 937 150 c 1,6,-1
 937 -16 l 1,7,-1
 740 -16 l 1,8,-1
 740 150 l 1,9,10
 606 153 606 153 483 198 c 128,-1,11
 360 243 360 243 273 325 c 0,12,13
 194 399 194 399 149.5 507 c 128,-1,14
 105 615 105 615 105 755 c 0,15,16
 105 891 105 891 148 993 c 128,-1,17
 191 1095 191 1095 267 1171 c 0,18,19
 348 1252 348 1252 469.5 1299 c 128,-1,20
 591 1346 591 1346 740 1350 c 1,21,-1
 740 1505 l 1,22,-1
 937 1505 l 1,23,-1
 937 1350 l 1,24,25
 1085 1347 1085 1347 1208 1298 c 128,-1,26
 1331 1249 1331 1249 1410 1171 c 0,27,28
 1485 1098 1485 1098 1528.5 994 c 128,-1,29
 1572 890 1572 890 1572 755 c 0,0,1
1366 763 m 0,30,31
 1366 862 1366 862 1334 945 c 128,-1,32
 1302 1028 1302 1028 1243 1085 c 0,33,34
 1185 1141 1185 1141 1114 1167 c 128,-1,35
 1043 1193 1043 1193 937 1195 c 1,36,-1
 937 305 l 1,37,38
 1031 307 1031 307 1108 335.5 c 128,-1,39
 1185 364 1185 364 1235 411 c 0,40,41
 1300 471 1300 471 1333 558 c 128,-1,42
 1366 645 1366 645 1366 763 c 0,30,31
740 305 m 1,43,-1
 740 1195 l 1,44,45
 634 1194 634 1194 563 1167 c 128,-1,46
 492 1140 492 1140 434 1085 c 256,47,48
 376 1030 376 1030 343.5 945 c 128,-1,49
 311 860 311 860 311 763 c 0,50,51
 311 651 311 651 344.5 560 c 128,-1,52
 378 469 378 469 442 411 c 0,53,54
 491 366 491 366 568.5 336 c 128,-1,55
 646 306 646 306 740 305 c 1,43,-1
EndSplineSet
EndChar

StartChar: Psi
Encoding: 936 936 384
Width: 1783
Flags: W
LayerCount: 2
Fore
SplineSet
1604 910 m 2,0,1
 1604 753 1604 753 1563.5 645.5 c 128,-1,2
 1523 538 1523 538 1446 471 c 0,3,4
 1366 402 1366 402 1253.5 367 c 128,-1,5
 1141 332 1141 332 990 322 c 1,6,-1
 990 0 l 1,7,-1
 793 0 l 1,8,-1
 793 322 l 1,9,10
 639 333 639 333 526 369 c 128,-1,11
 413 405 413 405 338 471 c 0,12,13
 260 540 260 540 219.5 647 c 128,-1,14
 179 754 179 754 179 910 c 2,15,-1
 179 1489 l 1,16,-1
 377 1489 l 1,17,-1
 377 887 l 2,18,19
 377 778 377 778 406.5 707 c 128,-1,20
 436 636 436 636 488 592 c 0,21,22
 541 547 541 547 618 523.5 c 128,-1,23
 695 500 695 500 793 493 c 1,24,-1
 793 1489 l 1,25,-1
 990 1489 l 1,26,-1
 990 493 l 1,27,28
 1087 501 1087 501 1165 523.5 c 128,-1,29
 1243 546 1243 546 1296 592 c 0,30,31
 1352 641 1352 641 1379 707.5 c 128,-1,32
 1406 774 1406 774 1406 887 c 2,33,-1
 1406 1489 l 1,34,-1
 1604 1489 l 1,35,-1
 1604 910 l 2,0,1
EndSplineSet
EndChar

StartChar: uni03A9
Encoding: 937 937 385
Width: 1676
Flags: W
LayerCount: 2
Fore
SplineSet
1568 0 m 1,0,-1
 992 0 l 1,1,-1
 992 387 l 1,2,3
 1052 425 1052 425 1111.5 469 c 128,-1,4
 1171 513 1171 513 1215 570 c 0,5,6
 1260 629 1260 629 1286 708.5 c 128,-1,7
 1312 788 1312 788 1312 894 c 0,8,9
 1312 1100 1312 1100 1185 1224.5 c 128,-1,10
 1058 1349 1058 1349 838 1349 c 256,11,12
 618 1349 618 1349 491 1224.5 c 128,-1,13
 364 1100 364 1100 364 894 c 0,14,15
 364 788 364 788 390 708.5 c 128,-1,16
 416 629 416 629 461 570 c 0,17,18
 506 513 506 513 565 469 c 128,-1,19
 624 425 624 425 684 387 c 1,20,-1
 684 0 l 1,21,-1
 108 0 l 1,22,-1
 108 174 l 1,23,-1
 518 174 l 1,24,-1
 518 298 l 1,25,26
 361 388 361 388 259.5 544 c 128,-1,27
 158 700 158 700 158 894 c 0,28,29
 158 1170 158 1170 345.5 1345 c 128,-1,30
 533 1520 533 1520 838 1520 c 256,31,32
 1143 1520 1143 1520 1330.5 1345 c 128,-1,33
 1518 1170 1518 1170 1518 894 c 0,34,35
 1518 700 1518 700 1416.5 544 c 128,-1,36
 1315 388 1315 388 1158 298 c 1,37,-1
 1158 174 l 1,38,-1
 1568 174 l 1,39,-1
 1568 0 l 1,0,-1
EndSplineSet
EndChar

StartChar: alpha
Encoding: 945 945 393
Width: 1276
Flags: W
LayerCount: 2
Fore
SplineSet
1091 0 m 1,0,-1
 903 0 l 1,1,-1
 903 117 l 1,2,3
 822 47 822 47 734 8 c 128,-1,4
 646 -31 646 -31 543 -31 c 0,5,6
 343 -31 343 -31 225.5 123 c 128,-1,7
 108 277 108 277 108 550 c 0,8,9
 108 692 108 692 148.5 803 c 128,-1,10
 189 914 189 914 258 992 c 0,11,12
 326 1068 326 1068 416.5 1108 c 128,-1,13
 507 1148 507 1148 604 1148 c 0,14,15
 692 1148 692 1148 760 1126 c 128,-1,16
 828 1104 828 1104 903 1065 c 1,17,-1
 903 1117 l 1,18,-1
 1091 1117 l 1,19,-1
 1091 0 l 1,0,-1
903 275 m 1,20,-1
 903 911 l 1,21,22
 827 945 827 945 767 960.5 c 128,-1,23
 707 976 707 976 636 976 c 0,24,25
 478 976 478 976 390 866 c 128,-1,26
 302 756 302 756 302 554 c 0,27,28
 302 355 302 355 370 251.5 c 128,-1,29
 438 148 438 148 588 148 c 0,30,31
 668 148 668 148 750 183.5 c 128,-1,32
 832 219 832 219 903 275 c 1,20,-1
EndSplineSet
EndChar

StartChar: beta
Encoding: 946 946 394
Width: 1270
Flags: W
LayerCount: 2
Fore
SplineSet
1165 444 m 0,0,1
 1165 242 1165 242 1030.5 110 c 128,-1,2
 896 -22 896 -22 691 -22 c 0,3,4
 612 -22 612 -22 524 0 c 128,-1,5
 436 22 436 22 373 64 c 1,6,-1
 373 -412 l 1,7,-1
 185 -412 l 1,8,-1
 185 1078 l 2,9,10
 185 1302 185 1302 311.5 1429 c 128,-1,11
 438 1556 438 1556 661 1556 c 0,12,13
 751 1556 751 1556 825.5 1534.5 c 128,-1,14
 900 1513 900 1513 959 1467 c 0,15,16
 1016 1424 1016 1424 1050 1355 c 128,-1,17
 1084 1286 1084 1286 1084 1195 c 0,18,19
 1084 1068 1084 1068 1014.5 973.5 c 128,-1,20
 945 879 945 879 818 842 c 1,21,-1
 818 825 l 1,22,23
 977 799 977 799 1071 699.5 c 128,-1,24
 1165 600 1165 600 1165 444 c 0,0,1
971 449 m 0,25,26
 971 538 971 538 936.5 593.5 c 128,-1,27
 902 649 902 649 844 680 c 0,28,29
 785 712 785 712 712 723 c 128,-1,30
 639 734 639 734 566 734 c 2,31,-1
 530 734 l 1,32,-1
 530 894 l 1,33,-1
 566 894 l 2,34,35
 632 894 632 894 697 908.5 c 128,-1,36
 762 923 762 923 801 953 c 0,37,38
 847 987 847 987 869.5 1036 c 128,-1,39
 892 1085 892 1085 892 1170 c 0,40,41
 892 1282 892 1282 823 1340 c 128,-1,42
 754 1398 754 1398 645 1398 c 0,43,44
 572 1398 572 1398 520 1371.5 c 128,-1,45
 468 1345 468 1345 435 1301 c 0,46,47
 403 1257 403 1257 388 1198.5 c 128,-1,48
 373 1140 373 1140 373 1078 c 2,49,-1
 373 216 l 1,50,51
 439 178 439 178 514 162.5 c 128,-1,52
 589 147 589 147 661 147 c 0,53,54
 810 147 810 147 890.5 225.5 c 128,-1,55
 971 304 971 304 971 449 c 0,25,26
EndSplineSet
EndChar

StartChar: gamma
Encoding: 947 947 395
Width: 1212
Flags: W
LayerCount: 2
Fore
SplineSet
1151 1117 m 1,0,-1
 694 56 l 1,1,-1
 694 -412 l 1,2,-1
 506 -412 l 1,3,-1
 506 56 l 1,4,-1
 61 1117 l 1,5,-1
 265 1117 l 1,6,-1
 608 289 l 1,7,-1
 954 1117 l 1,8,-1
 1151 1117 l 1,0,-1
EndSplineSet
EndChar

StartChar: delta
Encoding: 948 948 396
Width: 1245
Flags: W
LayerCount: 2
Fore
SplineSet
1139 551 m 0,0,1
 1139 279 1139 279 1000.5 124 c 128,-1,2
 862 -31 862 -31 624 -31 c 0,3,4
 383 -31 383 -31 244.5 120.5 c 128,-1,5
 106 272 106 272 106 534 c 0,6,7
 106 675 106 675 149 773.5 c 128,-1,8
 192 872 192 872 256 936 c 0,9,10
 325 1008 325 1008 415 1049 c 128,-1,11
 505 1090 505 1090 597 1107 c 1,12,13
 521 1170 521 1170 431 1237.5 c 128,-1,14
 341 1305 341 1305 239 1377 c 1,15,-1
 239 1556 l 1,16,-1
 1049 1556 l 1,17,-1
 1049 1398 l 1,18,-1
 488 1398 l 1,19,-1
 488 1388 l 1,20,21
 556 1342 556 1342 667 1264 c 128,-1,22
 778 1186 778 1186 871 1102 c 0,23,24
 1021 966 1021 966 1080 840.5 c 128,-1,25
 1139 715 1139 715 1139 551 c 0,0,1
945 551 m 0,26,27
 945 686 945 686 890 800 c 128,-1,28
 835 914 835 914 725 1000 c 1,29,30
 659 992 659 992 586.5 968 c 128,-1,31
 514 944 514 944 448 891 c 0,32,33
 385 841 385 841 342.5 754 c 128,-1,34
 300 667 300 667 300 540 c 0,35,36
 300 339 300 339 385 235 c 128,-1,37
 470 131 470 131 626 131 c 0,38,39
 779 131 779 131 862 236.5 c 128,-1,40
 945 342 945 342 945 551 c 0,26,27
EndSplineSet
EndChar

StartChar: epsilon
Encoding: 949 949 397
Width: 1050
Flags: W
LayerCount: 2
Fore
SplineSet
1006 64 m 1,0,1
 899 16 899 16 796 -5 c 128,-1,2
 693 -26 693 -26 578 -26 c 0,3,4
 499 -26 499 -26 417 -10 c 128,-1,5
 335 6 335 6 265 46 c 0,6,7
 196 85 196 85 152.5 148.5 c 128,-1,8
 109 212 109 212 109 306 c 0,9,10
 109 402 109 402 165.5 474 c 128,-1,11
 222 546 222 546 343 584 c 1,12,-1
 343 591 l 1,13,14
 252 615 252 615 198 681 c 128,-1,15
 144 747 144 747 144 839 c 0,16,17
 144 928 144 928 191.5 986.5 c 128,-1,18
 239 1045 239 1045 304 1079 c 0,19,20
 368 1112 368 1112 449 1128 c 128,-1,21
 530 1144 530 1144 609 1144 c 0,22,23
 707 1144 707 1144 789 1127.5 c 128,-1,24
 871 1111 871 1111 961 1083 c 1,25,-1
 961 876 l 1,26,-1
 948 876 l 1,27,28
 882 927 882 927 784.5 955 c 128,-1,29
 687 983 687 983 587 983 c 0,30,31
 542 983 542 983 503 977.5 c 128,-1,32
 464 972 464 972 422 952 c 0,33,34
 387 937 387 937 361.5 903.5 c 128,-1,35
 336 870 336 870 336 826 c 0,36,37
 336 765 336 765 364 731 c 128,-1,38
 392 697 392 697 440 682 c 0,39,40
 485 668 485 668 537 666.5 c 128,-1,41
 589 665 589 665 642 665 c 2,42,-1
 753 665 l 1,43,-1
 753 499 l 1,44,-1
 595 499 l 2,45,46
 533 499 533 499 483 494.5 c 128,-1,47
 433 490 433 490 391 473 c 0,48,49
 350 456 350 456 325.5 419 c 128,-1,50
 301 382 301 382 301 323 c 0,51,52
 301 270 301 270 327 233 c 128,-1,53
 353 196 353 196 394 175 c 0,54,55
 431 156 431 156 481.5 146 c 128,-1,56
 532 136 532 136 588 136 c 0,57,58
 690 136 690 136 806 172 c 128,-1,59
 922 208 922 208 993 270 c 1,60,-1
 1006 270 l 1,61,-1
 1006 64 l 1,0,1
EndSplineSet
EndChar

StartChar: zeta
Encoding: 950 950 398
Width: 937
Flags: W
LayerCount: 2
Fore
SplineSet
922 75 m 0,0,1
 954 35 954 35 968 -10.5 c 128,-1,2
 982 -56 982 -56 982 -96 c 0,3,4
 982 -180 982 -180 937 -264.5 c 128,-1,5
 892 -349 892 -349 825 -412 c 1,6,-1
 646 -412 l 1,7,-1
 646 -398 l 1,8,9
 736 -319 736 -319 774 -259.5 c 128,-1,10
 812 -200 812 -200 812 -131 c 0,11,12
 812 -74 812 -74 781.5 -36 c 128,-1,13
 751 2 751 2 704 2 c 2,14,-1
 559 2 l 2,15,16
 330 2 330 2 219 118 c 128,-1,17
 108 234 108 234 108 463 c 0,18,19
 108 603 108 603 154 731 c 128,-1,20
 200 859 200 859 278 978 c 0,21,22
 353 1090 353 1090 451.5 1192.5 c 128,-1,23
 550 1295 550 1295 658 1389 c 1,24,-1
 658 1398 l 1,25,-1
 198 1398 l 1,26,-1
 198 1556 l 1,27,-1
 942 1556 l 1,28,-1
 942 1421 l 1,29,30
 825 1343 825 1343 710.5 1240 c 128,-1,31
 596 1137 596 1137 506 1017 c 0,32,33
 417 900 417 900 360 760 c 128,-1,34
 303 620 303 620 303 477 c 0,35,36
 303 443 303 443 306 407 c 128,-1,37
 309 371 309 371 321 331 c 0,38,39
 331 293 331 293 355.5 255.5 c 128,-1,40
 380 218 380 218 419 194 c 0,41,42
 455 172 455 172 515.5 169.5 c 128,-1,43
 576 167 576 167 632 167 c 2,44,-1
 718 167 l 2,45,46
 789 167 789 167 840 141 c 128,-1,47
 891 115 891 115 922 75 c 0,0,1
EndSplineSet
EndChar

StartChar: eta
Encoding: 951 951 399
Width: 1296
Flags: W
LayerCount: 2
Fore
SplineSet
1119 -412 m 1,0,-1
 931 -412 l 1,1,-1
 931 636 l 2,2,3
 931 713 931 713 922 780.5 c 128,-1,4
 913 848 913 848 889 886 c 0,5,6
 864 928 864 928 817 948.5 c 128,-1,7
 770 969 770 969 695 969 c 0,8,9
 618 969 618 969 534 931 c 128,-1,10
 450 893 450 893 373 834 c 1,11,-1
 373 0 l 1,12,-1
 185 0 l 1,13,-1
 185 1117 l 1,14,-1
 373 1117 l 1,15,-1
 373 993 l 1,16,17
 461 1066 461 1066 555 1107 c 128,-1,18
 649 1148 649 1148 748 1148 c 0,19,20
 929 1148 929 1148 1024 1039 c 128,-1,21
 1119 930 1119 930 1119 725 c 2,22,-1
 1119 -412 l 1,0,-1
EndSplineSet
EndChar

StartChar: theta
Encoding: 952 952 400
Width: 1278
Flags: W
LayerCount: 2
Fore
SplineSet
1141 768 m 0,0,1
 1141 578 1141 578 1118 451.5 c 128,-1,2
 1095 325 1095 325 1059 241 c 0,3,4
 1001 106 1001 106 896 37.5 c 128,-1,5
 791 -31 791 -31 639 -31 c 256,6,7
 487 -31 487 -31 382 37.5 c 128,-1,8
 277 106 277 106 219 241 c 0,9,10
 182 325 182 325 159.5 451.5 c 128,-1,11
 137 578 137 578 137 768 c 0,12,13
 137 942 137 942 159.5 1073.5 c 128,-1,14
 182 1205 182 1205 220 1288 c 0,15,16
 277 1418 277 1418 382.5 1487 c 128,-1,17
 488 1556 488 1556 639 1556 c 256,18,19
 790 1556 790 1556 895.5 1487 c 128,-1,20
 1001 1418 1001 1418 1058 1288 c 0,21,22
 1095 1204 1095 1204 1118 1073 c 128,-1,23
 1141 942 1141 942 1141 768 c 0,0,1
952 858 m 1,24,25
 948 1001 948 1001 923.5 1108 c 128,-1,26
 899 1215 899 1215 867 1269 c 0,27,28
 826 1339 826 1339 772 1367.5 c 128,-1,29
 718 1396 718 1396 639 1396 c 256,30,31
 560 1396 560 1396 506 1367.5 c 128,-1,32
 452 1339 452 1339 411 1269 c 0,33,34
 377 1214 377 1214 353.5 1107.5 c 128,-1,35
 330 1001 330 1001 326 858 c 1,36,-1
 952 858 l 1,24,25
952 697 m 1,37,-1
 326 697 l 1,38,39
 326 555 326 555 349 438.5 c 128,-1,40
 372 322 372 322 408 260 c 0,41,42
 448 191 448 191 504 160 c 128,-1,43
 560 129 560 129 639 129 c 256,44,45
 718 129 718 129 774 160 c 128,-1,46
 830 191 830 191 870 260 c 0,47,48
 906 322 906 322 929 438.5 c 128,-1,49
 952 555 952 555 952 697 c 1,37,-1
EndSplineSet
EndChar

StartChar: kappa
Encoding: 954 954 402
Width: 1212
Flags: W
LayerCount: 2
Fore
SplineSet
1192 0 m 1,0,-1
 944 0 l 1,1,-1
 493 489 l 1,2,-1
 381 380 l 1,3,-1
 381 0 l 1,4,-1
 193 0 l 1,5,-1
 193 1117 l 1,6,-1
 381 1117 l 1,7,-1
 381 567 l 1,8,-1
 765 984 l 2,9,10
 837 1063 837 1063 900.5 1091 c 128,-1,11
 964 1119 964 1119 1027 1119 c 0,12,13
 1055 1119 1055 1119 1085 1118 c 128,-1,14
 1115 1117 1115 1117 1122 1117 c 1,15,-1
 1122 951 l 1,16,-1
 1111 951 l 2,17,18
 1095 953 1095 953 1071.5 954 c 128,-1,19
 1048 955 1048 955 1035 955 c 0,20,21
 988 955 988 955 949.5 931.5 c 128,-1,22
 911 908 911 908 882 875 c 2,23,-1
 631 604 l 1,24,-1
 1192 0 l 1,0,-1
EndSplineSet
EndChar

StartChar: lambda
Encoding: 955 955 403
Width: 1212
Flags: W
LayerCount: 2
Fore
SplineSet
1151 0 m 1,0,-1
 946 0 l 1,1,-1
 618 829 l 1,2,-1
 257 0 l 1,3,-1
 61 0 l 1,4,-1
 526 1056 l 1,5,-1
 311 1556 l 1,6,-1
 522 1556 l 1,7,-1
 1151 0 l 1,0,-1
EndSplineSet
EndChar

StartChar: uni03BC
Encoding: 956 956 404
Width: 1310
Flags: W
LayerCount: 2
Fore
SplineSet
1125 0 m 1,0,-1
 939 0 l 1,1,-1
 939 118 l 1,2,3
 865 40 865 40 797.5 9.5 c 128,-1,4
 730 -21 730 -21 652 -21 c 0,5,6
 577 -21 577 -21 517 6 c 128,-1,7
 457 33 457 33 373 113 c 1,8,-1
 373 -412 l 1,9,-1
 185 -412 l 1,10,-1
 185 1117 l 1,11,-1
 373 1117 l 1,12,-1
 373 279 l 1,13,14
 405 240 405 240 484 199 c 128,-1,15
 563 158 563 158 654 158 c 0,16,17
 747 158 747 158 815 191.5 c 128,-1,18
 883 225 883 225 937 285 c 1,19,-1
 937 1117 l 1,20,-1
 1125 1117 l 1,21,-1
 1125 0 l 1,0,-1
EndSplineSet
EndChar

StartChar: xi
Encoding: 958 958 406
Width: 1030
Flags: W
LayerCount: 2
Fore
SplineSet
1041 -96 m 0,0,1
 1041 -181 1041 -181 995.5 -265 c 128,-1,2
 950 -349 950 -349 884 -412 c 1,3,-1
 704 -412 l 1,4,-1
 704 -398 l 1,5,6
 796 -319 796 -319 833.5 -259 c 128,-1,7
 871 -199 871 -199 871 -131 c 0,8,9
 871 -76 871 -76 842 -37 c 128,-1,10
 813 2 813 2 767 2 c 2,11,-1
 627 2 l 2,12,13
 487 2 487 2 394.5 29 c 128,-1,14
 302 56 302 56 239 113 c 0,15,16
 173 173 173 173 138.5 248.5 c 128,-1,17
 104 324 104 324 104 412 c 0,18,19
 104 490 104 490 129 556 c 128,-1,20
 154 622 154 622 202 675 c 0,21,22
 246 724 246 724 314.5 758.5 c 128,-1,23
 383 793 383 793 459 812 c 1,24,-1
 459 823 l 1,25,26
 334 851 334 851 259 933.5 c 128,-1,27
 184 1016 184 1016 184 1120 c 0,28,29
 184 1203 184 1203 227.5 1270.5 c 128,-1,30
 271 1338 271 1338 361 1396 c 1,31,-1
 361 1402 l 1,32,-1
 133 1402 l 1,33,-1
 133 1556 l 1,34,-1
 957 1556 l 1,35,-1
 957 1398 l 1,36,-1
 701 1398 l 2,37,38
 633 1398 633 1398 578.5 1383.5 c 128,-1,39
 524 1369 524 1369 476 1335 c 0,40,41
 431 1303 431 1303 404 1252 c 128,-1,42
 377 1201 377 1201 377 1134 c 0,43,44
 377 1055 377 1055 409.5 1006 c 128,-1,45
 442 957 442 957 493 931 c 0,46,47
 538 908 538 908 597 897 c 128,-1,48
 656 886 656 886 736 886 c 2,49,-1
 906 886 l 1,50,-1
 906 721 l 1,51,-1
 611 721 l 2,52,53
 545 721 545 721 492.5 701 c 128,-1,54
 440 681 440 681 393 642 c 0,55,56
 350 605 350 605 324.5 552 c 128,-1,57
 299 499 299 499 299 440 c 0,58,59
 299 338 299 338 336.5 281 c 128,-1,60
 374 224 374 224 438 199 c 0,61,62
 501 174 501 174 577.5 170.5 c 128,-1,63
 654 167 654 167 744 167 c 2,64,-1
 772 167 l 2,65,66
 840 167 840 167 891.5 143.5 c 128,-1,67
 943 120 943 120 976 83 c 0,68,69
 1007 48 1007 48 1024 0.5 c 128,-1,70
 1041 -47 1041 -47 1041 -96 c 0,0,1
EndSplineSet
EndChar

StartChar: pi
Encoding: 960 960 408
Width: 1305
Flags: W
LayerCount: 2
Fore
SplineSet
1120 0 m 1,0,-1
 932 0 l 1,1,-1
 932 955 l 1,2,-1
 373 955 l 1,3,-1
 373 0 l 1,4,-1
 185 0 l 1,5,-1
 185 1117 l 1,6,-1
 1120 1117 l 1,7,-1
 1120 0 l 1,0,-1
EndSplineSet
EndChar

StartChar: rho
Encoding: 961 961 409
Width: 1280
Flags: W
LayerCount: 2
Fore
SplineSet
1172 577 m 0,0,1
 1172 319 1172 319 1033.5 148.5 c 128,-1,2
 895 -22 895 -22 673 -22 c 0,3,4
 608 -22 608 -22 526.5 -4 c 128,-1,5
 445 14 445 14 373 57 c 1,6,-1
 373 -412 l 1,7,-1
 185 -412 l 1,8,-1
 185 646 l 2,9,10
 185 769 185 769 220.5 861.5 c 128,-1,11
 256 954 256 954 322 1020 c 0,12,13
 384 1082 384 1082 477.5 1115 c 128,-1,14
 571 1148 571 1148 673 1148 c 0,15,16
 916 1148 916 1148 1044 1001 c 128,-1,17
 1172 854 1172 854 1172 577 c 0,0,1
978 565 m 0,18,19
 978 783 978 783 898 885 c 128,-1,20
 818 987 818 987 672 987 c 0,21,22
 514 987 514 987 443.5 891 c 128,-1,23
 373 795 373 795 373 613 c 2,24,-1
 373 210 l 1,25,26
 446 176 446 176 505.5 161.5 c 128,-1,27
 565 147 565 147 640 147 c 0,28,29
 802 147 802 147 890 258 c 128,-1,30
 978 369 978 369 978 565 c 0,18,19
EndSplineSet
EndChar

StartChar: sigma1
Encoding: 962 962 410
Width: 1040
Flags: W
LayerCount: 2
Fore
SplineSet
1018 -96 m 0,0,1
 1018 -183 1018 -183 971 -268 c 128,-1,2
 924 -353 924 -353 862 -412 c 1,3,-1
 685 -412 l 1,4,-1
 685 -398 l 1,5,6
 771 -323 771 -323 809.5 -262.5 c 128,-1,7
 848 -202 848 -202 848 -131 c 0,8,9
 848 -77 848 -77 818 -37.5 c 128,-1,10
 788 2 788 2 743 2 c 2,11,-1
 651 2 l 2,12,13
 534 2 534 2 435 32 c 128,-1,14
 336 62 336 62 261 129 c 0,15,16
 188 195 188 195 146.5 299 c 128,-1,17
 105 403 105 403 105 549 c 0,18,19
 105 819 105 819 260.5 981 c 128,-1,20
 416 1143 416 1143 675 1143 c 0,21,22
 759 1143 759 1143 839 1124.5 c 128,-1,23
 919 1106 919 1106 986 1079 c 1,24,-1
 986 868 l 1,25,-1
 974 868 l 1,26,27
 880 930 880 930 801.5 955 c 128,-1,28
 723 980 723 980 655 980 c 0,29,30
 489 980 489 980 394.5 861 c 128,-1,31
 300 742 300 742 300 549 c 0,32,33
 300 437 300 437 328.5 366 c 128,-1,34
 357 295 357 295 407 250 c 0,35,36
 457 206 457 206 521.5 186.5 c 128,-1,37
 586 167 586 167 661 167 c 2,38,-1
 761 167 l 2,39,40
 876 167 876 167 947 90.5 c 128,-1,41
 1018 14 1018 14 1018 -96 c 0,0,1
EndSplineSet
EndChar

StartChar: sigma
Encoding: 963 963 411
Width: 1291
Flags: W
LayerCount: 2
Fore
SplineSet
1137 558 m 0,0,1
 1137 277 1137 277 996.5 123 c 128,-1,2
 856 -31 856 -31 623 -31 c 0,3,4
 382 -31 382 -31 244 127 c 128,-1,5
 106 285 106 285 106 558 c 0,6,7
 106 833 106 833 247 990.5 c 128,-1,8
 388 1148 388 1148 625 1148 c 0,9,10
 680 1148 680 1148 733 1137 c 128,-1,11
 786 1126 786 1126 815 1117 c 1,12,-1
 1295 1117 l 1,13,-1
 1295 952 l 1,14,-1
 1007 952 l 1,15,16
 1069 879 1069 879 1103 782 c 128,-1,17
 1137 685 1137 685 1137 558 c 0,0,1
943 558 m 0,18,19
 943 773 943 773 861 880 c 128,-1,20
 779 987 779 987 625 987 c 0,21,22
 464 987 464 987 382 875 c 128,-1,23
 300 763 300 763 300 558 c 0,24,25
 300 349 300 349 383.5 240 c 128,-1,26
 467 131 467 131 623 131 c 0,27,28
 775 131 775 131 859 238.5 c 128,-1,29
 943 346 943 346 943 558 c 0,18,19
EndSplineSet
EndChar

StartChar: tau
Encoding: 964 964 412
Width: 1016
Flags: W
LayerCount: 2
Fore
SplineSet
1006 952 m 1,0,-1
 602 952 l 1,1,-1
 602 0 l 1,2,-1
 414 0 l 1,3,-1
 414 952 l 1,4,-1
 10 952 l 1,5,-1
 10 1117 l 1,6,-1
 1006 1117 l 1,7,-1
 1006 952 l 1,0,-1
EndSplineSet
EndChar

StartChar: upsilon
Encoding: 965 965 413
Width: 1293
Flags: W
LayerCount: 2
Fore
SplineSet
1116 407 m 2,0,1
 1116 189 1116 189 994 79.5 c 128,-1,2
 872 -30 872 -30 646 -30 c 0,3,4
 423 -30 423 -30 300 77.5 c 128,-1,5
 177 185 177 185 177 407 c 2,6,-1
 177 1117 l 1,7,-1
 365 1117 l 1,8,-1
 365 476 l 2,9,10
 365 383 365 383 375 323 c 128,-1,11
 385 263 385 263 417 217 c 0,12,13
 448 174 448 174 501.5 152.5 c 128,-1,14
 555 131 555 131 647 131 c 0,15,16
 733 131 733 131 790.5 153 c 128,-1,17
 848 175 848 175 878 219 c 0,18,19
 907 263 907 263 917.5 324.5 c 128,-1,20
 928 386 928 386 928 476 c 2,21,-1
 928 1117 l 1,22,-1
 1116 1117 l 1,23,-1
 1116 407 l 2,0,1
EndSplineSet
EndChar

StartChar: phi
Encoding: 966 966 414
Width: 1618
Flags: W
LayerCount: 2
Fore
SplineSet
1514 576 m 0,0,1
 1514 317 1514 317 1342.5 159 c 128,-1,2
 1171 1 1171 1 902 -14 c 1,3,-1
 902 -412 l 1,4,-1
 715 -412 l 1,5,-1
 715 -14 l 1,6,7
 585 -8 585 -8 474.5 32.5 c 128,-1,8
 364 73 364 73 283 142 c 0,9,10
 198 216 198 216 151 314 c 128,-1,11
 104 412 104 412 104 546 c 0,12,13
 104 705 104 705 163 842 c 128,-1,14
 222 979 222 979 355 1117 c 1,15,-1
 584 1117 l 1,16,-1
 584 1100 l 1,17,18
 448 1001 448 1001 374 868 c 128,-1,19
 300 735 300 735 300 568 c 0,20,21
 300 379 300 379 412.5 264 c 128,-1,22
 525 149 525 149 714 143 c 1,23,-1
 714 1143 l 1,24,25
 747 1145 747 1145 784.5 1145.5 c 128,-1,26
 822 1146 822 1146 861 1146 c 0,27,28
 1165 1146 1165 1146 1339.5 996.5 c 128,-1,29
 1514 847 1514 847 1514 576 c 0,0,1
1319 586 m 0,30,31
 1319 770 1319 770 1207 879.5 c 128,-1,32
 1095 989 1095 989 902 989 c 1,33,-1
 902 143 l 1,34,35
 1108 153 1108 153 1213.5 269 c 128,-1,36
 1319 385 1319 385 1319 586 c 0,30,31
EndSplineSet
EndChar

StartChar: chi
Encoding: 967 967 415
Width: 1208
Flags: W
LayerCount: 2
Fore
SplineSet
1160 -412 m 1,0,-1
 947 -412 l 1,1,-1
 601 207 l 1,2,-1
 251 -412 l 1,3,-1
 48 -412 l 1,4,-1
 492 358 l 1,5,-1
 59 1117 l 1,6,-1
 272 1117 l 1,7,-1
 607 517 l 1,8,-1
 946 1117 l 1,9,-1
 1149 1117 l 1,10,-1
 716 366 l 1,11,-1
 1160 -412 l 1,0,-1
EndSplineSet
EndChar

StartChar: psi
Encoding: 968 968 416
Width: 1683
Flags: W
LayerCount: 2
Fore
SplineSet
1507 446 m 2,0,1
 1507 332 1507 332 1459 248 c 128,-1,2
 1411 164 1411 164 1332 111 c 0,3,4
 1250 56 1250 56 1150 28.5 c 128,-1,5
 1050 1 1050 1 935 -4 c 1,6,-1
 935 -412 l 1,7,-1
 748 -412 l 1,8,-1
 748 -4 l 1,9,10
 633 2 633 2 533.5 28 c 128,-1,11
 434 54 434 54 351 111 c 0,12,13
 271 165 271 165 223.5 248.5 c 128,-1,14
 176 332 176 332 176 446 c 2,15,-1
 176 1117 l 1,16,-1
 364 1117 l 1,17,-1
 364 505 l 2,18,19
 364 392 364 392 401.5 324.5 c 128,-1,20
 439 257 439 257 491 222 c 0,21,22
 547 184 547 184 614 169 c 128,-1,23
 681 154 681 154 748 150 c 1,24,-1
 748 1117 l 1,25,-1
 935 1117 l 1,26,-1
 935 150 l 1,27,28
 1002 155 1002 155 1069 169 c 128,-1,29
 1136 183 1136 183 1192 222 c 0,30,31
 1251 262 1251 262 1285 323.5 c 128,-1,32
 1319 385 1319 385 1319 505 c 2,33,-1
 1319 1117 l 1,34,-1
 1507 1117 l 1,35,-1
 1507 446 l 2,0,1
EndSplineSet
EndChar

StartChar: omega
Encoding: 969 969 417
Width: 1666
Flags: W
LayerCount: 2
Fore
SplineSet
1553 503 m 0,0,1
 1553 407 1553 407 1529.5 310.5 c 128,-1,2
 1506 214 1506 214 1455 139 c 0,3,4
 1400 59 1400 59 1321.5 14.5 c 128,-1,5
 1243 -30 1243 -30 1128 -30 c 0,6,7
 1032 -30 1032 -30 951 19.5 c 128,-1,8
 870 69 870 69 833 136 c 1,9,-1
 827 136 l 1,10,11
 788 68 788 68 714 19 c 128,-1,12
 640 -30 640 -30 538 -30 c 0,13,14
 425 -30 425 -30 343.5 16.5 c 128,-1,15
 262 63 262 63 211 139 c 256,16,17
 160 215 160 215 136.5 310.5 c 128,-1,18
 113 406 113 406 113 503 c 0,19,20
 113 673 113 673 170 811.5 c 128,-1,21
 227 950 227 950 371 1117 c 1,22,-1
 599 1117 l 1,23,-1
 599 1100 l 1,24,25
 464 992 464 992 384.5 838 c 128,-1,26
 305 684 305 684 305 501 c 0,27,28
 305 435 305 435 313 378.5 c 128,-1,29
 321 322 321 322 351 259 c 0,30,31
 377 204 377 204 423.5 167.5 c 128,-1,32
 470 131 470 131 541 131 c 0,33,34
 592 131 592 131 627.5 143.5 c 128,-1,35
 663 156 663 156 683 173 c 0,36,37
 705 191 705 191 719.5 213 c 128,-1,38
 734 235 734 235 740 250 c 1,39,-1
 740 834 l 1,40,-1
 926 834 l 1,41,-1
 926 250 l 1,42,43
 935 233 935 233 949 211 c 128,-1,44
 963 189 963 189 984 172 c 0,45,46
 1008 153 1008 153 1036.5 142 c 128,-1,47
 1065 131 1065 131 1123 131 c 0,48,49
 1193 131 1193 131 1240 166.5 c 128,-1,50
 1287 202 1287 202 1314 259 c 0,51,52
 1339 314 1339 314 1350 375 c 128,-1,53
 1361 436 1361 436 1361 501 c 0,54,55
 1361 683 1361 683 1282.5 837 c 128,-1,56
 1204 991 1204 991 1067 1100 c 1,57,-1
 1067 1117 l 1,58,-1
 1295 1117 l 1,59,60
 1439 950 1439 950 1496 811.5 c 128,-1,61
 1553 673 1553 673 1553 503 c 0,0,1
EndSplineSet
EndChar

StartChar: afii10051
Encoding: 1026 1026 424
Width: 1623
Flags: W
LayerCount: 2
Fore
SplineSet
1543 460 m 0,0,1
 1543 352 1543 352 1501.5 263.5 c 128,-1,2
 1460 175 1460 175 1387 117 c 0,3,4
 1300 48 1300 48 1212.5 24 c 128,-1,5
 1125 0 1125 0 987 0 c 2,6,-1
 877 0 l 1,7,-1
 877 177 l 1,8,-1
 970 177 l 2,9,10
 1061 177 1061 177 1121 185 c 128,-1,11
 1181 193 1181 193 1228 227 c 0,12,13
 1284 267 1284 267 1310 322.5 c 128,-1,14
 1336 378 1336 378 1336 456 c 0,15,16
 1336 531 1336 531 1311.5 588.5 c 128,-1,17
 1287 646 1287 646 1234 681 c 0,18,19
 1184 715 1184 715 1109.5 724.5 c 128,-1,20
 1035 734 1035 734 904 734 c 2,21,-1
 627 734 l 1,22,-1
 627 0 l 1,23,-1
 429 0 l 1,24,-1
 429 1313 l 1,25,-1
 -1 1313 l 1,26,-1
 -1 1489 l 1,27,-1
 1127 1489 l 1,28,-1
 1127 1313 l 1,29,-1
 627 1313 l 1,30,-1
 627 905 l 1,31,-1
 966 905 l 2,32,33
 1118 905 1118 905 1213.5 887 c 128,-1,34
 1309 869 1309 869 1394 803 c 0,35,36
 1470 744 1470 744 1506.5 657 c 128,-1,37
 1543 570 1543 570 1543 460 c 0,0,1
EndSplineSet
EndChar

StartChar: afii10053
Encoding: 1028 1028 426
Width: 1435
Flags: W
LayerCount: 2
Fore
SplineSet
1337 65 m 1,0,1
 1238 26 1238 26 1120 -0.5 c 128,-1,2
 1002 -27 1002 -27 857 -27 c 0,3,4
 688 -27 688 -27 551 25 c 128,-1,5
 414 77 414 77 317 176 c 256,6,7
 220 275 220 275 167.5 419 c 128,-1,8
 115 563 115 563 115 746 c 0,9,10
 115 921 115 921 167.5 1064.5 c 128,-1,11
 220 1208 220 1208 318 1310 c 0,12,13
 413 1408 413 1408 550 1462 c 128,-1,14
 687 1516 687 1516 856 1516 c 0,15,16
 996 1516 996 1516 1119 1490 c 128,-1,17
 1242 1464 1242 1464 1337 1425 c 1,18,-1
 1337 1202 l 1,19,-1
 1321 1202 l 1,20,21
 1243 1266 1243 1266 1118.5 1307 c 128,-1,22
 994 1348 994 1348 853 1348 c 0,23,24
 744 1348 744 1348 657 1319 c 128,-1,25
 570 1290 570 1290 498 1231 c 0,26,27
 428 1172 428 1172 384 1085.5 c 128,-1,28
 340 999 340 999 325 885 c 1,29,-1
 1145 885 l 1,30,-1
 1145 712 l 1,31,-1
 315 712 l 1,32,33
 315 573 315 573 359 464.5 c 128,-1,34
 403 356 403 356 474 286 c 0,35,36
 548 214 548 214 646 177.5 c 128,-1,37
 744 141 744 141 856 141 c 0,38,39
 994 141 994 141 1117.5 178 c 128,-1,40
 1241 215 1241 215 1321 282 c 1,41,-1
 1337 282 l 1,42,-1
 1337 65 l 1,0,1
EndSplineSet
EndChar

StartChar: afii10058
Encoding: 1033 1033 431
Width: 2290
Flags: W
LayerCount: 2
Fore
SplineSet
2003 457 m 0,0,1
 2003 532 2003 532 1978 589 c 128,-1,2
 1953 646 1953 646 1900 681 c 0,3,4
 1845 718 1845 718 1773 726 c 128,-1,5
 1701 734 1701 734 1570 734 c 2,6,-1
 1294 734 l 1,7,-1
 1294 169 l 1,8,-1
 1565 169 l 2,9,10
 1698 169 1698 169 1769.5 182 c 128,-1,11
 1841 195 1841 195 1895 232 c 0,12,13
 1951 271 1951 271 1977 323.5 c 128,-1,14
 2003 376 2003 376 2003 457 c 0,0,1
2210 461 m 0,15,16
 2210 353 2210 353 2167.5 265 c 128,-1,17
 2125 177 2125 177 2054 122 c 0,18,19
 1970 56 1970 56 1874 28 c 128,-1,20
 1778 0 1778 0 1626 0 c 2,21,-1
 1096 0 l 1,22,-1
 1096 1313 l 1,23,-1
 568 1313 l 1,24,25
 565 1200 565 1200 559.5 1091.5 c 128,-1,26
 554 983 554 983 551 898 c 0,27,28
 543 684 543 684 524.5 546 c 128,-1,29
 506 408 506 408 477 319 c 0,30,31
 448 229 448 229 411.5 175.5 c 128,-1,32
 375 122 375 122 328 79 c 0,33,34
 280 35 280 35 229.5 16 c 128,-1,35
 179 -3 179 -3 111 -3 c 0,36,37
 90 -3 90 -3 60 -1.5 c 128,-1,38
 30 0 30 0 18 0 c 1,39,-1
 18 192 l 1,40,-1
 32 192 l 2,41,42
 42 191 42 191 57 190 c 128,-1,43
 72 189 72 189 87 189 c 0,44,45
 123 189 123 189 155 200 c 128,-1,46
 187 211 187 211 209 234 c 0,47,48
 280 305 280 305 313.5 468 c 128,-1,49
 347 631 347 631 361 932 c 0,50,51
 366 1030 366 1030 371.5 1192 c 128,-1,52
 377 1354 377 1354 381 1489 c 1,53,-1
 1294 1489 l 1,54,-1
 1294 905 l 1,55,-1
 1632 905 l 2,56,57
 1784 905 1784 905 1880 887.5 c 128,-1,58
 1976 870 1976 870 2061 804 c 0,59,60
 2137 745 2137 745 2173.5 658 c 128,-1,61
 2210 571 2210 571 2210 461 c 0,15,16
EndSplineSet
EndChar

StartChar: afii10059
Encoding: 1034 1034 432
Width: 2259
Flags: W
LayerCount: 2
Fore
SplineSet
1972 457 m 0,0,1
 1972 532 1972 532 1947 589 c 128,-1,2
 1922 646 1922 646 1869 681 c 0,3,4
 1814 718 1814 718 1742 726 c 128,-1,5
 1670 734 1670 734 1539 734 c 2,6,-1
 1263 734 l 1,7,-1
 1263 169 l 1,8,-1
 1534 169 l 2,9,10
 1667 169 1667 169 1738.5 182 c 128,-1,11
 1810 195 1810 195 1864 232 c 0,12,13
 1920 271 1920 271 1946 323.5 c 128,-1,14
 1972 376 1972 376 1972 457 c 0,0,1
2179 461 m 0,15,16
 2179 353 2179 353 2136.5 265 c 128,-1,17
 2094 177 2094 177 2023 122 c 0,18,19
 1939 56 1939 56 1843 28 c 128,-1,20
 1747 0 1747 0 1595 0 c 2,21,-1
 1065 0 l 1,22,-1
 1065 734 l 1,23,-1
 398 734 l 1,24,-1
 398 0 l 1,25,-1
 200 0 l 1,26,-1
 200 1489 l 1,27,-1
 398 1489 l 1,28,-1
 398 905 l 1,29,-1
 1065 905 l 1,30,-1
 1065 1489 l 1,31,-1
 1263 1489 l 1,32,-1
 1263 905 l 1,33,-1
 1601 905 l 2,34,35
 1753 905 1753 905 1849 887.5 c 128,-1,36
 1945 870 1945 870 2030 804 c 0,37,38
 2106 745 2106 745 2142.5 658 c 128,-1,39
 2179 571 2179 571 2179 461 c 0,15,16
EndSplineSet
EndChar

StartChar: afii10060
Encoding: 1035 1035 433
Width: 1675
Flags: W
LayerCount: 2
Fore
SplineSet
627 0 m 1,0,-1
 429 0 l 1,1,-1
 429 1313 l 1,2,-1
 -1 1313 l 1,3,-1
 -1 1489 l 1,4,-1
 1127 1489 l 1,5,-1
 1127 1313 l 1,6,-1
 627 1313 l 1,7,-1
 627 846 l 1,8,9
 722 877 722 877 845 902.5 c 128,-1,10
 968 928 968 928 1071 928 c 0,11,12
 1172 928 1172 928 1257 903 c 128,-1,13
 1342 878 1342 878 1403 825 c 0,14,15
 1464 773 1464 773 1498.5 691.5 c 128,-1,16
 1533 610 1533 610 1533 495 c 2,17,-1
 1533 0 l 1,18,-1
 1335 0 l 1,19,-1
 1335 396 l 2,20,21
 1335 470 1335 470 1324 540 c 128,-1,22
 1313 610 1313 610 1283 653 c 0,23,24
 1251 699 1251 699 1190.5 723.5 c 128,-1,25
 1130 748 1130 748 1030 748 c 0,26,27
 924 748 924 748 826.5 729 c 128,-1,28
 729 710 729 710 627 676 c 1,29,-1
 627 0 l 1,0,-1
EndSplineSet
EndChar

StartChar: afii10062
Encoding: 1038 1038 436
Width: 1260
Flags: W
LayerCount: 2
Fore
SplineSet
1254 1489 m 1,0,-1
 688 236 l 2,1,2
 654 160 654 160 607.5 111 c 128,-1,3
 561 62 561 62 507 35 c 0,4,5
 455 10 455 10 406.5 1.5 c 128,-1,6
 358 -7 358 -7 313 -7 c 0,7,8
 273 -7 273 -7 216 -3 c 128,-1,9
 159 1 159 1 143 2 c 1,10,-1
 143 187 l 1,11,-1
 157 187 l 2,12,13
 172 185 172 185 207 180.5 c 128,-1,14
 242 176 242 176 287 176 c 0,15,16
 307 176 307 176 343 179 c 128,-1,17
 379 182 379 182 407 193 c 0,18,19
 439 205 439 205 470.5 231 c 128,-1,20
 502 257 502 257 524 307 c 2,21,-1
 560 386 l 1,22,-1
 6 1489 l 1,23,-1
 225 1489 l 1,24,-1
 660 611 l 1,25,-1
 1050 1489 l 1,26,-1
 1254 1489 l 1,0,-1
1017 1935 m 1,27,28
 1012 1769 1012 1769 911.5 1685 c 128,-1,29
 811 1601 811 1601 643 1601 c 256,30,31
 475 1601 475 1601 374.5 1685 c 128,-1,32
 274 1769 274 1769 269 1935 c 1,33,-1
 451 1935 l 1,34,35
 453 1823 453 1823 501 1773.5 c 128,-1,36
 549 1724 549 1724 643 1724 c 0,37,38
 738 1724 738 1724 785.5 1773 c 128,-1,39
 833 1822 833 1822 835 1935 c 1,40,-1
 1017 1935 l 1,27,28
EndSplineSet
EndChar

StartChar: afii10145
Encoding: 1039 1039 437
Width: 1539
Flags: W
LayerCount: 2
Fore
SplineSet
676 0 m 1,0,-1
 200 0 l 1,1,-1
 200 1489 l 1,2,-1
 398 1489 l 1,3,-1
 398 172 l 1,4,-1
 1141 172 l 1,5,-1
 1141 1489 l 1,6,-1
 1339 1489 l 1,7,-1
 1339 0 l 1,8,-1
 863 0 l 1,9,-1
 863 -337 l 1,10,-1
 676 -337 l 1,11,-1
 676 0 l 1,0,-1
EndSplineSet
EndChar

StartChar: afii10018
Encoding: 1041 1041 439
Width: 1404
Flags: W
LayerCount: 2
Fore
SplineSet
1324 461 m 0,0,1
 1324 353 1324 353 1281.5 265 c 128,-1,2
 1239 177 1239 177 1168 122 c 0,3,4
 1084 56 1084 56 988 28 c 128,-1,5
 892 0 892 0 740 0 c 2,6,-1
 200 0 l 1,7,-1
 200 1489 l 1,8,-1
 1197 1489 l 1,9,-1
 1197 1313 l 1,10,-1
 398 1313 l 1,11,-1
 398 905 l 1,12,-1
 746 905 l 2,13,14
 898 905 898 905 994 887.5 c 128,-1,15
 1090 870 1090 870 1175 804 c 0,16,17
 1251 745 1251 745 1287.5 658 c 128,-1,18
 1324 571 1324 571 1324 461 c 0,0,1
1117 457 m 0,19,20
 1117 532 1117 532 1092 589 c 128,-1,21
 1067 646 1067 646 1014 681 c 0,22,23
 959 718 959 718 887 726 c 128,-1,24
 815 734 815 734 684 734 c 2,25,-1
 398 734 l 1,26,-1
 398 169 l 1,27,-1
 679 169 l 2,28,29
 812 169 812 169 883.5 182 c 128,-1,30
 955 195 955 195 1009 232 c 0,31,32
 1065 271 1065 271 1091 323.5 c 128,-1,33
 1117 376 1117 376 1117 457 c 0,19,20
EndSplineSet
EndChar

StartChar: afii10020
Encoding: 1043 1043 441
Width: 1160
Flags: W
LayerCount: 2
Fore
SplineSet
1162 1313 m 1,0,-1
 398 1313 l 1,1,-1
 398 0 l 1,2,-1
 200 0 l 1,3,-1
 200 1489 l 1,4,-1
 1162 1489 l 1,5,-1
 1162 1313 l 1,0,-1
EndSplineSet
EndChar

StartChar: afii10021
Encoding: 1044 1044 442
Width: 1527
Flags: W
LayerCount: 2
Fore
SplineSet
1438 -337 m 1,0,-1
 1250 -337 l 1,1,-1
 1250 4 l 1,2,-1
 198 4 l 1,3,-1
 198 -337 l 1,4,-1
 10 -337 l 1,5,-1
 10 176 l 1,6,-1
 130 176 l 1,7,8
 260 390 260 390 337.5 734.5 c 128,-1,9
 415 1079 415 1079 415 1489 c 1,10,-1
 1297 1489 l 1,11,-1
 1297 176 l 1,12,-1
 1438 176 l 1,13,-1
 1438 -337 l 1,0,-1
1099 176 m 1,14,-1
 1099 1317 l 1,15,-1
 601 1317 l 1,16,17
 587 960 587 960 513 663.5 c 128,-1,18
 439 367 439 367 321 176 c 1,19,-1
 1099 176 l 1,14,-1
EndSplineSet
EndChar

StartChar: afii10024
Encoding: 1046 1046 444
Width: 1993
Flags: W
LayerCount: 2
Fore
SplineSet
1960 0 m 1,0,-1
 1718 0 l 1,1,-1
 1194 681 l 1,2,-1
 1089 681 l 1,3,-1
 1089 0 l 1,4,-1
 893 0 l 1,5,-1
 893 681 l 1,6,-1
 786 681 l 1,7,-1
 262 0 l 1,8,-1
 32 0 l 1,9,-1
 625 766 l 1,10,11
 537 824 537 824 485 902 c 128,-1,12
 433 980 433 980 401 1085 c 0,13,14
 382 1146 382 1146 363.5 1189.5 c 128,-1,15
 345 1233 345 1233 317 1261 c 0,16,17
 290 1288 290 1288 248.5 1300 c 128,-1,18
 207 1312 207 1312 147 1312 c 2,19,-1
 87 1312 l 1,20,-1
 87 1489 l 1,21,-1
 158 1489 l 2,22,23
 325 1489 325 1489 414 1425.5 c 128,-1,24
 503 1362 503 1362 564 1189 c 0,25,26
 575 1159 575 1159 590 1115 c 128,-1,27
 605 1071 605 1071 620 1035 c 0,28,29
 664 930 664 930 735.5 879 c 128,-1,30
 807 828 807 828 893 820 c 1,31,-1
 893 1489 l 1,32,-1
 1089 1489 l 1,33,-1
 1089 818 l 1,34,35
 1181 824 1181 824 1253.5 873.5 c 128,-1,36
 1326 923 1326 923 1372 1035 c 0,37,38
 1390 1079 1390 1079 1404.5 1121.5 c 128,-1,39
 1419 1164 1419 1164 1428 1189 c 0,40,41
 1488 1361 1488 1361 1578.5 1425 c 128,-1,42
 1669 1489 1669 1489 1834 1489 c 2,43,-1
 1905 1489 l 1,44,-1
 1905 1312 l 1,45,-1
 1845 1312 l 2,46,47
 1779 1312 1779 1312 1741.5 1300.5 c 128,-1,48
 1704 1289 1704 1289 1674 1261 c 0,49,50
 1645 1234 1645 1234 1626.5 1188.5 c 128,-1,51
 1608 1143 1608 1143 1589 1085 c 0,52,53
 1547 952 1547 952 1484.5 884.5 c 128,-1,54
 1422 817 1422 817 1360 778 c 1,55,-1
 1960 0 l 1,0,-1
EndSplineSet
EndChar

